<?xml version="1.0" encoding="UTF-8"?>
<svg id="Ebene_1" xmlns="http://www.w3.org/2000/svg" version="1.1" viewBox="0 0 816 631.4">
  <!-- Generator: Adobe Illustrator 29.2.1, SVG Export Plug-In . SVG Version: 2.1.0 Build 116)  -->
  <defs>
    <style>
      .st0 {
        fill: #fff;
      }
    </style>
  </defs>
  <path class="st0" d="M2.4,49.5V1h31.4v8.5H12.1v10.7h20.2v8.5H12.1v12.3h21.7v8.5H2.4Z"/>
  <path class="st0" d="M41.4,49.5V1h9.8v48.5h-9.8Z"/>
  <path class="st0" d="M90.6,40.9V1h9.8v48.5h-18.8l-9.6-40h-.8v40h-10V1h18.2l10.5,40h.9Z"/>
  <path class="st0" d="M126.5,25.2c0-14.5,7.8-25.2,23.1-25.2s20.2,5.7,21.8,17h-10.7c-.8-5.5-5.3-8.5-11.2-8.5-9.6,0-13.2,7.9-13.2,16.7s4.9,16.7,13.3,16.7,11.8-3.3,12.4-9.5h-11.2v-7.3h21.1c-.1,15.7-6.4,25.4-22.4,25.4s-23.1-10.7-23.1-25.2Z"/>
  <path class="st0" d="M207.2,1h9.8v31c0,11.4-5.8,18.4-18.4,18.4s-18.4-7-18.4-18.4V1h9.8v32.3c0,5.9,3.5,8.7,8.6,8.7s8.6-2.8,8.6-8.7V1Z"/>
  <path class="st0" d="M254.9,1v8.5h-11.2v40h-9.8V9.4h-11.1V1h32Z"/>
  <path class="st0" d="M261.3,49.5V1h31.4v8.5h-21.7v10.7h20.2v8.5h-20.2v12.3h21.7v8.5h-31.4Z"/>
  <path class="st0" d="M317.7,50.4c-10.5,0-20-5.1-19.7-16.7h9.8c-.4,3.9,3,8,9.1,8.2,5.1.1,8.2-1.7,8.2-5.3s-6.4-5.9-12.7-8.7c-6.8-3-13.9-7.1-13.9-14.6s8-13.3,17.9-13.3,18.5,4.5,18.1,15.8h-9.8c.4-3.7-1.5-7.1-7.6-7.3-5.1-.1-8.3,1.9-8.3,5.1s5.2,5.3,10.9,7.8c7.1,3,15.7,7,15.7,15.6s-7.9,13.4-17.8,13.4Z"/>
  <path class="st0" d="M361.7,49.5V1h20.3c15.7,0,21.9,7.6,21.9,24.2s-6.2,24.2-21.9,24.2h-20.3ZM371.5,40.9h9.4c10.5,0,13.2-6.7,13.2-15.7s-2.6-15.8-13.2-15.8h-9.4v31.5Z"/>
  <path class="st0" d="M411.1,49.5V1h31.4v8.5h-21.7v10.7h20.2v8.5h-20.2v12.3h21.7v8.5h-31.4Z"/>
  <path class="st0" d="M467.5,50.4c-10.5,0-20-5.1-19.7-16.7h9.8c-.4,3.9,3,8,9.1,8.2,5.1.1,8.2-1.7,8.2-5.3s-6.4-5.9-12.7-8.7c-6.8-3-13.9-7.1-13.9-14.6s8-13.3,17.9-13.3,18.5,4.5,18.1,15.8h-9.8c.4-3.7-1.5-7.1-7.6-7.3-5.1-.1-8.3,1.9-8.3,5.1s5.2,5.3,10.9,7.8c7.1,3,15.7,7,15.7,15.6s-7.9,13.4-17.8,13.4Z"/>
  <path class="st0" d="M493,49.5V1h9.8v48.5h-9.8Z"/>
  <path class="st0" d="M509.9,25.2c0-14.5,7.8-25.2,23.1-25.2s20.2,5.7,21.8,17h-10.7c-.8-5.5-5.3-8.5-11.2-8.5-9.6,0-13.2,7.9-13.2,16.7s4.9,16.7,13.3,16.7,11.8-3.3,12.4-9.5h-11.2v-7.3h21.1c-.1,15.7-6.4,25.4-22.4,25.4s-23.1-10.7-23.1-25.2Z"/>
  <path class="st0" d="M593.6,40.9V1h9.8v48.5h-18.8l-9.6-40h-.8v40h-10V1h18.2l10.5,40h.9Z"/>
  <path class="st0" d="M631.7,49.5V1h9.8v48.5h-9.8Z"/>
  <path class="st0" d="M668.7,50.4c-10.5,0-20-5.1-19.7-16.7h9.8c-.4,3.9,3,8,9.1,8.2,5.1.1,8.2-1.7,8.2-5.3s-6.4-5.9-12.7-8.7c-6.8-3-13.9-7.1-13.9-14.6s8-13.3,17.9-13.3,18.5,4.5,18.1,15.8h-9.8c.4-3.7-1.5-7.1-7.6-7.3-5.1-.1-8.3,1.9-8.3,5.1s5.2,5.3,10.9,7.8c7.1,3,15.7,7,15.7,15.6s-7.9,13.4-17.8,13.4Z"/>
  <path class="st0" d="M720.6,1v8.5h-11.2v40h-9.8V9.4h-11.1V1h32Z"/>
  <path class="st0" d="M2.4,107.6v-48.5h31.4v8.5H12.1v10.7h20.2v8.5H12.1v12.3h21.7v8.5H2.4Z"/>
  <path class="st0" d="M41.4,107.6v-48.5h9.8v48.5h-9.8Z"/>
  <path class="st0" d="M90.6,99v-40h9.8v48.5h-18.8l-9.6-40h-.8v40h-10v-48.5h18.2l10.5,40h.9Z"/>
  <path class="st0" d="M126.5,83.3c0-14.5,7.8-25.2,23.1-25.2s20.2,5.7,21.8,17h-10.7c-.8-5.5-5.3-8.5-11.2-8.5-9.6,0-13.2,7.9-13.2,16.7s4.9,16.7,13.3,16.7,11.8-3.3,12.4-9.5h-11.2v-7.3h21.1c-.1,15.7-6.4,25.4-22.4,25.4s-23.1-10.7-23.1-25.2Z"/>
  <path class="st0" d="M207.2,59.1h9.8v31c0,11.4-5.8,18.4-18.4,18.4s-18.4-7-18.4-18.4v-31h9.8v32.3c0,5.9,3.5,8.7,8.6,8.7s8.6-2.8,8.6-8.7v-32.3Z"/>
  <path class="st0" d="M254.9,59.1v8.5h-11.2v40h-9.8v-40h-11.1v-8.5h32Z"/>
  <path class="st0" d="M261.3,107.6v-48.5h31.4v8.5h-21.7v10.7h20.2v8.5h-20.2v12.3h21.7v8.5h-31.4Z"/>
  <path class="st0" d="M317.7,108.5c-10.5,0-20-5.1-19.7-16.7h9.8c-.4,3.9,3,8,9.1,8.2,5.1.1,8.2-1.7,8.2-5.3s-6.4-5.9-12.7-8.7c-6.8-3-13.9-7.1-13.9-14.6s8-13.3,17.9-13.3,18.5,4.5,18.1,15.8h-9.8c.4-3.7-1.5-7.1-7.6-7.3-5.1-.1-8.3,1.9-8.3,5.1s5.2,5.3,10.9,7.8c7.1,3,15.7,7,15.7,15.6s-7.9,13.4-17.8,13.4Z"/>
  <path class="st0" d="M361.7,107.6v-48.5h20.3c15.7,0,21.9,7.6,21.9,24.2s-6.2,24.2-21.9,24.2h-20.3ZM371.5,99h9.4c10.5,0,13.2-6.7,13.2-15.7s-2.6-15.8-13.2-15.8h-9.4v31.5Z"/>
  <path class="st0" d="M411.1,107.6v-48.5h31.4v8.5h-21.7v10.7h20.2v8.5h-20.2v12.3h21.7v8.5h-31.4Z"/>
  <path class="st0" d="M467.5,108.5c-10.5,0-20-5.1-19.7-16.7h9.8c-.4,3.9,3,8,9.1,8.2,5.1.1,8.2-1.7,8.2-5.3s-6.4-5.9-12.7-8.7c-6.8-3-13.9-7.1-13.9-14.6s8-13.3,17.9-13.3,18.5,4.5,18.1,15.8h-9.8c.4-3.7-1.5-7.1-7.6-7.3-5.1-.1-8.3,1.9-8.3,5.1s5.2,5.3,10.9,7.8c7.1,3,15.7,7,15.7,15.6s-7.9,13.4-17.8,13.4Z"/>
  <path class="st0" d="M493,107.6v-48.5h9.8v48.5h-9.8Z"/>
  <path class="st0" d="M509.9,83.3c0-14.5,7.8-25.2,23.1-25.2s20.2,5.7,21.8,17h-10.7c-.8-5.5-5.3-8.5-11.2-8.5-9.6,0-13.2,7.9-13.2,16.7s4.9,16.7,13.3,16.7,11.8-3.3,12.4-9.5h-11.2v-7.3h21.1c-.1,15.7-6.4,25.4-22.4,25.4s-23.1-10.7-23.1-25.2Z"/>
  <path class="st0" d="M593.6,99v-40h9.8v48.5h-18.8l-9.6-40h-.8v40h-10v-48.5h18.2l10.5,40h.9Z"/>
  <path class="st0" d="M611.6,98.5h8.6v9.1h-8.6v-9.1Z"/>
  <path class="st0" d="M2.4,165.7v-48.5h19.6c10.5,0,16.3,6,16.3,15.2s-5.8,15.2-16.3,15.2h-9.8v18H2.4ZM12.1,139.1h8.7c5.3,0,7.6-2.9,7.6-6.7s-2.4-6.8-7.6-6.8h-8.7v13.5Z"/>
  <path class="st0" d="M69.6,117.2h9.8v31c0,11.4-5.8,18.4-18.4,18.4s-18.4-7-18.4-18.4v-31h9.8v32.3c0,5.9,3.5,8.7,8.6,8.7s8.6-2.8,8.6-8.7v-32.3Z"/>
  <path class="st0" d="M117.7,157.1v-40h9.8v48.5h-18.8l-9.6-40h-.8v40h-10v-48.5h18.2l10.5,40h.9Z"/>
  <path class="st0" d="M171.7,165.7h-10.9l-10.4-21.6h-4.2v21.6h-9.8v-48.5h9.8v19.2h4.2l8.8-19.2h9.8l-9.6,23.3,12.3,25.1Z"/>
  <path class="st0" d="M200.6,117.2v8.5h-11.2v40h-9.8v-40h-11.1v-8.5h32Z"/>
  <path class="st0" d="M198.6,156.6h8.6v9.1h-8.6v-9.1Z"/>
  <path class="st0" d="M2.4,223.8v-48.5h20.3c15.7,0,21.9,7.6,21.9,24.2s-6.2,24.2-21.9,24.2H2.4ZM12.2,215.2h9.4c10.5,0,13.2-6.7,13.2-15.7s-2.6-15.8-13.2-15.8h-9.4v31.5Z"/>
  <path class="st0" d="M45.8,223.8l13.8-48.5h16.7l13.8,48.5h-10l-3.9-12.1h-16.5l-3.9,12.1h-10ZM61.6,203.7h12.6l-5.6-20.7h-1.4l-5.6,20.7Z"/>
  <path class="st0" d="M111.3,224.7c-10.5,0-20-5.1-19.7-16.7h9.8c-.4,3.9,3,8,9.1,8.2,5.1.1,8.2-1.7,8.2-5.3s-6.4-5.9-12.7-8.7c-6.8-3-13.9-7.1-13.9-14.6s8-13.3,17.9-13.3,18.5,4.5,18.1,15.8h-9.8c.4-3.7-1.5-7.1-7.6-7.3-5.1-.1-8.3,1.9-8.3,5.1s5.2,5.3,10.9,7.8c7.1,3,15.7,7,15.7,15.6s-7.9,13.4-17.8,13.4Z"/>
  <path class="st0" d="M153,199.5c0-14.5,7.8-25.2,23.1-25.2s20.2,5.7,21.8,17h-10.7c-.8-5.5-5.3-8.5-11.2-8.5-9.6,0-13.2,7.9-13.2,16.7s4.9,16.7,13.3,16.7,11.8-3.3,12.4-9.5h-11.2v-7.3h21.1c-.1,15.7-6.4,25.4-22.4,25.4s-23.1-10.7-23.1-25.2Z"/>
  <path class="st0" d="M233.3,175.3h9.8v31c0,11.4-5.8,18.4-18.4,18.4s-18.4-7-18.4-18.4v-31h9.8v32.3c0,5.9,3.5,8.7,8.6,8.7s8.6-2.8,8.6-8.7v-32.3Z"/>
  <path class="st0" d="M280.7,175.3v8.5h-11.2v40h-9.8v-40h-11.1v-8.5h32Z"/>
  <path class="st0" d="M286.7,223.8v-48.5h31.4v8.5h-21.7v10.7h20.2v8.5h-20.2v12.3h21.7v8.5h-31.4Z"/>
  <path class="st0" d="M338.8,223.8l13.8-48.5h16.7l13.8,48.5h-10l-3.9-12.1h-16.5l-3.9,12.1h-10ZM354.6,203.7h12.6l-5.6-20.7h-1.4l-5.6,20.7Z"/>
  <path class="st0" d="M417.8,215.2v-40h9.8v48.5h-18.8l-9.6-40h-.8v40h-10v-48.5h18.2l10.5,40h.9Z"/>
  <path class="st0" d="M455.9,223.8v-48.5h31.4v8.5h-21.7v10.7h20.2v8.5h-20.2v12.3h21.7v8.5h-31.4Z"/>
  <path class="st0" d="M494.6,223.8v-48.5h9.8v48.5h-9.8Z"/>
  <path class="st0" d="M543.4,215.2v-40h9.8v48.5h-18.8l-9.6-40h-.8v40h-10v-48.5h18.2l10.5,40h.9Z"/>
  <path class="st0" d="M562.6,223.8v-48.5h31.4v8.5h-21.7v10.7h20.2v8.5h-20.2v12.3h21.7v8.5h-31.4Z"/>
  <path class="st0" d="M628.9,215.2l9.6-39.9h17.2v48.5h-9.8v-40h-.6l-9.6,40h-14.8l-9.6-40h-.6v40h-9.8v-48.5h17.2l9.6,39.9h.8Z"/>
  <path class="st0" d="M.1,257.6c0-14.5,7.8-25.2,23.1-25.2s20.2,5.7,21.8,17h-10.7c-.8-5.5-5.3-8.5-11.2-8.5-9.6,0-13.2,7.9-13.2,16.7s4.9,16.7,13.3,16.7,11.8-3.3,12.4-9.5h-11.2v-7.3h21.1c-.1,15.7-6.4,25.4-22.4,25.4S.1,272.1.1,257.6Z"/>
  <path class="st0" d="M80.4,233.4h9.8v31c0,11.4-5.8,18.4-18.4,18.4s-18.4-7-18.4-18.4v-31h9.8v32.3c0,5.9,3.5,8.7,8.6,8.7s8.6-2.8,8.6-8.7v-32.3Z"/>
  <path class="st0" d="M127.8,233.4v8.5h-11.2v40h-9.8v-40h-11.1v-8.5h32Z"/>
  <path class="st0" d="M133.8,281.9v-48.5h31.4v8.5h-21.7v10.7h20.2v8.5h-20.2v12.3h21.7v8.5h-31.4Z"/>
  <path class="st0" d="M202,273.3v-40h9.8v48.5h-18.8l-9.6-40h-.8v40h-10v-48.5h18.2l10.5,40h.9Z"/>
  <path class="st0" d="M240.1,281.9v-48.5h20.3c15.7,0,21.9,7.6,21.9,24.2s-6.2,24.2-21.9,24.2h-20.3ZM250,273.3h9.4c10.5,0,13.2-6.7,13.2-15.7s-2.6-15.8-13.2-15.8h-9.4v31.5Z"/>
  <path class="st0" d="M289.2,281.9v-48.5h31.4v8.5h-21.7v10.7h20.2v8.5h-20.2v12.3h21.7v8.5h-31.4Z"/>
  <path class="st0" d="M345.2,282.8c-10.5,0-20-5.1-19.7-16.7h9.8c-.4,3.9,3,8,9.1,8.2,5.1.1,8.2-1.7,8.2-5.3s-6.4-5.9-12.7-8.7c-6.8-3-13.9-7.1-13.9-14.6s8-13.3,17.9-13.3,18.5,4.5,18.1,15.8h-9.8c.4-3.7-1.5-7.1-7.6-7.3-5.1-.1-8.3,1.9-8.3,5.1s5.2,5.3,10.9,7.8c7.1,3,15.7,7,15.7,15.6s-7.9,13.4-17.8,13.4Z"/>
  <path class="st0" d="M370.3,281.9v-48.5h9.8v48.5h-9.8Z"/>
  <path class="st0" d="M386.9,257.6c0-14.5,7.8-25.2,23.1-25.2s20.2,5.7,21.8,17h-10.7c-.8-5.5-5.3-8.5-11.2-8.5-9.6,0-13.2,7.9-13.2,16.7s4.9,16.7,13.3,16.7,11.8-3.3,12.4-9.5h-11.2v-7.3h21.1c-.1,15.7-6.4,25.4-22.4,25.4s-23.1-10.7-23.1-25.2Z"/>
  <path class="st0" d="M470.2,273.3v-40h9.8v48.5h-18.8l-9.6-40h-.8v40h-10v-48.5h18.2l10.5,40h.9Z"/>
  <path class="st0" d="M508.3,281.9v-48.5h9.8v48.5h-9.8Z"/>
  <path class="st0" d="M544.8,282.8c-10.5,0-20-5.1-19.7-16.7h9.8c-.4,3.9,3,8,9.1,8.2,5.1.1,8.2-1.7,8.2-5.3s-6.4-5.9-12.7-8.7c-6.8-3-13.9-7.1-13.9-14.6s8-13.3,17.9-13.3,18.5,4.5,18.1,15.8h-9.8c.4-3.7-1.5-7.1-7.6-7.3-5.1-.1-8.3,1.9-8.3,5.1s5.2,5.3,10.9,7.8c7.1,3,15.7,7,15.7,15.6s-7.9,13.4-17.8,13.4Z"/>
  <path class="st0" d="M596.3,233.4v8.5h-11.2v40h-9.8v-40h-11.1v-8.5h32Z"/>
  <path class="st0" d="M649,273.3v-40h9.8v48.5h-18.8l-9.6-40h-.8v40h-10v-48.5h18.2l10.5,40h.9Z"/>
  <path class="st0" d="M668.2,281.9v-48.5h9.8v48.5h-9.8Z"/>
  <path class="st0" d="M684.8,257.6c0-14.5,7.8-25.2,23.1-25.2s20.4,5.5,22,16.8h-10.2c-1.1-5.6-6.1-8.3-11.9-8.3-9.6,0-13.2,7.9-13.2,16.7s4.8,16.7,13.3,16.7,11.4-4.8,12.6-11.2h9.9c-1.5,11.5-9.4,19.7-22.5,19.7s-23.1-10.7-23.1-25.2Z"/>
  <path class="st0" d="M737.1,281.9v-48.5h9.8v17.6h21.5v-17.6h9.8v48.5h-9.8v-22.4h-21.5v22.4h-9.8Z"/>
  <path class="st0" d="M816,233.4v8.5h-11.2v40h-9.8v-40h-11.1v-8.5h32Z"/>
  <path class="st0" d="M2.4,340v-48.5h20.3c15.7,0,21.9,7.6,21.9,24.2s-6.2,24.2-21.9,24.2H2.4ZM12.2,331.4h9.4c10.5,0,13.2-6.7,13.2-15.7s-2.6-15.8-13.2-15.8h-9.4v31.5Z"/>
  <path class="st0" d="M45.8,340l13.8-48.5h16.7l13.8,48.5h-10l-3.9-12.1h-16.5l-3.9,12.1h-10ZM61.6,319.9h12.6l-5.6-20.7h-1.4l-5.6,20.7Z"/>
  <path class="st0" d="M111.3,340.9c-10.5,0-20-5.1-19.7-16.7h9.8c-.4,3.9,3,8,9.1,8.2,5.1.1,8.2-1.7,8.2-5.3s-6.4-5.9-12.7-8.7c-6.8-3-13.9-7.1-13.9-14.6s8-13.3,17.9-13.3,18.5,4.5,18.1,15.8h-9.8c.4-3.7-1.5-7.1-7.6-7.3-5.1-.1-8.3,1.9-8.3,5.1s5.2,5.3,10.9,7.8c7.1,3,15.7,7,15.7,15.6s-7.9,13.4-17.8,13.4Z"/>
  <path class="st0" d="M153,315.7c0-14.5,7.8-25.2,23.1-25.2s20.2,5.7,21.8,17h-10.7c-.8-5.5-5.3-8.5-11.2-8.5-9.6,0-13.2,7.9-13.2,16.7s4.9,16.7,13.3,16.7,11.8-3.3,12.4-9.5h-11.2v-7.3h21.1c-.1,15.7-6.4,25.4-22.4,25.4s-23.1-10.7-23.1-25.2Z"/>
  <path class="st0" d="M233.3,291.5h9.8v31c0,11.4-5.8,18.4-18.4,18.4s-18.4-7-18.4-18.4v-31h9.8v32.3c0,5.9,3.5,8.7,8.6,8.7s8.6-2.8,8.6-8.7v-32.3Z"/>
  <path class="st0" d="M280.7,291.5v8.5h-11.2v40h-9.8v-40h-11.1v-8.5h32Z"/>
  <path class="st0" d="M286.7,340v-48.5h31.4v8.5h-21.7v10.7h20.2v8.5h-20.2v12.3h21.7v8.5h-31.4Z"/>
  <path class="st0" d="M344.2,340v-48.5h20.3c15.7,0,21.9,7.6,21.9,24.2s-6.2,24.2-21.9,24.2h-20.3ZM354.1,331.4h9.4c10.5,0,13.2-6.7,13.2-15.7s-2.6-15.8-13.2-15.8h-9.4v31.5Z"/>
  <path class="st0" d="M393.3,340v-48.5h31.4v8.5h-21.7v10.7h20.2v8.5h-20.2v12.3h21.7v8.5h-31.4Z"/>
  <path class="st0" d="M449.3,340.9c-10.5,0-20-5.1-19.7-16.7h9.8c-.4,3.9,3,8,9.1,8.2,5.1.1,8.2-1.7,8.2-5.3s-6.4-5.9-12.7-8.7c-6.8-3-13.9-7.1-13.9-14.6s8-13.3,17.9-13.3,18.5,4.5,18.1,15.8h-9.8c.4-3.7-1.5-7.1-7.6-7.3-5.1-.1-8.3,1.9-8.3,5.1s5.2,5.3,10.9,7.8c7.1,3,15.7,7,15.7,15.6s-7.9,13.4-17.8,13.4Z"/>
  <path class="st0" d="M474.4,340v-48.5h9.8v48.5h-9.8Z"/>
  <path class="st0" d="M491,315.7c0-14.5,7.8-25.2,23.1-25.2s20.2,5.7,21.8,17h-10.7c-.8-5.5-5.3-8.5-11.2-8.5-9.6,0-13.2,7.9-13.2,16.7s4.9,16.7,13.3,16.7,11.8-3.3,12.4-9.5h-11.2v-7.3h21.1c-.1,15.7-6.4,25.4-22.4,25.4s-23.1-10.7-23.1-25.2Z"/>
  <path class="st0" d="M574.3,331.4v-40h9.8v48.5h-18.8l-9.6-40h-.8v40h-10v-48.5h18.2l10.5,40h.9Z"/>
  <path class="st0" d="M629.7,340.9c-10.5,0-20-5.1-19.7-16.7h9.8c-.4,3.9,3,8,9.1,8.2,5.1.1,8.2-1.7,8.2-5.3s-6.4-5.9-12.7-8.7c-6.8-3-13.9-7.1-13.9-14.6s8-13.3,17.9-13.3,18.5,4.5,18.1,15.8h-9.8c.4-3.7-1.5-7.1-7.6-7.3-5.1-.1-8.3,1.9-8.3,5.1s5.2,5.3,10.9,7.8c7.1,3,15.7,7,15.7,15.6s-7.9,13.4-17.8,13.4Z"/>
  <path class="st0" d="M652.6,315.7c0-14.5,7.8-25.2,23.1-25.2s23,10.7,23,25.2-7.9,25.2-23,25.2-23.1-10.7-23.1-25.2ZM688.8,315.7c0-8.8-3.7-16.7-13.2-16.7s-13.2,7.9-13.2,16.7,4.8,16.7,13.3,16.7,13.2-8,13.2-16.7Z"/>
  <path class="st0" d="M735.5,331.4v-40h9.8v48.5h-18.8l-9.6-40h-.8v40h-10v-48.5h18.2l10.5,40h.9Z"/>
  <path class="st0" d="M752.9,326v-7.1h22.2v7.1h-22.2Z"/>
  <path class="st0" d="M2.4,398.1v-48.5h20.3c15.7,0,21.9,7.6,21.9,24.2s-6.2,24.2-21.9,24.2H2.4ZM12.2,389.5h9.4c10.5,0,13.2-6.7,13.2-15.7s-2.6-15.8-13.2-15.8h-9.4v31.5Z"/>
  <path class="st0" d="M51.5,398.1v-48.5h31.4v8.5h-21.7v10.7h20.2v8.5h-20.2v12.3h21.7v8.5h-31.4Z"/>
  <path class="st0" d="M128.9,398.1h-10.3c-3.3-3.7-2.8-18-11.6-18h-7.1v18h-9.8v-48.5h19.6c10.8,0,16.3,6.7,16.3,15s-2.5,10.7-7,12.2c6.3,2.8,6,16.6,9.9,21.3ZM99.9,358v13.5h8.7c5.3,0,7.6-2.9,7.6-6.7s-2.4-6.8-7.6-6.8h-8.7Z"/>
  <path class="st0" d="M163.1,389.5v-40h9.8v48.5h-18.8l-9.6-40h-.8v40h-10v-48.5h18.2l10.5,40h.9Z"/>
  <path class="st0" d="M201.2,398.1v-48.5h20.3c15.7,0,21.9,7.6,21.9,24.2s-6.2,24.2-21.9,24.2h-20.3ZM211,389.5h9.4c10.5,0,13.2-6.7,13.2-15.7s-2.6-15.8-13.2-15.8h-9.4v31.5Z"/>
  <path class="st0" d="M244.6,398.1l13.8-48.5h16.7l13.8,48.5h-10l-3.9-12.1h-16.5l-3.9,12.1h-10ZM260.4,378h12.6l-5.6-20.7h-1.4l-5.6,20.7Z"/>
  <path class="st0" d="M310.1,399c-10.5,0-20-5.1-19.7-16.7h9.8c-.4,3.9,3,8,9.1,8.2,5.1.1,8.2-1.7,8.2-5.3s-6.4-5.9-12.7-8.7c-6.8-3-13.9-7.1-13.9-14.6s8-13.3,17.9-13.3,18.5,4.5,18.1,15.8h-9.8c.4-3.7-1.5-7.1-7.6-7.3-5.1-.1-8.3,1.9-8.3,5.1s5.2,5.3,10.9,7.8c7.1,3,15.7,7,15.7,15.6s-7.9,13.4-17.8,13.4Z"/>
  <path class="st0" d="M352.5,399c-10.5,0-20-5.1-19.7-16.7h9.8c-.4,3.9,3,8,9.1,8.2,5.1.1,8.2-1.7,8.2-5.3s-6.4-5.9-12.7-8.7c-6.8-3-13.9-7.1-13.9-14.6s8-13.3,17.9-13.3,18.5,4.5,18.1,15.8h-9.8c.4-3.7-1.5-7.1-7.6-7.3-5.1-.1-8.3,1.9-8.3,5.1s5.2,5.3,10.9,7.8c7.1,3,15.7,7,15.7,15.6s-7.9,13.4-17.8,13.4Z"/>
  <path class="st0" d="M396.5,398.1v-48.5h31.4v8.5h-21.7v10.7h20.2v8.5h-20.2v12.3h21.7v8.5h-31.4Z"/>
  <path class="st0" d="M452.5,399c-10.5,0-20-5.1-19.7-16.7h9.8c-.4,3.9,3,8,9.1,8.2,5.1.1,8.2-1.7,8.2-5.3s-6.4-5.9-12.7-8.7c-6.8-3-13.9-7.1-13.9-14.6s8-13.3,17.9-13.3,18.5,4.5,18.1,15.8h-9.8c.4-3.7-1.5-7.1-7.6-7.3-5.1-.1-8.3,1.9-8.3,5.1s5.2,5.3,10.9,7.8c7.1,3,15.7,7,15.7,15.6s-7.9,13.4-17.8,13.4Z"/>
  <path class="st0" d="M534.8,384.2c0,9.1-6,13.9-14.5,13.9h-24v-48.5h22.6c10.1,0,13.2,5.5,13.2,12.5s-2.6,8.7-5.6,10.3c3.9.9,8.3,4.5,8.2,11.8ZM506.1,358v10.2h9.3c4.8,0,7.1-1.9,7.1-5.3s-2.4-4.9-7.1-4.9h-9.3ZM518.9,389.5c4.8,0,6.2-3.5,6.2-6.5s-1.5-6.4-6.4-6.4h-12.6v12.9h12.8Z"/>
  <path class="st0" d="M542,398.1v-48.5h31.4v8.5h-21.7v10.7h20.2v8.5h-20.2v12.3h21.7v8.5h-31.4Z"/>
  <path class="st0" d="M619.5,398.1h-10.3c-3.3-3.7-2.8-18-11.6-18h-7.1v18h-9.8v-48.5h19.6c10.8,0,16.3,6.7,16.3,15s-2.5,10.7-7,12.2c6.3,2.8,6,16.6,9.9,21.3ZM590.4,358v13.5h8.7c5.3,0,7.6-2.9,7.6-6.7s-2.4-6.8-7.6-6.8h-8.7Z"/>
  <path class="st0" d="M624,398.1v-48.5h31.4v8.5h-21.7v10.7h20.2v8.5h-20.2v12.3h21.7v8.5h-31.4Z"/>
  <path class="st0" d="M662.7,398.1v-48.5h9.8v48.5h-9.8Z"/>
  <path class="st0" d="M710.4,349.6v8.5h-11.2v40h-9.8v-40h-11.1v-8.5h32Z"/>
  <path class="st0" d="M732,399c-10.5,0-20-5.1-19.7-16.7h9.8c-.4,3.9,3,8,9.1,8.2,5.1.1,8.2-1.7,8.2-5.3s-6.4-5.9-12.7-8.7c-6.8-3-13.9-7.1-13.9-14.6s8-13.3,17.9-13.3,18.5,4.5,18.1,15.8h-9.8c.4-3.7-1.5-7.1-7.6-7.3-5.1-.1-8.3,1.9-8.3,5.1s5.2,5.3,10.9,7.8c7.1,3,15.7,7,15.7,15.6s-7.9,13.4-17.8,13.4Z"/>
  <path class="st0" d="M2.4,456.2v-48.5h31.4v8.5H12.1v10.7h20.2v8.5H12.1v12.3h21.7v8.5H2.4Z"/>
  <path class="st0" d="M41.1,456.2v-48.5h9.8v48.5h-9.8Z"/>
  <path class="st0" d="M89.9,447.6v-40h9.8v48.5h-18.8l-9.6-40h-.8v40h-10v-48.5h18.2l10.5,40h.9Z"/>
  <path class="st0" d="M125.7,431.9c0-14.5,7.8-25.2,23.1-25.2s20.2,5.7,21.8,17h-10.7c-.8-5.5-5.3-8.5-11.2-8.5-9.6,0-13.2,7.9-13.2,16.7s4.9,16.7,13.3,16.7,11.8-3.3,12.4-9.5h-11.2v-7.3h21.1c-.1,15.7-6.4,25.4-22.4,25.4s-23.1-10.7-23.1-25.2Z"/>
  <path class="st0" d="M206,407.7h9.8v31c0,11.4-5.8,18.4-18.4,18.4s-18.4-7-18.4-18.4v-31h9.8v32.3c0,5.9,3.5,8.7,8.6,8.7s8.6-2.8,8.6-8.7v-32.3Z"/>
  <path class="st0" d="M253.4,407.7v8.5h-11.2v40h-9.8v-40h-11.1v-8.5h32Z"/>
  <path class="st0" d="M259.4,456.2v-48.5h31.4v8.5h-21.7v10.7h20.2v8.5h-20.2v12.3h21.7v8.5h-31.4Z"/>
  <path class="st0" d="M315.4,457.1c-10.5,0-20-5.1-19.7-16.7h9.8c-.4,3.9,3,8,9.1,8.2,5.1.1,8.2-1.7,8.2-5.3s-6.4-5.9-12.7-8.7c-6.8-3-13.9-7.1-13.9-14.6s8-13.3,17.9-13.3,18.5,4.5,18.1,15.8h-9.8c.4-3.7-1.5-7.1-7.6-7.3-5.1-.1-8.3,1.9-8.3,5.1s5.2,5.3,10.9,7.8c7.1,3,15.7,7,15.7,15.6s-7.9,13.4-17.8,13.4Z"/>
  <path class="st0" d="M359.4,456.2v-48.5h20.3c15.7,0,21.9,7.6,21.9,24.2s-6.2,24.2-21.9,24.2h-20.3ZM369.2,447.6h9.4c10.5,0,13.2-6.7,13.2-15.7s-2.6-15.8-13.2-15.8h-9.4v31.5Z"/>
  <path class="st0" d="M408.4,456.2v-48.5h31.4v8.5h-21.7v10.7h20.2v8.5h-20.2v12.3h21.7v8.5h-31.4Z"/>
  <path class="st0" d="M464.5,457.1c-10.5,0-20-5.1-19.7-16.7h9.8c-.4,3.9,3,8,9.1,8.2,5.1.1,8.2-1.7,8.2-5.3s-6.4-5.9-12.7-8.7c-6.8-3-13.9-7.1-13.9-14.6s8-13.3,17.9-13.3,18.5,4.5,18.1,15.8h-9.8c.4-3.7-1.5-7.1-7.6-7.3-5.1-.1-8.3,1.9-8.3,5.1s5.2,5.3,10.9,7.8c7.1,3,15.7,7,15.7,15.6s-7.9,13.4-17.8,13.4Z"/>
  <path class="st0" d="M489.6,456.2v-48.5h9.8v48.5h-9.8Z"/>
  <path class="st0" d="M506.1,431.9c0-14.5,7.8-25.2,23.1-25.2s20.2,5.7,21.8,17h-10.7c-.8-5.5-5.3-8.5-11.2-8.5-9.6,0-13.2,7.9-13.2,16.7s4.9,16.7,13.3,16.7,11.8-3.3,12.4-9.5h-11.2v-7.3h21.1c-.1,15.7-6.4,25.4-22.4,25.4s-23.1-10.7-23.1-25.2Z"/>
  <path class="st0" d="M589.4,447.6v-40h9.8v48.5h-18.8l-9.6-40h-.8v40h-10v-48.5h18.2l10.5,40h.9Z"/>
  <path class="st0" d="M671.2,447.6l7.5-40h9.5l-9.4,48.5h-15.5l-7.6-40h-1.1l-7.7,40h-15.4l-9.4-48.5h9.6l7.4,40h.9l7.4-40h15.7l7.4,40h.8Z"/>
  <path class="st0" d="M686.3,456.2l13.8-48.5h16.7l13.8,48.5h-10l-3.9-12.1h-16.5l-3.9,12.1h-10ZM702.1,436.1h12.6l-5.6-20.7h-1.4l-5.6,20.7Z"/>
  <path class="st0" d="M774.4,456.2h-10.3c-3.3-3.7-2.8-18-11.6-18h-7.1v18h-9.8v-48.5h19.6c10.8,0,16.3,6.7,16.3,15s-2.5,10.7-7,12.2c6.3,2.8,6,16.6,9.9,21.3ZM745.4,416.1v13.5h8.7c5.3,0,7.6-2.9,7.6-6.7s-2.4-6.8-7.6-6.8h-8.7Z"/>
  <path class="st0" d="M777.4,447.1h8.5v7.8c0,5.1-4.8,9.3-6.2,10.1l-2-1.9c1.2-1,3.2-3.8,3.3-6.9h-3.6v-9.1Z"/>
  <path class="st0" d="M40.7,500.4c0,9.1-6,13.9-14.5,13.9H2.2v-48.5h22.6c10.1,0,13.2,5.5,13.2,12.5s-2.6,8.7-5.6,10.3c3.9.9,8.3,4.5,8.2,11.8ZM12,474.2v10.2h9.3c4.8,0,7.1-1.9,7.1-5.3s-2.4-4.9-7.1-4.9h-9.3ZM24.8,505.7c4.8,0,6.2-3.5,6.2-6.5s-1.5-6.4-6.4-6.4h-12.6v12.9h12.8Z"/>
  <path class="st0" d="M47.8,514.3v-48.5h31.4v8.5h-21.7v10.7h20.2v8.5h-20.2v12.3h21.7v8.5h-31.4Z"/>
  <path class="st0" d="M103.8,506l11.6-40.2h10.3l-14.5,48.5h-14.8l-14.4-48.5h10.3l11.5,40.2Z"/>
  <path class="st0" d="M127,490c0-14.5,7.8-25.2,23.1-25.2s23,10.7,23,25.2-7.9,25.2-23,25.2-23.1-10.7-23.1-25.2ZM163.3,490c0-8.8-3.7-16.7-13.2-16.7s-13.2,7.9-13.2,16.7,4.8,16.7,13.3,16.7,13.2-8,13.2-16.7Z"/>
  <path class="st0" d="M219.1,514.3h-10.3c-3.3-3.7-2.8-18-11.6-18h-7.1v18h-9.8v-48.5h19.6c10.8,0,16.3,6.7,16.3,15s-2.5,10.7-7,12.2c6.3,2.8,6,16.6,9.9,21.3ZM190.1,474.2v13.5h8.7c5.3,0,7.6-2.9,7.6-6.7s-2.4-6.8-7.6-6.8h-8.7Z"/>
  <path class="st0" d="M242.6,514.3v-48.5h20.3c15.7,0,21.9,7.6,21.9,24.2s-6.2,24.2-21.9,24.2h-20.3ZM252.4,505.7h9.4c10.5,0,13.2-6.7,13.2-15.7s-2.6-15.8-13.2-15.8h-9.4v31.5Z"/>
  <path class="st0" d="M286,514.3l13.8-48.5h16.7l13.8,48.5h-10l-3.9-12.1h-16.5l-3.9,12.1h-10ZM301.8,494.3h12.6l-5.6-20.7h-1.4l-5.6,20.7Z"/>
  <path class="st0" d="M351.5,515.2c-10.5,0-20-5.1-19.7-16.7h9.8c-.4,3.9,3,8,9.1,8.2,5.1.1,8.2-1.7,8.2-5.3s-6.4-5.9-12.7-8.7c-6.8-3-13.9-7.1-13.9-14.6s8-13.3,17.9-13.3,18.5,4.5,18.1,15.8h-9.8c.4-3.7-1.5-7.1-7.6-7.3-5.1-.1-8.3,1.9-8.3,5.1s5.2,5.3,10.9,7.8c7.1,3,15.7,7,15.7,15.6s-7.9,13.4-17.8,13.4Z"/>
  <path class="st0" d="M393.2,490c0-14.5,7.8-25.2,23.1-25.2s20.2,5.7,21.8,17h-10.7c-.8-5.5-5.3-8.5-11.2-8.5-9.6,0-13.2,7.9-13.2,16.7s4.9,16.7,13.3,16.7,11.8-3.3,12.4-9.5h-11.2v-7.3h21.1c-.1,15.7-6.4,25.4-22.4,25.4s-23.1-10.7-23.1-25.2Z"/>
  <path class="st0" d="M473.5,465.8h9.8v31c0,11.4-5.8,18.4-18.4,18.4s-18.4-7-18.4-18.4v-31h9.8v32.3c0,5.9,3.5,8.7,8.6,8.7s8.6-2.8,8.6-8.7v-32.3Z"/>
  <path class="st0" d="M520.8,465.8v8.5h-11.2v40h-9.8v-40h-11.1v-8.5h32Z"/>
  <path class="st0" d="M526.8,514.3v-48.5h31.4v8.5h-21.7v10.7h20.2v8.5h-20.2v12.3h21.7v8.5h-31.4Z"/>
  <path class="st0" d="M584.4,514.3v-48.5h20.3c15.7,0,21.9,7.6,21.9,24.2s-6.2,24.2-21.9,24.2h-20.3ZM594.2,505.7h9.4c10.5,0,13.2-6.7,13.2-15.7s-2.6-15.8-13.2-15.8h-9.4v31.5Z"/>
  <path class="st0" d="M633.5,514.3v-48.5h31.4v8.5h-21.7v10.7h20.2v8.5h-20.2v12.3h21.7v8.5h-31.4Z"/>
  <path class="st0" d="M670.4,500.3v-7.1h22.2v7.1h-22.2Z"/>
  <path class="st0" d="M19.7,573.3c-10.5,0-20-5.1-19.7-16.7h9.8c-.4,3.9,3,8,9.1,8.2,5.1.1,8.2-1.7,8.2-5.3s-6.4-5.9-12.7-8.7c-6.8-3-13.9-7.1-13.9-14.6s8-13.3,17.9-13.3,18.5,4.5,18.1,15.8h-9.8c.4-3.7-1.5-7.1-7.6-7.3-5.1-.1-8.3,1.9-8.3,5.1s5.2,5.3,10.9,7.8c7.1,3,15.7,7,15.7,15.6s-7.9,13.4-17.8,13.4Z"/>
  <path class="st0" d="M44.8,572.4v-48.5h9.8v48.5h-9.8Z"/>
  <path class="st0" d="M61.3,548.1c0-14.5,7.8-25.2,23.1-25.2s20.2,5.7,21.8,17h-10.7c-.8-5.5-5.3-8.5-11.2-8.5-9.6,0-13.2,7.9-13.2,16.7s4.9,16.7,13.3,16.7,11.8-3.3,12.4-9.5h-11.2v-7.3h21.1c-.1,15.7-6.4,25.4-22.4,25.4s-23.1-10.7-23.1-25.2Z"/>
  <path class="st0" d="M144.6,563.9v-40h9.8v48.5h-18.8l-9.6-40h-.8v40h-10v-48.5h18.2l10.5,40h.9Z"/>
  <path class="st0" d="M182.7,572.4v-48.5h31.4v8.5h-21.7v10.7h20.2v8.5h-20.2v12.3h21.7v8.5h-31.4Z"/>
  <path class="st0" d="M221.4,572.4v-48.5h9.8v48.5h-9.8Z"/>
  <path class="st0" d="M270.2,563.9v-40h9.8v48.5h-18.8l-9.6-40h-.8v40h-10v-48.5h18.2l10.5,40h.9Z"/>
  <path class="st0" d="M306.1,548.1c0-14.5,7.8-25.2,23.1-25.2s20.2,5.7,21.8,17h-10.7c-.8-5.5-5.3-8.5-11.2-8.5-9.6,0-13.2,7.9-13.2,16.7s4.9,16.7,13.3,16.7,11.8-3.3,12.4-9.5h-11.2v-7.3h21.1c-.1,15.7-6.4,25.4-22.4,25.4s-23.1-10.7-23.1-25.2Z"/>
  <path class="st0" d="M386.4,523.9h9.8v31c0,11.4-5.8,18.4-18.4,18.4s-18.4-7-18.4-18.4v-31h9.8v32.3c0,5.9,3.5,8.7,8.6,8.7s8.6-2.8,8.6-8.7v-32.3Z"/>
  <path class="st0" d="M433.7,523.9v8.5h-11.2v40h-9.8v-40h-11.1v-8.5h32Z"/>
  <path class="st0" d="M456.8,572.4v-48.5h20.3c15.7,0,21.9,7.6,21.9,24.2s-6.2,24.2-21.9,24.2h-20.3ZM466.6,563.9h9.4c10.5,0,13.2-6.7,13.2-15.7s-2.6-15.8-13.2-15.8h-9.4v31.5Z"/>
  <path class="st0" d="M505.9,572.4v-48.5h31.4v8.5h-21.7v10.7h20.2v8.5h-20.2v12.3h21.7v8.5h-31.4Z"/>
  <path class="st0" d="M561.9,573.3c-10.5,0-20-5.1-19.7-16.7h9.8c-.4,3.9,3,8,9.1,8.2,5.1.1,8.2-1.7,8.2-5.3s-6.4-5.9-12.7-8.7c-6.8-3-13.9-7.1-13.9-14.6s8-13.3,17.9-13.3,18.5,4.5,18.1,15.8h-9.8c.4-3.7-1.5-7.1-7.6-7.3-5.1-.1-8.3,1.9-8.3,5.1s5.2,5.3,10.9,7.8c7.1,3,15.7,7,15.7,15.6s-7.9,13.4-17.8,13.4Z"/>
  <path class="st0" d="M587,572.4v-48.5h9.8v48.5h-9.8Z"/>
  <path class="st0" d="M603.5,548.1c0-14.5,7.8-25.2,23.1-25.2s20.2,5.7,21.8,17h-10.7c-.8-5.5-5.3-8.5-11.2-8.5-9.6,0-13.2,7.9-13.2,16.7s4.9,16.7,13.3,16.7,11.8-3.3,12.4-9.5h-11.2v-7.3h21.1c-.1,15.7-6.4,25.4-22.4,25.4s-23.1-10.7-23.1-25.2Z"/>
  <path class="st0" d="M686.8,563.9v-40h9.8v48.5h-18.8l-9.6-40h-.8v40h-10v-48.5h18.2l10.5,40h.9Z"/>
  <path class="st0" d="M734.5,523.9v8.5h-11.2v40h-9.8v-40h-11.1v-8.5h32Z"/>
  <path class="st0" d="M740.5,572.4v-48.5h31.4v8.5h-21.7v10.7h20.2v8.5h-20.2v12.3h21.7v8.5h-31.4Z"/>
  <path class="st0" d="M796.5,573.3c-10.5,0-20-5.1-19.7-16.7h9.8c-.4,3.9,3,8,9.1,8.2,5.1.1,8.2-1.7,8.2-5.3s-6.4-5.9-12.7-8.7c-6.8-3-13.9-7.1-13.9-14.6s8-13.3,17.9-13.3,18.5,4.5,18.1,15.8h-9.8c.4-3.7-1.5-7.1-7.6-7.3-5.1-.1-8.3,1.9-8.3,5.1s5.2,5.3,10.9,7.8c7.1,3,15.7,7,15.7,15.6s-7.9,13.4-17.8,13.4Z"/>
  <path class="st0" d="M.1,606.2c0-14.5,7.8-25.2,23.1-25.2s20.2,5.7,21.8,17h-10.7c-.8-5.5-5.3-8.5-11.2-8.5-9.6,0-13.2,7.9-13.2,16.7s4.9,16.7,13.3,16.7,11.8-3.3,12.4-9.5h-11.2v-7.3h21.1c-.1,15.7-6.4,25.4-22.4,25.4S.1,620.7.1,606.2Z"/>
  <path class="st0" d="M80.4,582h9.8v31c0,11.4-5.8,18.4-18.4,18.4s-18.4-7-18.4-18.4v-31h9.8v32.3c0,5.9,3.5,8.7,8.6,8.7s8.6-2.8,8.6-8.7v-32.3Z"/>
  <path class="st0" d="M127.8,582v8.5h-11.2v40h-9.8v-40h-11.1v-8.5h32Z"/>
  <path class="st0" d="M133.8,630.5v-48.5h31.4v8.5h-21.7v10.7h20.2v8.5h-20.2v12.3h21.7v8.5h-31.4Z"/>
  <path class="st0" d="M189.8,631.4c-10.5,0-20-5.1-19.7-16.7h9.8c-.4,3.9,3,8,9.1,8.2,5.1.1,8.2-1.7,8.2-5.3s-6.4-5.9-12.7-8.7c-6.8-3-13.9-7.1-13.9-14.6s8-13.3,17.9-13.3,18.5,4.5,18.1,15.8h-9.8c.4-3.7-1.5-7.1-7.6-7.3-5.1-.1-8.3,1.9-8.3,5.1s5.2,5.3,10.9,7.8c7.1,3,15.7,7,15.7,15.6s-7.9,13.4-17.8,13.4Z"/>
  <path class="st0" d="M233.8,630.5v-48.5h20.3c15.7,0,21.9,7.6,21.9,24.2s-6.2,24.2-21.9,24.2h-20.3ZM243.6,622h9.4c10.5,0,13.2-6.7,13.2-15.7s-2.6-15.8-13.2-15.8h-9.4v31.5Z"/>
  <path class="st0" d="M282.8,630.5v-48.5h31.4v8.5h-21.7v10.7h20.2v8.5h-20.2v12.3h21.7v8.5h-31.4Z"/>
  <path class="st0" d="M338.9,631.4c-10.5,0-20-5.1-19.7-16.7h9.8c-.4,3.9,3,8,9.1,8.2,5.1.1,8.2-1.7,8.2-5.3s-6.4-5.9-12.7-8.7c-6.8-3-13.9-7.1-13.9-14.6s8-13.3,17.9-13.3,18.5,4.5,18.1,15.8h-9.8c.4-3.7-1.5-7.1-7.6-7.3-5.1-.1-8.3,1.9-8.3,5.1s5.2,5.3,10.9,7.8c7.1,3,15.7,7,15.7,15.6s-7.9,13.4-17.8,13.4Z"/>
  <path class="st0" d="M364,630.5v-48.5h9.8v48.5h-9.8Z"/>
  <path class="st0" d="M380.5,606.2c0-14.5,7.8-25.2,23.1-25.2s20.2,5.7,21.8,17h-10.7c-.8-5.5-5.3-8.5-11.2-8.5-9.6,0-13.2,7.9-13.2,16.7s4.9,16.7,13.3,16.7,11.8-3.3,12.4-9.5h-11.2v-7.3h21.1c-.1,15.7-6.4,25.4-22.4,25.4s-23.1-10.7-23.1-25.2Z"/>
  <path class="st0" d="M463.8,622v-40h9.8v48.5h-18.8l-9.6-40h-.8v40h-10v-48.5h18.2l10.5,40h.9Z"/>
  <path class="st0" d="M545.6,622l7.5-40h9.5l-9.4,48.5h-15.5l-7.6-40h-1.1l-7.7,40h-15.4l-9.4-48.5h9.6l7.4,40h.9l7.4-40h15.7l7.4,40h.8Z"/>
  <path class="st0" d="M594.8,582h9.8v31c0,11.4-5.8,18.4-18.4,18.4s-18.4-7-18.4-18.4v-31h9.8v32.3c0,5.9,3.5,8.7,8.6,8.7s8.6-2.8,8.6-8.7v-32.3Z"/>
  <path class="st0" d="M652.5,630.5h-10.3c-3.3-3.7-2.8-18-11.6-18h-7.1v18h-9.8v-48.5h19.6c10.8,0,16.3,6.7,16.3,15s-2.5,10.7-7,12.2c6.3,2.8,6,16.6,9.9,21.3ZM623.5,590.4v13.5h8.7c5.3,0,7.6-2.9,7.6-6.7s-2.4-6.8-7.6-6.8h-8.7Z"/>
  <path class="st0" d="M657.1,630.5v-48.5h20.3c15.7,0,21.9,7.6,21.9,24.2s-6.2,24.2-21.9,24.2h-20.3ZM666.9,622h9.4c10.5,0,13.2-6.7,13.2-15.7s-2.6-15.8-13.2-15.8h-9.4v31.5Z"/>
  <path class="st0" d="M706.1,630.5v-48.5h31.4v8.5h-21.7v10.7h20.2v8.5h-20.2v12.3h21.7v8.5h-31.4Z"/>
  <path class="st0" d="M743.2,621.4h8.6v9.1h-8.6v-9.1Z"/>
</svg>