<?xml version="1.0" encoding="UTF-8"?>
<svg id="Ebene_1" xmlns="http://www.w3.org/2000/svg" xmlns:xlink="http://www.w3.org/1999/xlink" version="1.1" viewBox="0 0 360.5 356.2">
  <!-- Generator: Adobe Illustrator 29.3.0, SVG Export Plug-In . SVG Version: 2.1.0 Build 146)  -->
  <defs>
    <style>
      .st0 {
        fill: none;
      }

      .st1 {
        clip-path: url(#clippath-1);
      }

      .st2 {
        opacity: .5;
      }

      .st3 {
        fill: #fff;
        font-family: Priego-Bold, Priego-Bold;
        font-size: 19.3px;
        font-weight: 700;
      }

      .st4 {
        clip-path: url(#clippath);
      }
    </style>
    <clipPath id="clippath">
      <polygon class="st0" points="0 0 0 356.2 360.5 318.6 360.5 0 0 0"/>
    </clipPath>
    <clipPath id="clippath-1">
      <polygon class="st0" points="-.8 -1.6 -.8 367.2 362.4 328.2 362.4 -1.6 -.8 -1.6"/>
    </clipPath>
  </defs>
  <g>
    <polygon points="0 0 0 356.2 360.5 318.6 360.5 0 0 0"/>
    <text class="st3" transform="translate(22.8 49.4)"><tspan x="0" y="0">EINMAL UM DIE WELT. ICH WURDE </tspan><tspan x="0" y="19.3">IN EINEM </tspan><tspan x="0" y="38.6">VORSTELLUNGSGESPRÄCH MAL ZU </tspan><tspan x=".1" y="58">MEINER BEVORZUGTEN ART ZU </tspan><tspan x=".2" y="77.3">REISEN BEFRAGT. MEINE ANTWORT: </tspan><tspan x=".2" y="96.6">„SO WEIT WEG WIE MÖGLICH UND </tspan><tspan x=".3" y="115.9">SO LANGE WEG WIE MÖGLICH!“ </tspan><tspan x=".3" y="135.2">ENTSPRACH OFFENSICHTLICH IN </tspan><tspan x=".4" y="154.5">KEINSTER WEISE DER </tspan><tspan x=".4" y="173.8">ERWARTUNGSHALTUNG; ICH HABE </tspan><tspan x=".5" y="193.2">DIE STELLE ABER ITROTZDEM </tspan><tspan x=".5" y="212.5">BEKOMMEN.)</tspan></text>
  </g>
  <g class="st4">
    <g class="st2">
      <g class="st1">
        <image width="1600" height="1200" transform="translate(-41.2 -7.3) scale(.3)" xlink:href="about5.JPG"/>
      </g>
    </g>
  </g>
</svg>