<?xml version="1.0" encoding="UTF-8"?>
<svg id="Ebene_1" xmlns="http://www.w3.org/2000/svg" xmlns:xlink="http://www.w3.org/1999/xlink" version="1.1" viewBox="0 0 409.7 416.1">
  <!-- Generator: Adobe Illustrator 29.3.0, SVG Export Plug-In . SVG Version: 2.1.0 Build 146)  -->
  <defs>
    <style>
      .st0 {
        fill: none;
      }

      .st1 {
        opacity: .2;
      }

      .st1, .st2 {
        fill: #fff;
        font-family: Priego-Bold, Priego-Bold;
        font-size: 19.2px;
        font-weight: 700;
      }

      .st3 {
        opacity: .5;
      }

      .st4 {
        clip-path: url(#clippath);
      }
    </style>
    <clipPath id="clippath">
      <polygon class="st0" points="0 0 0 416.1 409.7 372.2 409.7 0 0 0"/>
    </clipPath>
  </defs>
  <g>
    <polygon points="0 0 0 416.1 409.7 372.2 409.7 0 0 0"/>
    <text class="st2" transform="translate(54.8 68.6)"><tspan x="0" y="0">FRÜHER GING ES MIR DARUM </tspan><tspan x="0" y="19.2">DAS PERFEKTE DESIGN ZU </tspan><tspan x="0" y="38.5">DESIGNEN – HEUTE GEHT ES </tspan><tspan x="0" y="57.7">MIR DARUM MIT MEINEM </tspan><tspan x="0" y="77">DESIGN ETWAS ZU BEWIRKEN. </tspan><tspan x="0" y="96.2">ETHISCHE WERTE WIE </tspan><tspan x="0" y="115.5">AUTHENTIZITÄT, EIN </tspan><tspan x="0" y="134.7">RESPEKTVOLLER UMGANG MIT </tspan><tspan x="0" y="153.9">MENSCH UND NATUR SOWIE </tspan><tspan x="0" y="173.2">INTEGRITÄT UND EHRLICHKEIT </tspan><tspan x="0" y="192.4">SIND MIR WICHTIG UND </tspan><tspan x="0" y="211.7">BESTIMMEN MEIN HANDELN </tspan><tspan x="0" y="230.9">UND SPIEGELN SICH IN MEINER </tspan><tspan x="0" y="250.1">DESIGNPRAXIS WIDER.</tspan></text>
  </g>
  <g class="st3">
    <g class="st4">
      <image width="945" height="1260" transform="translate(-2.1 -118.9) scale(.4)" xlink:href="about1.JPG"/>
    </g>
  </g>
  <text class="st1" transform="translate(54.8 68.6)"><tspan x="0" y="0">FRÜHER GING ES MIR DARUM </tspan><tspan x="0" y="19.2">DAS PERFEKTE DESIGN ZU </tspan><tspan x="0" y="38.5">DESIGNEN – HEUTE GEHT ES </tspan><tspan x="0" y="57.7">MIR DARUM MIT MEINEM </tspan><tspan x="0" y="77">DESIGN ETWAS ZU BEWIRKEN. </tspan><tspan x="0" y="96.2">ETHISCHE WERTE WIE </tspan><tspan x="0" y="115.5">AUTHENTIZITÄT, EIN </tspan><tspan x="0" y="134.7">RESPEKTVOLLER UMGANG MIT </tspan><tspan x="0" y="153.9">MENSCH UND NATUR SOWIE </tspan><tspan x="0" y="173.2">INTEGRITÄT UND EHRLICHKEIT </tspan><tspan x="0" y="192.4">SIND MIR WICHTIG UND </tspan><tspan x="0" y="211.7">BESTIMMEN MEIN HANDELN </tspan><tspan x="0" y="230.9">UND SPIEGELN SICH IN MEINER </tspan><tspan x="0" y="250.1">DESIGNPRAXIS WIDER.</tspan></text>
</svg>