<?xml version="1.0" encoding="UTF-8"?>
<svg id="Ebene_1" xmlns="http://www.w3.org/2000/svg" version="1.1" viewBox="0 0 34.6 26">
  <!-- Generator: Adobe Illustrator 29.2.1, SVG Export Plug-In . SVG Version: 2.1.0 Build 116)  -->
  <defs>
    <style>
      .st0 {
        fill: #9c9c9c;
      }

      .st1 {
        fill: #919191;
      }

      .st2 {
        fill: #818181;
      }

      .st3 {
        fill: #747474;
      }

      .st4 {
        fill: #6e6e6e;
      }
    </style>
  </defs>
  <path class="st2" d="M34.6,6.6l-7.9,6V2.6c.7-.6,1.8-1.3,2.6-1.9,1.2-.9,2.8-.9,3.9.1.8.7,1.4,1.8,1.4,3v2.8Z"/>
  <path class="st4" d="M34.6,6.5v17.1c0,1.3-1.1,2.4-2.4,2.4h-5.5v-13.4l7.9-6h0Z"/>
  <polygon class="st1" points="26.7 2.6 26.7 12.6 17.3 19.8 7.9 12.6 7.9 2.6 17.3 9.7 26.7 2.6"/>
  <path class="st3" d="M7.9,2.6v10L0,6.6v-2.8C0,2.6.5,1.5,1.3.8c1.1-1,2.8-1,3.9-.1.8.6,2.7,1.9,2.7,1.9Z"/>
  <path class="st0" d="M7.9,12.6v13.4H2.4c-1.3,0-2.4-1.1-2.4-2.4V6.6l7.9,6Z"/>
</svg>