<?xml version="1.0" encoding="UTF-8"?>
<svg id="Ebene_1" xmlns="http://www.w3.org/2000/svg" version="1.1" viewBox="0 0 528 162.3">
  <!-- Generator: Adobe Illustrator 29.3.0, SVG Export Plug-In . SVG Version: 2.1.0 Build 146)  -->
  <defs>
    <style>
      .st0 {
        fill: none;
      }

      .st1 {
        fill: #fff;
      }
    </style>
  </defs>
  <g>
    <polygon class="st1" points="262.7 0 262.7 5.1 268.6 4.3 268.6 0 262.7 0"/>
    <polygon class="st1" points="4.4 .9 4.4 6.7 11.3 5.9 11.3 .9 4.4 .9"/>
    <polygon class="st1" points="56.6 .9 56.6 6.7 63.4 5.9 63.4 .9 56.6 .9"/>
    <polygon class="st1" points="278 0 278 5.1 284 4.3 284 0 278 0"/>
    <path class="st1" d="M323.7,34.4v-13.4c0-4,2.8-6,5.9-6s4.6,2.3,4.5,6.4v13h6.4v-14.1c0-5.9-1.9-10.9-9.3-10.9s-6.7,1.9-7.5,3.7V.5h-6.5v33.8h6.5ZM301.3,35c7,0,11.3-4.7,12.1-10.3h-6.5c-.4,3-2.7,4.7-5.6,4.7s-5.9-2.8-5.9-7.2,2.3-7.2,5.9-7.2,4.6,1.6,5.2,3.7h6.7c-1.1-5.4-5.6-9.3-11.9-9.3s-12.4,6.5-12.4,12.8,4.3,12.8,12.4,12.8M278.4,10v13.4c0,4-2.8,6-5.9,6s-4.6-2.3-4.5-6.4v-13h-6.4v14.1c0,5.9,1.9,10.9,9.4,10.9s6.6-2,7.5-3.7v3.1h6.4V10h-6.5ZM245.2,29.4c-3.6,0-5.9-2.8-5.9-7.2s2.3-7.2,5.9-7.2,5.9,2.8,5.9,7.2-2.3,7.2-5.9,7.2M246.2,9.4c-3,0-6,1.7-7,4.2V.5h-6.5v33.8h6.5v-3.5c1,2.6,4,4.1,7,4.1,7.8,0,11.3-6.6,11.3-12.8s-3.5-12.8-11.3-12.8M202.1,30.2c-2.3,0-4.2-1-4-3.4,0-2.3,2.7-3.1,5.2-3.1s3.8-.5,4.4-1.1v1.6c0,2.3-1.7,6-5.6,6M199.4,35c4.2,0,7.1-1.9,8.5-4.1.2,1.4.5,2.7.8,3.5h6.4c-.6-1.5-1-3.7-1-5.8v-10.7c0-5.4-4.6-8.5-10.9-8.5s-11.2,3.2-11.2,9h6.5c0-2.7,2.2-4,4.5-4s4.7,1,4.7,3.3-1.3,1.9-3.8,1.9c-7.4,0-12.3,2.4-12.4,7.6,0,4.6,3,7.7,8,7.7M170.5,34.4v-13.4c0-4,2.8-6,5.9-6s4.6,2.3,4.5,6.4v13h6.4v-14.1c0-5.9-1.9-10.9-9.3-10.9s-6.7,1.9-7.5,3.7v-3.1h-6.5v24.4h6.5ZM142.3,34.4v-13.4c0-4,2.8-6,5.9-6s4.6,2.3,4.5,6.4v13h6.4v-14.1c0-5.9-1.9-10.9-9.3-10.9s-6.7,1.9-7.5,3.7v-3.1h-6.5v24.4h6.5ZM118.5,30.2c-2.3,0-4.2-1-4-3.4,0-2.3,2.7-3.1,5.2-3.1s3.8-.5,4.4-1.1v1.6c0,2.3-1.7,6-5.6,6M115.9,35c4.2,0,7.1-1.9,8.5-4.1.2,1.4.5,2.7.8,3.5h6.4c-.6-1.5-1-3.7-1-5.8v-10.7c0-5.4-4.6-8.5-10.9-8.5s-11.2,3.2-11.2,9h6.5c0-2.7,2.2-4,4.5-4s4.7,1,4.7,3.3-1.3,1.9-3.8,1.9c-7.4,0-12.3,2.4-12.4,7.6,0,4.6,3,7.7,8,7.7M78.2,30.2c-2.3,0-4.2-1-4-3.4,0-2.3,2.7-3.1,5.2-3.1s3.8-.5,4.4-1.1v1.6c0,2.3-1.7,6-5.6,6M75.6,35c4.2,0,7.1-1.9,8.5-4.1.2,1.4.5,2.7.8,3.5h6.4c-.6-1.5-1-3.7-1-5.8v-10.7c0-5.4-4.6-8.5-10.9-8.5s-11.2,3.2-11.2,9h6.5c0-2.7,2.2-4,4.5-4s4.7,1,4.7,3.3-1.3,1.9-3.8,1.9c-7.4,0-12.3,2.4-12.4,7.6,0,4.6,3,7.7,8,7.7M63.3,10h-6.5v24.4h6.5V10ZM51.5.5h-6.5v33.8h6.5V.5ZM33.3,10v13.4c0,4-2.8,6-5.9,6s-4.6-2.3-4.5-6.4v-13h-6.4v14.1c0,5.9,1.9,10.9,9.4,10.9s6.6-2,7.5-3.7v3.1h6.4V10h-6.5ZM0,43.5c8.3,0,11.2-4.1,11.2-10.6V10h-6.4v22.5c0,3.6-1.1,5.4-4.7,5.4v5.6h0Z"/>
  </g>
  <g>
    <polygon class="st0" points="89.1 106.1 91.2 105.9 91.2 104 89.1 104 89.1 106.1"/>
    <polygon class="st0" points="157.8 106.1 159.9 105.9 159.9 104 157.8 104 157.8 106.1"/>
    <polygon class="st0" points="74.5 112.9 76.7 112.7 76.7 110.7 74.5 110.7 74.5 112.9"/>
    <polygon class="st0" points="74.5 121.9 76.7 121.7 76.7 119.7 74.5 119.7 74.5 121.9"/>
    <polygon class="st0" points="257.2 106.1 259.4 105.9 259.4 104 257.2 104 257.2 106.1"/>
    <polygon class="st0" points="299.6 106.1 301.8 105.9 301.8 104 299.6 104 299.6 106.1"/>
    <polygon class="st0" points="387.5 106.1 389.6 105.9 389.6 104 387.5 104 387.5 106.1"/>
    <path class="st0" d="M413,125.7v-10.2c0-2.1,2.5-4.4,5.5-4.4s4.7,1.7,4.7,5.1v9.6h1.6v-9.8c0-4-2.2-6.3-6-6.3s-5.3,2-5.8,3.3v-3h-1.6v15.8h1.6,0ZM400.6,124.6c-3.6,0-6.3-2.8-6.3-6.8s2.8-6.8,6.3-6.8,6.3,2.7,6.3,6.8-2.7,6.8-6.3,6.8M406.1,131.8v-1.4h-8.9c-.2,0-.3,0-.2-.3l1.7-4.3c5.3,1.2,9.7-2.7,9.7-8s-1.5-5.6-3.7-7c1.2-2.5,3.2-5.1,5.5-5v-1.4c-2.7,0-5.3,2.9-6.8,5.8-.9-.4-1.8-.6-2.9-.6-4.7,0-8,3.7-8,8.2s1.8,6.3,4.7,7.5l-2.3,5.8c-.2.4,0,.7.4.7h10.8ZM389.5,109.9h-1.6v15.8h1.6v-15.8ZM384.6,121.9c0-2.9-3.1-4-6.2-4.6-2.7-.5-4.9-1-4.9-3.3s1.7-3,4.5-3,4.6,1.6,4.5,3.8h1.6c0-3-2.3-5.2-6.2-5.2s-6.1,1.8-6.1,4.3,2.3,3.8,5.2,4.4c2.9.6,5.9,1.4,5.9,3.5s-1.6,2.9-4.5,2.9-5.4-1.3-5.4-3.7h-1.6c0,3.1,2.9,5.1,7.2,5.1s5.9-1.3,5.9-4.2M355.5,116.5c.4-3.3,3-5.5,6.2-5.5s5.9,2.1,6.2,5.5h-12.4ZM361.7,126.1c3.8,0,6.7-2.3,7.5-5.7h-1.5c-.8,2.7-3.2,4.3-6,4.3-4,0-6.7-3.4-6.3-7.1h13.8c.2,0,.3,0,.3-.3-.2-4.5-3.3-7.7-7.7-7.7s-8,3.7-8,8.2,3.3,8.2,8,8.2M342.9,124.6c-3.5,0-6.3-2.8-6.3-6.8s2.7-6.8,6.3-6.8,6.3,2.7,6.3,6.8-2.8,6.8-6.3,6.8M342.7,109.6c-4.6,0-7.7,3.7-7.7,8.2s3.1,8.2,7.7,8.2,5.8-1.9,6.6-4.8v4.5h1.6v-22.6h-1.6v11.3c-.8-2.9-3.5-4.8-6.6-4.8M323.3,103.2h-1.6v22.6h1.6v-22.6ZM311,124.8c-2.4,0-4.9-1.2-4.6-4.1.2-2.4,2.9-3.2,5.4-3.2s4.1-.3,4.9-1.2v2.4c0,2.3-1.4,6-5.6,6M310.5,126.1c3.7,0,5.5-2.2,6.3-4.4,0,1.6.2,3.1.5,4.1h1.6c-.3-1.2-.5-2.7-.5-4.2v-6.9c0-3.4-3.4-5.1-6.8-5.1s-6.4,1.9-6.5,5.7h1.7c0-3,2.8-4.4,4.7-4.4s5.2,1.2,5.2,3.8-1.7,1.7-4.8,1.7-7,1.1-7.2,4.4c-.3,3.5,2.5,5.3,5.7,5.3M301.6,109.9h-1.6v15.8h1.6v-15.8ZM291.6,116.1c0-3.1,2.7-4.8,5.3-4.8s.8,0,1,0v-1.5h-1.1c-2.2,0-4.5,1.6-5.1,3.4h0v-3.4h-1.6v15.8h1.6v-9.6h0ZM279.2,124.6c-3.6,0-6.3-2.8-6.3-6.8s2.8-6.8,6.3-6.8,6.3,2.7,6.3,6.8-2.7,6.8-6.3,6.8M279.2,126.1c4.7,0,7.9-3.7,7.9-8.2s-3.2-8.2-7.9-8.2-8,3.7-8,8.2,3.3,8.2,8,8.2M267.1,124.4c-1.1,0-2.1-.7-2.1-2.7v-10.3h4.8v-1.5h-4.8v-4.2h-1.6v4.2h-1.6v1.5h1.6v10.6c0,2.6,1.6,3.8,3.6,3.8h3.5v-1.5h-3.4ZM259.1,109.9h-1.6v15.8h1.6v-15.8ZM245.5,124.6c-3.5,0-6.3-2.8-6.3-6.8s2.7-6.8,6.3-6.8,6.3,2.7,6.3,6.8-2.8,6.8-6.3,6.8M245.3,109.6c-4.6,0-7.7,3.7-7.7,8.2s3.1,8.2,7.7,8.2,5.8-1.9,6.6-4.8v4.5h1.6v-22.6h-1.6v11.3c-.8-2.9-3.5-4.8-6.6-4.8M221.6,116.5c.4-3.3,3-5.5,6.2-5.5s5.9,2.1,6.2,5.5h-12.4ZM227.9,126.1c3.8,0,6.7-2.3,7.5-5.7h-1.5c-.8,2.7-3.2,4.3-6,4.3-4,0-6.7-3.4-6.3-7.1h13.8c.2,0,.3,0,.3-.3-.2-4.5-3.3-7.7-7.7-7.7s-8,3.7-8,8.2,3.3,8.2,8,8.2M202.7,121.6v-5.8h5.8v-1h-5.8v-5.8h-1v5.8h-5.8v1h5.8v5.8h1ZM172.1,131.8h1.5c3.1-.4,5-3,6.2-6l6.2-15.8h-1.8l-5.3,14.1-5.2-14.1h-1.8l6,15.8h.3c-.9,2.1-2.5,4.3-4.8,4.6h-1.3v1.5h0ZM167.7,124.4c-1.1,0-2.1-.7-2.1-2.7v-10.3h4.8v-1.5h-4.8v-4.2h-1.6v4.2h-1.6v1.5h1.6v10.6c0,2.6,1.6,3.8,3.6,3.8h3.5v-1.5h-3.4ZM159.6,109.9h-1.6v15.8h1.6v-15.8ZM152.4,124.4c-1.1,0-2.1-.7-2.1-2.7v-10.3h4.8v-1.5h-4.8v-4.2h-1.6v4.2h-1.6v1.5h1.6v10.6c0,2.6,1.6,3.8,3.6,3.8h3.5v-1.5h-3.4ZM133,125.7v-10.2c0-2.1,2.5-4.4,5.5-4.4s4.7,1.7,4.7,5.1v9.6h1.6v-9.8c0-4-2.2-6.3-6-6.3s-5.3,2-5.8,3.3v-3h-1.6v15.8h1.6ZM114.6,116.5c.4-3.3,3-5.5,6.2-5.5s5.9,2.1,6.2,5.5c0,0-12.4,0-12.4,0ZM120.8,126.1c3.8,0,6.7-2.3,7.5-5.7h-1.5c-.8,2.7-3.2,4.3-6,4.3-4,0-6.7-3.4-6.3-7.1h13.8c.2,0,.3,0,.3-.3-.2-4.5-3.3-7.7-7.7-7.7s-8,3.7-8,8.2,3.3,8.2,8,8.2M102,124.6c-3.5,0-6.3-2.8-6.3-6.8s2.7-6.8,6.3-6.8,6.3,2.7,6.3,6.8-2.8,6.8-6.3,6.8M101.8,109.6c-4.6,0-7.7,3.7-7.7,8.2s3.1,8.2,7.7,8.2,5.8-1.9,6.6-4.8v4.5h1.6v-22.6h-1.6v11.3c-.8-2.9-3.5-4.8-6.6-4.8M91,109.9h-1.6v15.8h1.6v-15.8ZM71.7,121.9c0-2.9-3.1-4-6.2-4.6-2.7-.5-4.9-1-4.9-3.3s1.7-3,4.5-3,4.6,1.6,4.5,3.8h1.6c0-3-2.3-5.2-6.2-5.2s-6.1,1.8-6.1,4.3,2.3,3.8,5.2,4.4c2.9.6,5.9,1.4,5.9,3.5s-1.6,2.9-4.5,2.9-5.4-1.3-5.4-3.7h-1.6c0,3.1,2.9,5.1,7.2,5.1s5.9-1.3,5.9-4.2M54,109.9v10.2c0,2.1-2.5,4.5-5.5,4.5s-4.7-1.7-4.7-5.1v-9.6h-1.6v9.8c0,4,2.2,6.3,6,6.3s5.3-2,5.8-3.3v3h1.6v-15.8h-1.6ZM31.5,125.7v-8l7.9,8h2l-8.6-8.9,7.4-6.9h-1.9l-6.7,6.1v-12.8h-1.6v22.6h1.6,0ZM19.1,124.6c-3.6,0-6.3-2.8-6.3-6.8s2.8-6.8,6.3-6.8,6.3,2.7,6.3,6.8-2.7,6.8-6.3,6.8M19.1,126.1c4.7,0,7.9-3.7,7.9-8.2s-3.2-8.2-7.9-8.2-8,3.7-8,8.2,3.3,8.2,8,8.2M5.6,125.7v-14.3h4.9v-1.5h-4.9v-2.9c0-1.1.5-1.6,1.3-1.6h3.5v-1.5h-4.1c-1.6,0-2.4,1-2.4,2.7v3.2h-1.9v1.5h1.9v14.3h1.7Z"/>
  </g>
  <g>
    <polygon class="st0" points="219.3 136.6 221.5 136.4 221.5 134.4 219.3 134.4 219.3 136.6"/>
    <polygon class="st0" points="330.3 136.6 332.4 136.4 332.4 134.4 330.3 134.4 330.3 136.6"/>
    <path class="st0" d="M518.4,155.1c-3.6,0-6.3-2.8-6.3-6.8s2.8-6.8,6.3-6.8,6.3,2.7,6.3,6.8-2.7,6.8-6.3,6.8M523.9,162.2v-1.4h-8.9c-.2,0-.3,0-.2-.3l1.7-4.3c5.3,1.2,9.7-2.7,9.7-8s-1.5-5.6-3.7-7c1.2-2.5,3.2-5.1,5.5-5v-1.4c-2.7,0-5.3,2.9-6.8,5.8-.9-.4-1.8-.6-2.9-.6-4.7,0-8,3.7-8,8.2s1.8,6.3,4.7,7.5l-2.3,5.8c-.2.4,0,.7.4.7h10.8ZM495.9,156.2v-10.2c0-2.1,2.5-4.4,5.5-4.4s4.7,1.7,4.7,5.1v9.6h1.6v-9.8c0-4-2.2-6.3-6-6.3s-5.3,2-5.8,3.3v-3h-1.6v15.8h1.6,0ZM488.9,140.4v10.2c0,2.1-2.5,4.5-5.5,4.5s-4.7-1.7-4.7-5.1v-9.6h-1.6v9.8c0,4,2.2,6.3,6,6.3s5.3-2,5.8-3.3v3h1.6v-15.8h-1.6,0ZM472,154.9c-1.1,0-2.1-.7-2.1-2.7v-10.3h4.8v-1.5h-4.8v-4.2h-1.6v4.2h-1.6v1.5h1.6v10.6c0,2.6,1.6,3.8,3.6,3.8h3.5v-1.5h-3.4ZM464.1,133.7h-1.6v22.6h1.6v-22.6ZM451.8,155.3c-2.4,0-4.9-1.2-4.6-4.1.2-2.4,2.9-3.2,5.4-3.2s4.1-.3,4.9-1.2v2.4c0,2.3-1.4,6-5.6,6M451.3,156.6c3.7,0,5.5-2.2,6.3-4.4,0,1.6.2,3.1.5,4.1h1.6c-.3-1.2-.5-2.7-.5-4.2v-6.9c0-3.4-3.4-5.1-6.8-5.1s-6.4,1.9-6.5,5.7h1.7c0-3,2.8-4.4,4.7-4.4s5.2,1.2,5.2,3.8-1.7,1.7-4.8,1.7-7,1.1-7.2,4.4c-.3,3.5,2.5,5.3,5.7,5.3M441.3,154.9c-1.1,0-2.1-.7-2.1-2.7v-10.3h4.8v-1.5h-4.8v-4.2h-1.6v4.2h-1.6v1.5h1.6v10.6c0,2.6,1.6,3.8,3.6,3.8h3.5v-1.5h-3.4ZM434.2,152.4c0-2.9-3.1-4-6.2-4.6-2.7-.5-4.9-1-4.9-3.3s1.7-3,4.5-3,4.6,1.6,4.5,3.8h1.6c0-3-2.3-5.2-6.2-5.2s-6.1,1.8-6.1,4.3,2.3,3.8,5.2,4.4c2.9.6,5.9,1.4,5.9,3.5s-1.6,2.9-4.5,2.9-5.4-1.3-5.4-3.7h-1.6c0,3.1,2.9,5.1,7.2,5.1s5.9-1.3,5.9-4.2M405,147c.4-3.3,3-5.5,6.2-5.5s5.9,2.1,6.2,5.5h-12.4ZM411.3,156.6c3.8,0,6.7-2.3,7.5-5.7h-1.5c-.8,2.7-3.2,4.3-6,4.3-4,0-6.7-3.4-6.3-7.1h13.8c.2,0,.3,0,.3-.3-.2-4.5-3.3-7.7-7.7-7.7s-8,3.7-8,8.2,3.3,8.2,8,8.2M393.3,155.1c-3.6,0-6.3-2.8-6.3-6.8s2.8-6.8,6.3-6.8,6.3,2.7,6.3,6.8-2.7,6.8-6.3,6.8M398.9,162.2v-1.4h-8.9c-.2,0-.3,0-.2-.3l1.7-4.3c5.3,1.2,9.7-2.7,9.7-8s-1.5-5.6-3.7-7c1.2-2.5,3.2-5.1,5.5-5v-1.4c-2.7,0-5.3,2.9-6.8,5.8-.9-.4-1.8-.6-2.9-.6-4.7,0-8,3.7-8,8.2s1.8,6.3,4.7,7.5l-2.3,5.8c-.2.4,0,.7.4.7h10.8ZM383.2,152.4c0-2.9-3.1-4-6.2-4.6-2.7-.5-4.9-1-4.9-3.3s1.7-3,4.5-3,4.6,1.6,4.5,3.8h1.6c0-3-2.3-5.2-6.2-5.2s-6.1,1.8-6.1,4.3,2.3,3.8,5.2,4.4c2.9.6,5.9,1.4,5.9,3.5s-1.6,2.9-4.5,2.9-5.4-1.3-5.4-3.7h-1.6c0,3.1,2.9,5.1,7.2,5.1s5.9-1.3,5.9-4.2M355.5,156.2v-10.2c0-2.1,2.5-4.4,5.5-4.4s4.7,1.7,4.7,5.1v9.6h1.6v-9.8c0-4-2.2-6.3-6-6.3s-5.3,2-5.8,3.3v-3h-1.6v15.8h1.6,0ZM343.2,155.1c-3.6,0-6.3-2.8-6.3-6.8s2.8-6.8,6.3-6.8,6.3,2.7,6.3,6.8-2.7,6.8-6.3,6.8M343.2,156.6c4.7,0,7.9-3.7,7.9-8.2s-3.2-8.2-7.9-8.2-8,3.7-8,8.2,3.3,8.2,8,8.2M332.1,140.4h-1.6v15.8h1.6v-15.8ZM324.8,154.9c-1.1,0-2.1-.7-2.1-2.7v-10.3h4.8v-1.5h-4.8v-4.2h-1.6v4.2h-1.6v1.5h1.6v10.6c0,2.6,1.6,3.8,3.6,3.8h3.5v-1.5h-3.4ZM310.1,155.3c-2.4,0-4.9-1.2-4.6-4.1.2-2.4,2.9-3.2,5.4-3.2s4.1-.3,4.9-1.2v2.4c0,2.3-1.4,6-5.6,6M309.5,156.6c3.7,0,5.5-2.2,6.3-4.4,0,1.6.2,3.1.5,4.1h1.6c-.3-1.2-.5-2.7-.5-4.2v-6.9c0-3.4-3.4-5.1-6.8-5.1s-6.4,1.9-6.5,5.7h1.7c0-3,2.8-4.4,4.7-4.4s5.2,1.2,5.2,3.8-1.7,1.7-4.8,1.7-7,1.1-7.2,4.4c-.3,3.5,2.5,5.3,5.7,5.3M295.1,140.1c-2.3,0-4.5,2.1-5,3.8-.7-2.5-2.9-3.8-5.6-3.8s-4.2,2-4.7,3.3v-2.9h-1.6v15.8h1.6v-10.2c0-1.8,1.9-4.4,4.3-4.4s4.7,1.7,4.7,5.1v9.6h1.6v-10c0-2.3,2-4.7,4.3-4.7s4.7,1.7,4.7,5.1v9.6h1.6v-9.8c0-4-2.2-6.3-5.9-6.3M269.8,146.6c0-3.1,2.7-4.8,5.3-4.8s.8,0,1,0v-1.5h-1.1c-2.2,0-4.5,1.6-5.1,3.4h0v-3.4h-1.6v15.8h1.6v-9.6h0ZM257.5,155.1c-3.6,0-6.3-2.8-6.3-6.8s2.8-6.8,6.3-6.8,6.3,2.7,6.3,6.8-2.7,6.8-6.3,6.8M257.5,156.6c4.7,0,7.9-3.7,7.9-8.2s-3.2-8.2-7.9-8.2-8,3.7-8,8.2,3.3,8.2,8,8.2M244,156.2v-14.3h4.9v-1.5h-4.9v-2.9c0-1.1.5-1.6,1.3-1.6h3.5v-1.5h-4.1c-1.6,0-2.4,1-2.4,2.7v3.2h-1.9v1.5h1.9v14.3h1.7ZM226.7,156.2v-10.2c0-2.1,2.5-4.4,5.5-4.4s4.7,1.7,4.7,5.1v9.6h1.6v-9.8c0-4-2.2-6.3-6-6.3s-5.3,2-5.8,3.3v-3h-1.6v15.8h1.6ZM221.1,140.4h-1.6v15.8h1.6v-15.8ZM201.2,152v-5.8h5.8v-1h-5.8v-5.8h-1v5.8h-5.8v1h5.8v5.8h1ZM170.5,156.2v-10.2c0-2.1,2.5-4.4,5.5-4.4s4.7,1.7,4.7,5.1v9.6h1.6v-9.8c0-4-2.2-6.3-6-6.3s-5.3,2-5.8,3.3v-3h-1.6v15.8h1.6ZM152.2,147c.4-3.3,3-5.5,6.2-5.5s5.9,2.1,6.2,5.5h-12.4ZM158.4,156.6c3.8,0,6.7-2.3,7.5-5.7h-1.5c-.8,2.7-3.2,4.3-6,4.3-4,0-6.7-3.4-6.3-7.1h13.8c.2,0,.3,0,.3-.3-.2-4.5-3.3-7.7-7.7-7.7s-8,3.7-8,8.2,3.3,8.2,8,8.2M136,156.2v-10.2c0-2.1,2.5-4.4,5.5-4.4s4.7,1.7,4.7,5.1v9.6h1.6v-9.8c0-4-2.2-6.3-6-6.3s-5.3,2-5.8,3.3v-3h-1.6v15.8h1.6ZM123.6,155.1c-3.6,0-6.3-2.8-6.3-6.8s2.8-6.8,6.3-6.8,6.3,2.7,6.3,6.8-2.7,6.8-6.3,6.8M129.1,162.2v-1.4h-8.9c-.2,0-.3,0-.2-.3l1.7-4.3c5.3,1.2,9.7-2.7,9.7-8s-1.5-5.6-3.7-7c1.2-2.5,3.2-5.1,5.5-5v-1.4c-2.7,0-5.3,2.9-6.8,5.8-.9-.4-1.8-.6-2.9-.6-4.7,0-8,3.7-8,8.2s1.8,6.3,4.7,7.5l-2.3,5.8c-.2.4,0,.7.4.7h10.8ZM106,155.3c-2.4,0-4.9-1.2-4.6-4.1.2-2.4,2.9-3.2,5.4-3.2s4.1-.3,4.9-1.2v2.4c0,2.3-1.4,6-5.6,6M105.4,156.6c3.7,0,5.5-2.2,6.3-4.4,0,1.6.2,3.1.5,4.1h1.6c-.3-1.2-.5-2.7-.5-4.2v-6.9c0-3.4-3.4-5.1-6.8-5.1s-6.4,1.9-6.5,5.7h1.7c0-3,2.8-4.4,4.7-4.4s5.2,1.2,5.2,3.8-1.7,1.7-4.8,1.7-7,1.1-7.2,4.4c-.3,3.5,2.5,5.3,5.7,5.3M89.8,141.6c3.6,0,6.3,2.7,6.3,6.8s-2.7,6.8-6.3,6.8-6.3-2.8-6.3-6.8,2.7-6.8,6.3-6.8M90,156.6c4.6,0,7.7-3.7,7.7-8.2s-3.1-8.2-7.7-8.2-5.8,1.9-6.6,4.8v-4.5h-1.6v21.9h1.6v-10.6c.8,2.9,3.5,4.8,6.6,4.8M72.3,140.1c-2.3,0-4.5,2.1-5,3.8-.7-2.5-2.9-3.8-5.6-3.8s-4.2,2-4.7,3.3v-2.9h-1.6v15.8h1.6v-10.2c0-1.8,1.9-4.4,4.3-4.4s4.7,1.7,4.7,5.1v9.6h1.6v-10c0-2.3,2-4.7,4.3-4.7s4.7,1.7,4.7,5.1v9.6h1.6v-9.8c0-4-2.2-6.3-5.9-6.3M44.8,155.3c-2.4,0-4.9-1.2-4.6-4.1.2-2.4,2.9-3.2,5.4-3.2s4.1-.3,4.9-1.2v2.4c0,2.3-1.4,6-5.6,6M44.2,156.6c3.7,0,5.5-2.2,6.3-4.4,0,1.6.2,3.1.5,4.1h1.6c-.3-1.2-.5-2.7-.5-4.2v-6.9c0-3.4-3.4-5.1-6.8-5.1s-6.4,1.9-6.5,5.7h1.7c0-3,2.8-4.4,4.7-4.4s5.2,1.2,5.2,3.8-1.7,1.7-4.8,1.7-7,1.1-7.2,4.4c-.3,3.5,2.5,5.3,5.7,5.3M28.5,156.2v-8l7.9,8h2l-8.6-8.9,7.4-6.9h-1.9l-6.7,6.1v-12.8h-1.6v22.6h1.6,0Z"/>
    <polygon class="st0" points="7.4 143.7 7.4 149.5 1.6 149.5 1.6 150.5 7.4 150.5 7.4 156.2 8.3 156.2 8.3 150.5 14.1 150.5 14.1 149.5 8.3 149.5 8.3 143.7 7.4 143.7"/>
  </g>
  <g>
    <polygon class="st1" points="171.9 47.3 173.9 47.1 173.9 45.3 171.9 45.3 171.9 47.3"/>
    <polygon class="st1" points="163.9 47.3 165.9 47.1 165.9 45.3 163.9 45.3 163.9 47.3"/>
    <path class="st1" d="M489.9,64.7v-10.2c0-2.1,2.5-4.4,5.5-4.4s4.7,1.7,4.7,5.1v9.6h1.6v-9.8c0-4-2.2-6.3-6-6.3s-5.3,2-5.8,3.3v-3h-1.6v15.8h1.6,0ZM477.5,63.7c-3.6,0-6.3-2.8-6.3-6.8s2.8-6.8,6.3-6.8,6.3,2.7,6.3,6.8-2.7,6.8-6.3,6.8M477.5,65.1c4.7,0,7.9-3.7,7.9-8.2s-3.2-8.2-7.9-8.2-8,3.7-8,8.2,3.3,8.2,8,8.2M466.6,49.1h-1.6v15.8h1.6v-15.8ZM459.3,63.4c-1.1,0-2.1-.7-2.1-2.7v-10.3h4.8v-1.5h-4.8v-4.2h-1.6v4.2h-1.6v1.5h1.6v10.6c0,2.6,1.6,3.8,3.6,3.8h3.5v-1.5h-3.4ZM444.6,63.8c-2.4,0-4.9-1.2-4.6-4.1.2-2.4,2.9-3.2,5.4-3.2s4.1-.3,4.9-1.2v2.4c0,2.3-1.4,6-5.6,6M444,65.1c3.7,0,5.5-2.2,6.3-4.4,0,1.6.2,3.1.5,4.1h1.6c-.3-1.2-.5-2.7-.5-4.2v-6.9c0-3.4-3.4-5.1-6.8-5.1s-6.4,1.9-6.5,5.7h1.7c0-3,2.8-4.4,4.7-4.4s5.2,1.2,5.2,3.8-1.7,1.7-4.8,1.7-7,1.1-7.2,4.4c-.3,3.5,2.5,5.3,5.7,5.3M428.2,64.7v-8l7.9,8h2l-8.6-8.9,7.4-6.9h-1.9l-6.7,6.1v-12.8h-1.6v22.6h1.6,0ZM422.7,49.1h-1.6v15.8h1.6v-15.8ZM405.5,64.7v-10.2c0-2.1,2.5-4.4,5.5-4.4s4.7,1.7,4.7,5.1v9.6h1.6v-9.8c0-4-2.2-6.3-6-6.3s-5.3,2-5.8,3.3v-3h-1.6v15.8h1.6,0ZM398.5,49.1v10.2c0,2.1-2.5,4.5-5.5,4.5s-4.7-1.7-4.7-5.1v-9.6h-1.6v9.8c0,4,2.2,6.3,6,6.3s5.3-2,5.8-3.3v3h1.6v-15.8h-1.6,0ZM377.4,48.7c-2.3,0-4.5,2.1-5,3.8-.7-2.5-2.9-3.8-5.6-3.8s-4.2,2-4.7,3.3v-2.9h-1.6v15.8h1.6v-10.2c0-1.8,1.9-4.4,4.3-4.4s4.7,1.7,4.7,5.1v9.6h1.6v-10c0-2.3,2-4.7,4.3-4.7s4.7,1.7,4.7,5.1v9.6h1.6v-9.8c0-4-2.2-6.3-5.9-6.3M351,48.7c-2.3,0-4.5,2.1-5,3.8-.7-2.5-2.9-3.8-5.6-3.8s-4.2,2-4.7,3.3v-2.9h-1.6v15.8h1.6v-10.2c0-1.8,1.9-4.4,4.3-4.4s4.7,1.7,4.7,5.1v9.6h1.6v-10c0-2.3,2-4.7,4.3-4.7s4.7,1.7,4.7,5.1v9.6h1.6v-9.8c0-4-2.2-6.3-5.9-6.3M323.3,63.7c-3.6,0-6.3-2.8-6.3-6.8s2.8-6.8,6.3-6.8,6.3,2.7,6.3,6.8-2.7,6.8-6.3,6.8M323.3,65.1c4.7,0,7.9-3.7,7.9-8.2s-3.2-8.2-7.9-8.2-8,3.7-8,8.2,3.3,8.2,8,8.2M305.7,64.7v-8l7.9,8h2l-8.6-8.9,7.4-6.9h-1.9l-6.7,6.1v-12.8h-1.6v22.6h1.6,0ZM278.3,55.5c.4-3.3,3-5.5,6.2-5.5s5.9,2.1,6.2,5.5h-12.4ZM284.6,65.1c3.8,0,6.7-2.3,7.5-5.7h-1.5c-.8,2.7-3.2,4.3-6,4.3-4,0-6.7-3.4-6.3-7.1h13.8c.2,0,.3,0,.3-.3-.2-4.5-3.3-7.7-7.7-7.7s-8,3.7-8,8.2,3.3,8.2,8,8.2M273.8,42.3h-1.6v22.6h1.6v-22.6ZM268.5,42.3h-1.6v22.6h1.6v-22.6ZM250.2,55.5c.4-3.3,3-5.5,6.2-5.5s5.9,2.1,6.2,5.5h-12.4ZM256.4,65.1c3.8,0,6.7-2.3,7.5-5.7h-1.5c-.8,2.7-3.2,4.3-6,4.3-4,0-6.7-3.4-6.3-7.1h13.8c.2,0,.3,0,.3-.3-.2-4.5-3.3-7.7-7.7-7.7s-8,3.7-8,8.2,3.3,8.2,8,8.2M244,49.1v10.2c0,2.1-2.5,4.5-5.5,4.5s-4.7-1.7-4.7-5.1v-9.6h-1.6v9.8c0,4,2.2,6.3,6,6.3s5.3-2,5.8-3.3v3h1.6v-15.8s-1.6,0-1.6,0ZM229.4,60.9c0-2.9-3.1-4-6.2-4.6-2.7-.5-4.9-1-4.9-3.3s1.7-3,4.5-3,4.6,1.6,4.5,3.8h1.6c0-3-2.3-5.2-6.2-5.2s-6.1,1.8-6.1,4.3,2.3,3.8,5.2,4.4c2.9.6,5.9,1.4,5.9,3.5s-1.6,2.9-4.5,2.9-5.4-1.3-5.4-3.7h-1.6c0,3.1,2.9,5.1,7.2,5.1s5.9-1.3,5.9-4.2M213,49.1h-1.6v15.8h1.6v-15.8ZM197.1,49.1h-1.8l6.1,15.8h1.9l6.1-15.8h-1.8l-5.3,14.2s-5.2-14.2-5.2-14.2ZM180.9,55.1c0-3.1,2.7-4.8,5.3-4.8s.8,0,1,0v-1.5h-1.1c-2.2,0-4.5,1.6-5.1,3.4h0v-3.4h-1.6v15.8h1.6v-9.6h0ZM174,49.1v10.2c0,2.1-2.5,4.5-5.5,4.5s-4.7-1.7-4.7-5.1v-9.6h-1.6v9.8c0,4,2.2,6.3,6,6.3s5.3-2,5.8-3.3v3h1.6v-15.8s-1.6,0-1.6,0ZM155.5,64.7v-14.3h4.9v-1.5h-4.9v-2.9c0-1.1.5-1.6,1.3-1.6h3.5v-1.5h-4.1c-1.6,0-2.4,1-2.4,2.7v3.2h-1.9v1.5h1.9v14.3h1.7ZM129,64.7v-10.2c0-2.1,2.5-4.4,5.5-4.4s4.7,1.7,4.7,5.1v9.6h1.6v-9.8c0-4-2.2-6.3-6-6.3s-5.3,2-5.8,3.3v-3h-1.6v15.8h1.6ZM123.5,49.1h-1.6v15.8h1.6v-15.8ZM113.4,55.1c0-3.1,2.7-4.8,5.3-4.8s.8,0,1,0v-1.5h-1.1c-2.2,0-4.5,1.6-5.1,3.4h0v-3.4h-1.6v15.8h1.6v-9.6h0ZM95,55.5c.4-3.3,3-5.5,6.2-5.5s5.9,2.1,6.2,5.5c0,0-12.4,0-12.4,0ZM101.2,65.1c3.8,0,6.7-2.3,7.5-5.7h-1.5c-.8,2.7-3.2,4.3-6,4.3-4,0-6.7-3.4-6.3-7.1h13.8c.2,0,.3,0,.3-.3-.2-4.5-3.3-7.7-7.7-7.7s-8,3.7-8,8.2,3.3,8.2,8,8.2M89.1,63.4c-1.1,0-2.1-.7-2.1-2.7v-10.3h4.8v-1.5h-4.8v-4.2h-1.6v4.2h-1.6v1.5h1.6v10.6c0,2.6,1.6,3.8,3.6,3.8h3.5v-1.5h-3.4ZM81.3,42.3h-1.6v22.6h1.6v-22.6ZM69,63.8c-2.4,0-4.9-1.2-4.6-4.1.2-2.4,2.9-3.2,5.4-3.2s4.1-.3,4.9-1.2v2.4c0,2.3-1.4,6-5.6,6M68.4,65.1c3.7,0,5.5-2.2,6.3-4.4,0,1.6.2,3.1.5,4.1h1.6c-.3-1.2-.5-2.7-.5-4.2v-6.9c0-3.4-3.4-5.1-6.8-5.1s-6.4,1.9-6.5,5.7h1.7c0-3,2.8-4.4,4.7-4.4s5.2,1.2,5.2,3.8-1.7,1.7-4.8,1.7-7,1.1-7.2,4.4c-.3,3.5,2.5,5.3,5.7,5.3M58.5,63.4c-1.1,0-2.1-.7-2.1-2.7v-10.3h4.8v-1.5h-4.8v-4.2h-1.6v4.2h-1.6v1.5h1.6v10.6c0,2.6,1.6,3.8,3.6,3.8h3.5v-1.5h-3.4ZM51.5,60.9c0-2.9-3.1-4-6.2-4.6-2.7-.5-4.9-1-4.9-3.3s1.7-3,4.5-3,4.6,1.6,4.5,3.8h1.6c0-3-2.3-5.2-6.2-5.2s-6.1,1.8-6.1,4.3,2.3,3.8,5.2,4.4c2.9.6,5.9,1.4,5.9,3.5s-1.6,2.9-4.5,2.9-5.4-1.3-5.4-3.7h-1.6c0,3.1,2.9,5.1,7.2,5.1s5.9-1.3,5.9-4.2M22.3,55.5c.4-3.3,3-5.5,6.2-5.5s5.9,2.1,6.2,5.5h-12.4ZM28.6,65.1c3.8,0,6.7-2.3,7.5-5.7h-1.5c-.8,2.7-3.2,4.3-6,4.3-4,0-6.7-3.4-6.3-7.1h13.8c.2,0,.3,0,.3-.3-.2-4.5-3.3-7.7-7.7-7.7s-8,3.7-8,8.2,3.3,8.2,8,8.2M10.6,63.7c-3.6,0-6.3-2.8-6.3-6.8s2.8-6.8,6.3-6.8,6.3,2.7,6.3,6.8-2.7,6.8-6.3,6.8M16.1,70.8v-1.4H7.3c-.2,0-.3,0-.2-.3l1.7-4.3c5.3,1.2,9.7-2.7,9.7-8s-1.5-5.6-3.7-7c1.2-2.5,3.2-5.1,5.5-5v-1.4c-2.7,0-5.3,2.9-6.8,5.8-.9-.4-1.8-.6-2.9-.6-4.7,0-8,3.7-8,8.2s1.8,6.3,4.7,7.5l-2.3,5.8c-.2.4,0,.7.4.7h10.7Z"/>
    <polygon class="st1" points="121.6 45.4 123.8 45.2 123.8 43.2 121.6 43.2 121.6 45.4"/>
    <polygon class="st1" points="211.1 45.3 213.3 45.1 213.3 43.2 211.1 43.2 211.1 45.3"/>
    <polygon class="st1" points="420.8 45.4 423 45.2 423 43.2 420.8 43.2 420.8 45.4"/>
    <polygon class="st1" points="464.7 45.4 466.9 45.2 466.9 43.2 464.7 43.2 464.7 45.4"/>
  </g>
  <g>
    <polygon class="st1" points="79.5 75.7 81.7 75.5 81.7 73.5 79.5 73.5 79.5 75.7"/>
    <polygon class="st1" points="148.9 75.7 151.1 75.5 151.1 73.5 148.9 73.5 148.9 75.7"/>
    <path class="st1" d="M174.3,95.2v-10.2c0-2.1,2.5-4.4,5.5-4.4s4.7,1.7,4.7,5.1v9.6h1.6v-9.8c0-4-2.2-6.3-6-6.3s-5.3,2-5.8,3.3v-3h-1.6v15.8h1.6ZM161.9,94.1c-3.6,0-6.3-2.8-6.3-6.8s2.8-6.8,6.3-6.8,6.3,2.7,6.3,6.8-2.7,6.8-6.3,6.8M167.4,101.3v-1.4h-8.9c-.2,0-.3,0-.2-.3l1.7-4.3c5.3,1.2,9.7-2.7,9.7-8s-1.5-5.6-3.7-7c1.2-2.5,3.2-5.1,5.5-5v-1.4c-2.7,0-5.3,2.9-6.8,5.8-.9-.4-1.8-.6-2.9-.6-4.7,0-8,3.7-8,8.2s1.8,6.3,4.7,7.5l-2.3,5.8c-.2.4,0,.7.4.7h10.8ZM150.9,79.4h-1.6v15.8h1.6v-15.8ZM146,91.4c0-2.9-3.1-4-6.2-4.6-2.7-.5-4.9-1-4.9-3.3s1.7-3,4.5-3,4.6,1.6,4.5,3.8h1.6c0-3-2.3-5.2-6.2-5.2s-6.1,1.8-6.1,4.3,2.3,3.8,5.2,4.4,5.9,1.4,5.9,3.5-1.6,2.9-4.5,2.9-5.4-1.3-5.4-3.7h-1.6c0,3.1,2.9,5.1,7.2,5.1s5.9-1.3,5.9-4.2M116.8,86c.4-3.3,3-5.5,6.2-5.5s5.9,2.1,6.2,5.5h-12.4ZM123,95.6c3.8,0,6.7-2.3,7.5-5.7h-1.5c-.8,2.7-3.2,4.3-6,4.3-4,0-6.7-3.4-6.3-7.1h13.8c.2,0,.3,0,.3-.3-.2-4.5-3.3-7.7-7.7-7.7s-8,3.7-8,8.2,3.3,8.2,8,8.2M104.2,94.1c-3.5,0-6.3-2.8-6.3-6.8s2.7-6.8,6.3-6.8,6.3,2.7,6.3,6.8-2.8,6.8-6.3,6.8M104,79.1c-4.6,0-7.7,3.7-7.7,8.2s3.1,8.2,7.7,8.2,5.8-1.9,6.6-4.8v4.5h1.6v-22.6h-1.6v11.3c-.8-2.9-3.5-4.8-6.6-4.8M86.7,95.2v-8l7.9,8h2l-8.6-8.9,7.4-6.9h-1.9l-6.7,6.1v-12.8h-1.6v22.6h1.6,0ZM73,79.4v-2.9c0-1.1.5-1.6,1.3-1.6h3.7v-1.5h-4.2c-1.6,0-2.4,1-2.4,2.7v3.2h-1.9v1.5h1.9v14.3h1.6v-14.3h6.8v14.3h1.6v-15.8h-8.5,0ZM60.4,94.3c-2.4,0-4.9-1.2-4.6-4.1.2-2.4,2.9-3.2,5.4-3.2s4.1-.3,4.9-1.2v2.4c0,2.3-1.4,6-5.6,6M59.9,95.6c3.7,0,5.5-2.2,6.3-4.4,0,1.6.2,3.1.5,4.1h1.6c-.3-1.2-.5-2.7-.5-4.2v-6.9c0-3.4-3.4-5.1-6.8-5.1s-6.4,1.9-6.5,5.7h1.7c0-3,2.8-4.4,4.7-4.4s5.2,1.2,5.2,3.8-1.7,1.7-4.8,1.7-7,1.1-7.2,4.4c-.3,3.5,2.5,5.3,5.7,5.3M47.4,85.6c0-3.1,2.7-4.8,5.3-4.8s.8,0,1,0v-1.5h-1.1c-2.2,0-4.5,1.6-5.1,3.4h0v-3.4h-1.6v15.8h1.6v-9.6h0ZM34.9,94.1c-3.6,0-6.3-2.8-6.3-6.8s2.8-6.8,6.3-6.8,6.3,2.7,6.3,6.8-2.7,6.8-6.3,6.8M40.5,101.3v-1.4h-8.9c-.2,0-.3,0-.2-.3l1.7-4.3c5.3,1.2,9.7-2.7,9.7-8s-1.5-5.6-3.7-7c1.2-2.5,3.2-5.1,5.5-5v-1.4c-2.7,0-5.3,2.9-6.8,5.8-.9-.4-1.8-.6-2.9-.6-4.7,0-8,3.7-8,8.2s1.8,6.3,4.7,7.5l-2.3,5.8c-.2.4,0,.7.4.7h10.8Z"/>
    <polygon class="st1" points="7.4 81.6 7.4 87.4 1.6 87.4 1.6 88.4 7.4 88.4 7.4 94.1 8.3 94.1 8.3 88.4 14.1 88.4 14.1 87.4 8.3 87.4 8.3 81.6 7.4 81.6"/>
  </g>
</svg>