<?xml version="1.0" encoding="UTF-8"?>
<svg xmlns="http://www.w3.org/2000/svg" xmlns:xlink="http://www.w3.org/1999/xlink" version="1.1" viewBox="0 0 347.2 342.2">
  <!-- Generator: Adobe Illustrator 29.3.0, SVG Export Plug-In . SVG Version: 2.1.0 Build 146)  -->
  <defs>
    <style>
      .st0 {
        fill: none;
      }

      .st1 {
        isolation: isolate;
      }

      .st2 {
        clip-path: url(#clippath-1);
      }

      .st3 {
        fill: #fff;
      }

      .st4 {
        fill: #010101;
        mix-blend-mode: soft-light;
      }

      .st5 {
        clip-path: url(#clippath);
      }
    </style>
    <clipPath id="clippath">
      <polygon class="st0" points=".9 0 .9 342.1 347.2 306 347.2 0 .9 0"/>
    </clipPath>
    <clipPath id="clippath-1">
      <rect class="st0" x="-609.6" y="-459.1" width="1211.6" height="844.9"/>
    </clipPath>
  </defs>
  <g class="st1">
    <g id="Ebene_1">
      <g class="st5">
        <g id="Selbstporträt_x5F_Julia_Anna_Lachmann.psd">
          <g class="st2">
            <image id="B-E" width="945" height="659" transform="translate(-609.6 -459.1) scale(1.3)" xlink:href="stoerer_klick-1.png"/>
          </g>
        </g>
      </g>
      <polygon class="st4" points="0 0 0 342.2 346.3 306 346.3 0 0 0"/>
      <g>
        <path class="st3" d="M79.2,61.7l3.9-21.1h5l-4.9,25.6h-8.2l-4-21.1h-.6l-4.1,21.1h-8.2l-5-25.6h5l3.9,21.1h.5l3.9-21.1h8.3l3.9,21.1h.4Z"/>
        <path class="st3" d="M91,66.2v-25.6h16.6v4.5h-11.4v5.7h10.6v4.5h-10.6v6.5h11.4v4.5h-16.6Z"/>
        <path class="st3" d="M126.8,61.7v-21.1h5.2v25.6h-9.9l-5.1-21.1h-.4v21.1h-5.3v-25.6h9.6l5.5,21.1h.5Z"/>
        <path class="st3" d="M152.4,61.7v-21.1h5.2v25.6h-9.9l-5.1-21.1h-.4v21.1h-5.3v-25.6h9.6l5.5,21.1h.5Z"/>
        <path class="st3" d="M172.6,66.2v-25.6h10.7c8.3,0,11.6,4,11.6,12.8s-3.3,12.8-11.6,12.8h-10.7ZM177.8,61.7h4.9c5.6,0,7-3.5,7-8.3s-1.4-8.3-7-8.3h-4.9v16.6Z"/>
        <path class="st3" d="M212.5,40.6h5.2v16.4c0,6-3.1,9.7-9.7,9.7s-9.7-3.7-9.7-9.7v-16.4h5.2v17c0,3.1,1.9,4.6,4.5,4.6s4.5-1.5,4.5-4.6v-17Z"/>
        <path class="st3" d="M79.2,89.7l3.9-21.1h5l-4.9,25.6h-8.2l-4-21.1h-.6l-4.1,21.1h-8.2l-5-25.6h5l3.9,21.1h.5l3.9-21.1h8.3l3.9,21.1h.4Z"/>
        <path class="st3" d="M91,94.2v-25.6h5.2v25.6h-5.2Z"/>
        <path class="st3" d="M110.1,94.7c-5.5,0-10.6-2.7-10.4-8.8h5.2c-.2,2.1,1.6,4.2,4.8,4.3,2.7,0,4.3-.9,4.3-2.8s-3.4-3.1-6.7-4.6c-3.6-1.6-7.3-3.7-7.3-7.7s4.2-7,9.5-7,9.8,2.4,9.6,8.3h-5.2c.2-1.9-.8-3.8-4-3.8-2.7,0-4.4,1-4.4,2.7s2.7,2.8,5.8,4.1c3.8,1.6,8.3,3.7,8.3,8.2s-4.2,7.1-9.4,7.1Z"/>
        <path class="st3" d="M132.2,94.7c-5.5,0-10.6-2.7-10.4-8.8h5.2c-.2,2.1,1.6,4.2,4.8,4.3,2.7,0,4.3-.9,4.3-2.8s-3.4-3.1-6.7-4.6c-3.6-1.6-7.3-3.7-7.3-7.7s4.2-7,9.5-7,9.8,2.4,9.6,8.3h-5.2c.2-1.9-.8-3.8-4-3.8-2.7,0-4.4,1-4.4,2.7s2.7,2.8,5.8,4.1c3.8,1.6,8.3,3.7,8.3,8.2s-4.2,7.1-9.4,7.1Z"/>
        <path class="st3" d="M145.3,94.2v-25.6h16.6v4.5h-11.4v5.7h10.6v4.5h-10.6v6.5h11.4v4.5h-16.6Z"/>
        <path class="st3" d="M181.1,89.7v-21.1h5.2v25.6h-9.9l-5.1-21.1h-.4v21.1h-5.3v-25.6h9.6l5.5,21.1h.5Z"/>
        <path class="st3" d="M79.2,117.7l3.9-21.1h5l-4.9,25.6h-8.2l-4-21.1h-.6l-4.1,21.1h-8.2l-5-25.6h5l3.9,21.1h.5l3.9-21.1h8.3l3.9,21.1h.4Z"/>
        <path class="st3" d="M91,122.2v-25.6h5.2v25.6h-5.2Z"/>
        <path class="st3" d="M106.1,117.7h9.5v4.5h-14.7v-25.6h5.2v21.1Z"/>
        <path class="st3" d="M123.7,117.7h9.5v4.5h-14.7v-25.6h5.2v21.1Z"/>
        <path class="st3" d="M144.4,122.7c-5.5,0-10.6-2.7-10.4-8.8h5.2c-.2,2.1,1.6,4.2,4.8,4.3,2.7,0,4.3-.9,4.3-2.8s-3.4-3.1-6.7-4.6c-3.6-1.6-7.3-3.7-7.3-7.7s4.2-7,9.5-7,9.8,2.4,9.6,8.3h-5.2c.2-1.9-.8-3.8-4-3.8-2.7,0-4.4,1-4.4,2.7s2.7,2.8,5.8,4.1c3.8,1.6,8.3,3.7,8.3,8.2s-4.2,7.1-9.4,7.1Z"/>
        <path class="st3" d="M171.4,96.6v4.5h-5.9v21.1h-5.2v-21.1h-5.8v-4.5h16.9Z"/>
        <path class="st3" d="M170.4,117.4h4.5v4.1c0,2.7-2.6,4.9-3.3,5.3l-1.1-1c.7-.5,1.7-2,1.8-3.7h-1.9v-4.8Z"/>
        <path class="st3" d="M211.3,117.7l3.9-21.1h5l-4.9,25.6h-8.2l-4-21.1h-.6l-4.1,21.1h-8.2l-5-25.6h5l3.9,21.1h.5l3.9-21.1h8.3l3.9,21.1h.4Z"/>
        <path class="st3" d="M219.1,122.2l7.3-25.6h8.8l7.3,25.6h-5.3l-2.1-6.4h-8.7l-2,6.4h-5.3ZM227.4,111.6h6.7l-3-10.9h-.7l-3,10.9Z"/>
        <path class="st3" d="M253.4,122.7c-5.5,0-10.6-2.7-10.4-8.8h5.2c-.2,2.1,1.6,4.2,4.8,4.3,2.7,0,4.3-.9,4.3-2.8s-3.4-3.1-6.7-4.6c-3.6-1.6-7.3-3.7-7.3-7.7s4.2-7,9.5-7,9.8,2.4,9.6,8.3h-5.2c.2-1.9-.8-3.8-4-3.8-2.7,0-4.4,1-4.4,2.7s2.7,2.8,5.8,4.1c3.8,1.6,8.3,3.7,8.3,8.2s-4.2,7.1-9.4,7.1Z"/>
        <path class="st3" d="M55.3,150.2v-25.6h10.7c8.3,0,11.6,4,11.6,12.8s-3.3,12.8-11.6,12.8h-10.7ZM60.4,145.7h4.9c5.6,0,7-3.5,7-8.3s-1.4-8.3-7-8.3h-4.9v16.6Z"/>
        <path class="st3" d="M81,150.2v-25.6h16.6v4.5h-11.4v5.7h10.6v4.5h-10.6v6.5h11.4v4.5h-16.6Z"/>
        <path class="st3" d="M110.3,150.7c-5.5,0-10.6-2.7-10.4-8.8h5.2c-.2,2.1,1.6,4.2,4.8,4.3,2.7,0,4.3-.9,4.3-2.8s-3.4-3.1-6.7-4.6c-3.6-1.6-7.3-3.7-7.3-7.7s4.2-7,9.5-7,9.8,2.4,9.6,8.3h-5.2c.2-1.9-.8-3.8-4-3.8-2.7,0-4.4,1-4.4,2.7s2.7,2.8,5.8,4.1c3.8,1.6,8.3,3.7,8.3,8.2s-4.2,7.1-9.4,7.1Z"/>
        <path class="st3" d="M123.4,150.2v-25.6h5.2v25.6h-5.2Z"/>
        <path class="st3" d="M131.9,137.4c0-7.6,4.1-13.3,12.2-13.3s10.7,3,11.5,9h-5.7c-.4-2.9-2.8-4.5-5.9-4.5-5,0-7,4.2-7,8.8s2.6,8.8,7,8.8,6.2-1.8,6.5-5h-5.9v-3.9h11.1c0,8.3-3.4,13.4-11.8,13.4s-12.2-5.7-12.2-13.3Z"/>
        <path class="st3" d="M175.6,145.7v-21.1h5.2v25.6h-9.9l-5.1-21.1h-.4v21.1h-5.3v-25.6h9.6l5.5,21.1h.5Z"/>
        <path class="st3" d="M193,150.2l7.3-25.6h8.8l7.3,25.6h-5.3l-2.1-6.4h-8.7l-2,6.4h-5.3ZM201.3,139.6h6.7l-3-10.9h-.7l-3,10.9Z"/>
        <path class="st3" d="M232.1,124.6h5.2v16.4c0,6-3.1,9.7-9.7,9.7s-9.7-3.7-9.7-9.7v-16.4h5.2v17c0,3.1,1.9,4.6,4.5,4.6s4.5-1.5,4.5-4.6v-17Z"/>
        <path class="st3" d="M251,150.7c-5.5,0-10.6-2.7-10.4-8.8h5.2c-.2,2.1,1.6,4.2,4.8,4.3,2.7,0,4.3-.9,4.3-2.8s-3.4-3.1-6.7-4.6c-3.6-1.6-7.3-3.7-7.3-7.7s4.2-7,9.5-7,9.8,2.4,9.6,8.3h-5.2c.2-1.9-.8-3.8-4-3.8-2.7,0-4.4,1-4.4,2.7s2.7,2.8,5.8,4.1c3.8,1.6,8.3,3.7,8.3,8.2s-4.2,7.1-9.4,7.1Z"/>
        <path class="st3" d="M55.3,178.2v-25.6h16.6v4.5h-11.4v5.7h10.6v4.5h-10.6v6.5h11.4v4.5h-16.6Z"/>
        <path class="st3" d="M75.5,178.2v-25.6h5.2v25.6h-5.2Z"/>
        <path class="st3" d="M101,173.7v-21.1h5.2v25.6h-9.9l-5.1-21.1h-.4v21.1h-5.3v-25.6h9.6l5.5,21.1h.5Z"/>
        <path class="st3" d="M141.5,170.8c0,4.8-3.2,7.3-7.6,7.3h-12.6v-25.6h11.9c5.3,0,7,2.9,7,6.6s-1.4,4.6-3,5.4c2.1.5,4.4,2.4,4.3,6.3ZM126.3,157v5.4h4.9c2.6,0,3.7-1,3.7-2.8s-1.2-2.6-3.7-2.6h-4.9ZM133.1,173.7c2.5,0,3.3-1.8,3.3-3.4s-.8-3.4-3.4-3.4h-6.7v6.8h6.8Z"/>
        <path class="st3" d="M145,178.2v-25.6h5.2v25.6h-5.2Z"/>
        <path class="st3" d="M164.1,178.7c-5.5,0-10.6-2.7-10.4-8.8h5.2c-.2,2.1,1.6,4.2,4.8,4.3,2.7,0,4.3-.9,4.3-2.8s-3.4-3.1-6.7-4.6c-3.6-1.6-7.3-3.7-7.3-7.7s4.2-7,9.5-7,9.8,2.4,9.6,8.3h-5.2c.2-1.9-.8-3.8-4-3.8-2.7,0-4.4,1-4.4,2.7s2.7,2.8,5.8,4.1c3.8,1.6,8.3,3.7,8.3,8.2s-4.2,7.1-9.4,7.1Z"/>
        <path class="st3" d="M186.3,178.7c-5.5,0-10.6-2.7-10.4-8.8h5.2c-.2,2.1,1.6,4.2,4.8,4.3,2.7,0,4.3-.9,4.3-2.8s-3.4-3.1-6.7-4.6c-3.6-1.6-7.3-3.7-7.3-7.7s4.2-7,9.5-7,9.8,2.4,9.6,8.3h-5.2c.2-1.9-.8-3.8-4-3.8-2.7,0-4.4,1-4.4,2.7s2.7,2.8,5.8,4.1c3.8,1.6,8.3,3.7,8.3,8.2s-4.2,7.1-9.4,7.1Z"/>
        <path class="st3" d="M198.2,165.4c0-7.6,4.1-13.3,12.2-13.3s10.7,2.9,11.6,8.9h-5.4c-.6-3-3.2-4.4-6.3-4.4-5,0-7,4.2-7,8.8s2.6,8.8,7,8.8,6-2.5,6.7-5.9h5.2c-.8,6.1-4.9,10.4-11.9,10.4s-12.2-5.7-12.2-13.3Z"/>
        <path class="st3" d="M225.6,178.2v-25.6h5.2v9.3h11.3v-9.3h5.2v25.6h-5.2v-11.8h-11.3v11.8h-5.2Z"/>
        <path class="st3" d="M252,178.2v-25.6h16.6v4.5h-11.4v5.7h10.6v4.5h-10.6v6.5h11.4v4.5h-16.6Z"/>
        <path class="st3" d="M287.9,173.7v-21.1h5.2v25.6h-9.9l-5.1-21.1h-.4v21.1h-5.3v-25.6h9.6l5.5,21.1h.5Z"/>
        <path class="st3" d="M64.4,206.6c-5.5,0-10.6-2.7-10.4-8.8h5.2c-.2,2.1,1.6,4.2,4.8,4.3,2.7,0,4.3-.9,4.3-2.8s-3.4-3.1-6.7-4.6c-3.6-1.6-7.3-3.7-7.3-7.7s4.2-7,9.5-7,9.8,2.4,9.6,8.3h-5.2c.2-1.9-.8-3.8-4-3.8-2.7,0-4.4,1-4.4,2.7s2.7,2.8,5.8,4.1c3.8,1.6,8.3,3.7,8.3,8.2s-4.2,7.1-9.4,7.1Z"/>
        <path class="st3" d="M77.4,206.1v-25.6h10.3c5.6,0,8.6,3.2,8.6,8s-3.1,8-8.6,8h-5.2v9.5h-5.2ZM82.6,192.1h4.6c2.8,0,4-1.5,4-3.5s-1.2-3.6-4-3.6h-4.6v7.1Z"/>
        <path class="st3" d="M119.9,206.1h-5.4c-1.7-1.9-1.5-9.5-6.1-9.5h-3.8v9.5h-5.2v-25.6h10.3c5.7,0,8.6,3.5,8.6,7.9s-1.3,5.6-3.7,6.4c3.3,1.5,3.1,8.8,5.2,11.2ZM104.5,185v7.1h4.6c2.8,0,4-1.5,4-3.5s-1.2-3.6-4-3.6h-4.6Z"/>
        <path class="st3" d="M119.7,206.1l7.3-25.6h8.8l7.3,25.6h-5.3l-2.1-6.4h-8.7l-2,6.4h-5.3ZM128,195.6h6.7l-3-10.9h-.7l-3,10.9Z"/>
        <path class="st3" d="M143.4,193.3c0-7.6,4.1-13.3,12.2-13.3s10.7,2.9,11.6,8.9h-5.4c-.6-3-3.2-4.4-6.3-4.4-5,0-7,4.2-7,8.8s2.6,8.8,7,8.8,6-2.5,6.7-5.9h5.2c-.8,6.1-4.9,10.4-11.9,10.4s-12.2-5.7-12.2-13.3Z"/>
        <path class="st3" d="M170.8,206.1v-25.6h5.2v9.3h11.3v-9.3h5.2v25.6h-5.2v-11.8h-11.3v11.8h-5.2Z"/>
        <path class="st3" d="M197.3,206.1v-25.6h16.6v4.5h-11.4v5.7h10.6v4.5h-10.6v6.5h11.4v4.5h-16.6Z"/>
        <path class="st3" d="M69.8,229.6l5.1-21.1h9.1v25.6h-5.2v-21.1h-.3l-5,21.1h-7.8l-5-21.1h-.3v21.1h-5.2v-25.6h9.1l5.1,21.1h.4Z"/>
        <path class="st3" d="M86.7,234.1l7.3-25.6h8.8l7.3,25.6h-5.3l-2.1-6.4h-8.7l-2,6.4h-5.3ZM95,223.6h6.7l-3-10.9h-.7l-3,10.9Z"/>
        <path class="st3" d="M110.8,221.3c0-7.6,4.1-13.3,12.2-13.3s10.7,2.9,11.6,8.9h-5.4c-.6-3-3.2-4.4-6.3-4.4-5,0-7,4.2-7,8.8s2.6,8.8,7,8.8,6-2.5,6.7-5.9h5.2c-.8,6.1-4.9,10.4-11.9,10.4s-12.2-5.7-12.2-13.3Z"/>
        <path class="st3" d="M138.6,234.1v-25.6h5.2v9.3h11.3v-9.3h5.2v25.6h-5.2v-11.8h-11.3v11.8h-5.2Z"/>
        <path class="st3" d="M165.4,234.1v-25.6h16.6v4.5h-11.4v5.7h10.6v4.5h-10.6v6.5h11.4v4.5h-16.6Z"/>
        <path class="st3" d="M201.7,229.6v-21.1h5.2v25.6h-9.9l-5.1-21.1h-.4v21.1h-5.3v-25.6h9.6l5.5,21.1h.5Z"/>
        <path class="st3" d="M73.8,262.1h-5.7l-5.5-11.4h-2.2v11.4h-5.2v-25.6h5.2v10.1h2.2l4.6-10.1h5.2l-5.1,12.3,6.5,13.3Z"/>
        <path class="st3" d="M73.8,262.1l7.3-25.6h8.8l7.3,25.6h-5.3l-2.1-6.4h-8.7l-2,6.4h-5.3ZM82.1,251.5h6.7l-3-10.9h-.7l-3,10.9Z"/>
        <path class="st3" d="M115.7,257.6v-21.1h5.2v25.6h-9.9l-5.1-21.1h-.4v21.1h-5.3v-25.6h9.6l5.5,21.1h.5Z"/>
        <path class="st3" d="M141.6,257.6v-21.1h5.2v25.6h-9.9l-5.1-21.1h-.4v21.1h-5.3v-25.6h9.6l5.5,21.1h.5Z"/>
        <path class="st3" d="M151.1,257.3h4.5v4.1c0,2.7-2.6,4.9-3.3,5.3l-1.1-1c.7-.5,1.7-2,1.8-3.7h-1.9v-4.8Z"/>
        <path class="st3" d="M73.8,290.1h-5.7l-5.5-11.4h-2.2v11.4h-5.2v-25.6h5.2v10.1h2.2l4.6-10.1h5.2l-5.1,12.3,6.5,13.3Z"/>
        <path class="st3" d="M81,285.6h9.5v4.5h-14.7v-25.6h5.2v21.1Z"/>
        <path class="st3" d="M93.5,290.1v-25.6h5.2v25.6h-5.2Z"/>
        <path class="st3" d="M102.1,277.3c0-7.6,4.1-13.3,12.2-13.3s10.7,2.9,11.6,8.9h-5.4c-.6-3-3.2-4.4-6.3-4.4-5,0-7,4.2-7,8.8s2.6,8.8,7,8.8,6-2.5,6.7-5.9h5.2c-.8,6.1-4.9,10.4-11.9,10.4s-12.2-5.7-12.2-13.3Z"/>
        <path class="st3" d="M148,290.1h-5.7l-5.5-11.4h-2.2v11.4h-5.2v-25.6h5.2v10.1h2.2l4.6-10.1h5.2l-5.1,12.3,6.5,13.3Z"/>
        <path class="st3" d="M159.5,290.1v-25.6h5.2v9.3h11.3v-9.3h5.2v25.6h-5.2v-11.8h-11.3v11.8h-5.2Z"/>
        <path class="st3" d="M185.9,290.1v-25.6h5.2v25.6h-5.2Z"/>
        <path class="st3" d="M195.9,290.1v-25.6h16.6v4.5h-11.4v5.7h10.6v4.5h-10.6v6.5h11.4v4.5h-16.6Z"/>
        <path class="st3" d="M236.5,290.1h-5.4c-1.7-1.9-1.5-9.5-6.1-9.5h-3.8v9.5h-5.2v-25.6h10.3c5.7,0,8.6,3.5,8.6,7.9s-1.3,5.6-3.7,6.4c3.3,1.5,3.1,8.8,5.2,11.2ZM221.2,269v7.1h4.6c2.8,0,4-1.5,4-3.5s-1.2-3.6-4-3.6h-4.6Z"/>
        <path class="st3" d="M237.9,285.3h4.5v4.8h-4.5v-4.8Z"/>
      </g>
    </g>
  </g>
</svg>