<?xml version="1.0" encoding="UTF-8"?>
<svg id="Ebene_1" xmlns="http://www.w3.org/2000/svg" version="1.1" viewBox="0 0 1788.6 1006.1">
  <!-- Generator: Adobe Illustrator 29.3.0, SVG Export Plug-In . SVG Version: 2.1.0 Build 146)  -->
  <defs>
    <style>
      .st0 {
        isolation: isolate;
      }
    </style>
  </defs>
  <g class="st0">
    <g class="st0">
      <path d="M234.5,512.5l1.4-5.8h2.5v7h-1.4v-5.8h0l-1.4,5.8h-2.1l-1.4-5.8h0v5.8h-1.4v-7h2.5l1.4,5.8h.1Z"/>
      <path d="M239,513.7l2-7h2.4l2,7h-1.4l-.6-1.7h-2.4l-.6,1.7h-1.4ZM241.3,510.8h1.8l-.8-3h-.2l-.8,3Z"/>
      <path d="M245.5,510.2c0-2.1,1.1-3.6,3.3-3.6s2.9.8,3.1,2.5h-1.5c-.1-.8-.8-1.2-1.6-1.2-1.4,0-1.9,1.1-1.9,2.4s.7,2.4,1.9,2.4,1.7-.5,1.8-1.4h-1.6v-1.1h3c0,2.3-.9,3.7-3.2,3.7s-3.3-1.5-3.3-3.6Z"/>
      <path d="M253.2,513.7v-7h1.4v7h-1.4Z"/>
      <path d="M258.4,513.8c-1.5,0-2.9-.7-2.8-2.4h1.4c0,.6.4,1.2,1.3,1.2.7,0,1.2-.2,1.2-.8s-.9-.8-1.8-1.3c-1-.4-2-1-2-2.1s1.2-1.9,2.6-1.9,2.7.6,2.6,2.3h-1.4c0-.5-.2-1-1.1-1-.7,0-1.2.3-1.2.7s.7.8,1.6,1.1c1,.4,2.3,1,2.3,2.2s-1.1,1.9-2.6,1.9Z"/>
      <path d="M265.8,506.7v1.2h-1.6v5.8h-1.4v-5.8h-1.6v-1.2h4.6Z"/>
      <path d="M266.6,513.7v-7h4.5v1.2h-3.1v1.5h2.9v1.2h-2.9v1.8h3.1v1.2h-4.5Z"/>
      <path d="M277.8,513.7h-1.5c-.5-.5-.4-2.6-1.7-2.6h-1v2.6h-1.4v-7h2.8c1.6,0,2.3,1,2.3,2.2s-.4,1.5-1,1.8c.9.4.9,2.4,1.4,3.1ZM273.6,507.9v1.9h1.3c.8,0,1.1-.4,1.1-1s-.3-1-1.1-1h-1.3Z"/>
      <path d="M280.4,513.7l2-7h2.4l2,7h-1.4l-.6-1.7h-2.4l-.6,1.7h-1.4ZM282.6,510.8h1.8l-.8-3h-.2l-.8,3Z"/>
      <path d="M293,513.7h-1.5c-.5-.5-.4-2.6-1.7-2.6h-1v2.6h-1.4v-7h2.8c1.6,0,2.3,1,2.3,2.2s-.4,1.5-1,1.8c.9.4.9,2.4,1.4,3.1ZM288.8,507.9v1.9h1.3c.8,0,1.1-.4,1.1-1s-.3-1-1.1-1h-1.3Z"/>
      <path d="M297.5,506.7v1.2h-1.6v5.8h-1.4v-5.8h-1.6v-1.2h4.6Z"/>
      <path d="M298.3,513.7v-7h1.4v7h-1.4Z"/>
      <path d="M304.8,506.7h1.4v4.5c0,1.6-.8,2.7-2.7,2.7s-2.6-1-2.6-2.7v-4.5h1.4v4.7c0,.8.5,1.2,1.2,1.2s1.2-.4,1.2-1.2v-4.7Z"/>
      <path d="M311.4,512.5l1.4-5.8h2.5v7h-1.4v-5.8h0l-1.4,5.8h-2.1l-1.4-5.8h0v5.8h-1.4v-7h2.5l1.4,5.8h.1Z"/>
      <path d="M316.4,512.4h1.2v1.1c0,.7-.7,1.3-.9,1.5l-.3-.3c.2-.1.5-.5.5-1h-.5v-1.3Z"/>
      <path d="M323.8,513.8c-1.5,0-2.9-.7-2.8-2.4h1.4c0,.6.4,1.2,1.3,1.2.7,0,1.2-.2,1.2-.8s-.9-.8-1.8-1.3c-1-.4-2-1-2-2.1s1.2-1.9,2.6-1.9,2.7.6,2.6,2.3h-1.4c0-.5-.2-1-1.1-1-.7,0-1.2.3-1.2.7s.7.8,1.6,1.1c1,.4,2.3,1,2.3,2.2s-1.1,1.9-2.6,1.9Z"/>
      <path d="M327.3,513.7v-7h1.4v7h-1.4Z"/>
      <path d="M334.3,512.5v-5.8h1.4v7h-2.7l-1.4-5.8h-.1v5.8h-1.4v-7h2.6l1.5,5.8h.1Z"/>
      <path d="M336.7,510.2c0-2.1,1.1-3.6,3.3-3.6s3.3,1.5,3.3,3.6-1.1,3.6-3.3,3.6-3.3-1.5-3.3-3.6ZM341.9,510.2c0-1.3-.5-2.4-1.9-2.4s-1.9,1.1-1.9,2.4.7,2.4,1.9,2.4,1.9-1.2,1.9-2.4Z"/>
      <path d="M345.7,512.5h2.6v1.2h-4v-7h1.4v5.8Z"/>
      <path d="M348.4,510.2c0-2.1,1.1-3.6,3.3-3.6s3.3,1.5,3.3,3.6-1.1,3.6-3.3,3.6-3.3-1.5-3.3-3.6ZM353.6,510.2c0-1.3-.5-2.4-1.9-2.4s-1.9,1.1-1.9,2.4.7,2.4,1.9,2.4,1.9-1.2,1.9-2.4Z"/>
      <path d="M355.7,510.2c0-2.1,1.1-3.6,3.3-3.6s2.9.8,3.1,2.5h-1.5c-.1-.8-.8-1.2-1.6-1.2-1.4,0-1.9,1.1-1.9,2.4s.7,2.4,1.9,2.4,1.7-.5,1.8-1.4h-1.6v-1.1h3c0,2.3-.9,3.7-3.2,3.7s-3.3-1.5-3.3-3.6Z"/>
      <path d="M363.4,513.7v-7h1.4v7h-1.4Z"/>
      <path d="M366.1,513.7v-7h4.5v1.2h-3.1v1.5h2.9v1.2h-2.9v1.8h3.1v1.2h-4.5Z"/>
    </g>
    <g class="st0">
      <path d="M232,520.5h2.6v1.2h-4v-7h1.4v5.8Z"/>
      <path d="M239.4,520.5l1.4-5.8h2.5v7h-1.4v-5.8h0l-1.4,5.8h-2.1l-1.4-5.8h0v5.8h-1.4v-7h2.5l1.4,5.8h.1Z"/>
      <path d="M248.4,514.7h1.4v4.5c0,1.6-.8,2.7-2.7,2.7s-2.6-1-2.6-2.7v-4.5h1.4v4.7c0,.8.5,1.2,1.2,1.2s1.2-.4,1.2-1.2v-4.7Z"/>
      <path d="M250.6,520.4h1.2v1.1c0,.7-.7,1.3-.9,1.5l-.3-.3c.2-.1.5-.5.5-1h-.5v-1.3Z"/>
      <path d="M259.4,520.5l1.4-5.8h2.5v7h-1.4v-5.8h0l-1.4,5.8h-2.1l-1.4-5.8h0v5.8h-1.4v-7h2.5l1.4,5.8h.1Z"/>
      <path d="M268.4,514.7h1.4v4.5c0,1.6-.8,2.7-2.7,2.7s-2.6-1-2.6-2.7v-4.5h1.4v4.7c0,.8.5,1.2,1.2,1.2s1.2-.4,1.2-1.2v-4.7ZM265.5,513.8c0-.4.3-.6.6-.6s.6.3.6.6-.3.6-.6.6-.6-.3-.6-.6ZM267.4,513.8c0-.4.3-.6.6-.6s.6.3.6.6-.3.6-.6.6-.6-.3-.6-.6Z"/>
      <path d="M275.3,520.5v-5.8h1.4v7h-2.7l-1.4-5.8h-.1v5.8h-1.4v-7h2.6l1.5,5.8h.1Z"/>
      <path d="M277.7,518.2c0-2.1,1.1-3.6,3.3-3.6s2.9.8,3.2,2.4h-1.5c-.2-.8-.9-1.2-1.7-1.2-1.4,0-1.9,1.1-1.9,2.4s.7,2.4,1.9,2.4,1.6-.7,1.8-1.6h1.4c-.2,1.7-1.3,2.8-3.2,2.8s-3.3-1.5-3.3-3.6Z"/>
      <path d="M285.2,521.7v-7h1.4v2.5h3.1v-2.5h1.4v7h-1.4v-3.2h-3.1v3.2h-1.4Z"/>
      <path d="M292.4,521.7v-7h4.5v1.2h-3.1v1.5h2.9v1.2h-2.9v1.8h3.1v1.2h-4.5Z"/>
      <path d="M302.2,520.5v-5.8h1.4v7h-2.7l-1.4-5.8h-.1v5.8h-1.4v-7h2.6l1.5,5.8h.1Z"/>
    </g>
    <g class="st0">
      <path d="M230.3,529.7v-.5c0-1.4.9-1.9,1.9-2.4.9-.5,1.9-.9,1.9-2.3s-.6-1.3-1.5-1.3-1.5.8-1.5,1.5h-.7c0-1.1.7-2.1,2.3-2.1s2.2.8,2.2,1.9c0,1.8-1.2,2.3-2.2,2.8-.8.4-1.5.8-1.5,1.7h3.9v.7h-4.6Z"/>
      <path d="M235.7,526.2c0-2,.6-3.6,2.7-3.6s2.7,1.6,2.7,3.6-.6,3.6-2.7,3.6-2.7-1.6-2.7-3.6ZM240.3,526.2c0-1.6-.4-2.9-1.9-2.9s-1.9,1.4-1.9,2.9.4,2.9,1.9,2.9,1.9-1.3,1.9-2.9Z"/>
      <path d="M242,526.2c0-2,.6-3.6,2.7-3.6s2.7,1.6,2.7,3.6-.6,3.6-2.7,3.6-2.7-1.6-2.7-3.6ZM246.5,526.2c0-1.6-.4-2.9-1.9-2.9s-1.9,1.4-1.9,2.9.4,2.9,1.9,2.9,1.9-1.3,1.9-2.9Z"/>
      <path d="M248,528.4h.7c.2.4.6.8,1.4.8s1.7-.5,1.7-1.3-.3-1.2-1.1-1.3h-1.3v-.6h1.3c.7-.2,1-.8,1-1.3,0-.8-.6-1.3-1.6-1.3s-1.2.4-1.4.9h-.7c.2-.9.9-1.5,2.1-1.5s2.3.8,2.3,1.9c0,.6-.3,1.4-1,1.7.7.2,1.1.9,1.1,1.7,0,1.2-.9,2-2.4,2s-1.9-.5-2.2-1.4Z"/>
      <path d="M256.3,527.5v-.6h3.3v.6h-3.3Z"/>
      <path d="M263.3,529.7v-.5c0-1.4.9-1.9,1.9-2.4.9-.5,1.9-.9,1.9-2.3s-.6-1.3-1.5-1.3-1.5.8-1.5,1.5h-.7c0-1.1.7-2.1,2.3-2.1s2.2.8,2.2,1.9c0,1.8-1.2,2.3-2.2,2.8-.8.4-1.5.8-1.5,1.7h3.9v.7h-4.6Z"/>
      <path d="M268.8,526.2c0-2,.6-3.6,2.7-3.6s2.7,1.6,2.7,3.6-.6,3.6-2.7,3.6-2.7-1.6-2.7-3.6ZM273.4,526.2c0-1.6-.4-2.9-1.9-2.9s-1.9,1.4-1.9,2.9.4,2.9,1.9,2.9,1.9-1.3,1.9-2.9Z"/>
      <path d="M275,526.2c0-2,.6-3.6,2.7-3.6s2.7,1.6,2.7,3.6-.6,3.6-2.7,3.6-2.7-1.6-2.7-3.6ZM279.6,526.2c0-1.6-.4-2.9-1.9-2.9s-1.9,1.4-1.9,2.9.4,2.9,1.9,2.9,1.9-1.3,1.9-2.9Z"/>
      <path d="M281.6,529.7c0-1.4.3-2.7.8-3.9.5-1,1.2-1.9,2.1-2.4h-3.6v-.7h4.5v.6c-1,.6-1.7,1.6-2.3,2.7-.5,1.1-.8,2.4-.8,3.7h-.8Z"/>
    </g>
  </g>
  <g class="st0">
    <g class="st0">
      <path d="M319.7,474v1.2l-3.2,4.5h3.2v1.2h-4.9v-1.2l3.2-4.5h-2.7v-1.2h4.4Z"/>
      <path d="M327.2,479.8l1.1-5.8h1.4l-1.3,7h-2.2l-1.1-5.8h-.2l-1.1,5.8h-2.2l-1.4-7h1.4l1.1,5.8h.1l1.1-5.8h2.3l1.1,5.8h.1Z"/>
      <path d="M330.4,481v-7h1.4v7h-1.4Z"/>
      <path d="M335.6,481.1c-1.5,0-2.9-.7-2.8-2.4h1.4c0,.6.4,1.2,1.3,1.2.7,0,1.2-.2,1.2-.8s-.9-.8-1.8-1.3c-1-.4-2-1-2-2.1s1.2-1.9,2.6-1.9,2.7.6,2.6,2.3h-1.4c0-.5-.2-1-1.1-1-.7,0-1.2.3-1.2.7s.7.8,1.6,1.1c1,.4,2.3,1,2.3,2.2s-1.1,1.9-2.6,1.9Z"/>
      <path d="M338.9,477.5c0-2.1,1.1-3.6,3.3-3.6s2.9.8,3.2,2.4h-1.5c-.2-.8-.9-1.2-1.7-1.2-1.4,0-1.9,1.1-1.9,2.4s.7,2.4,1.9,2.4,1.6-.7,1.8-1.6h1.4c-.2,1.7-1.3,2.8-3.2,2.8s-3.3-1.5-3.3-3.6Z"/>
      <path d="M346.4,481v-7h1.4v2.5h3.1v-2.5h1.4v7h-1.4v-3.2h-3.1v3.2h-1.4Z"/>
      <path d="M353.6,481v-7h4.5v1.2h-3.1v1.5h2.9v1.2h-2.9v1.8h3.1v1.2h-4.5Z"/>
      <path d="M363.4,479.8v-5.8h1.4v7h-2.7l-1.4-5.8h-.1v5.8h-1.4v-7h2.6l1.5,5.8h.1Z"/>
      <path d="M366.1,481v-7h2.8c1.5,0,2.3.9,2.3,2.2s-.8,2.2-2.3,2.2h-1.4v2.6h-1.4ZM367.5,477.2h1.3c.8,0,1.1-.4,1.1-1s-.3-1-1.1-1h-1.3v1.9Z"/>
      <path d="M377.7,481h-1.5c-.5-.5-.4-2.6-1.7-2.6h-1v2.6h-1.4v-7h2.8c1.6,0,2.3,1,2.3,2.2s-.4,1.5-1,1.8c.9.4.9,2.4,1.4,3.1ZM373.5,475.2v1.9h1.3c.8,0,1.1-.4,1.1-1s-.3-1-1.1-1h-1.3Z"/>
      <path d="M382.2,474h1.4v4.5c0,1.6-.8,2.7-2.7,2.7s-2.6-1-2.6-2.7v-4.5h1.4v4.7c0,.8.5,1.2,1.2,1.2s1.2-.4,1.2-1.2v-4.7ZM379.2,473.1c0-.4.3-.6.6-.6s.6.3.6.6-.3.6-.6.6-.6-.3-.6-.6ZM381.2,473.1c0-.4.3-.6.6-.6s.6.3.6.6-.3.6-.6.6-.6-.3-.6-.6Z"/>
      <path d="M384.8,481v-7h4.4v1.2h-3v1.5h2.7v1.2h-2.7v3h-1.4Z"/>
      <path d="M393.9,474h1.4v4.5c0,1.6-.8,2.7-2.7,2.7s-2.6-1-2.6-2.7v-4.5h1.4v4.7c0,.8.5,1.2,1.2,1.2s1.2-.4,1.2-1.2v-4.7Z"/>
      <path d="M400.8,479.8v-5.8h1.4v7h-2.7l-1.4-5.8h-.1v5.8h-1.4v-7h2.6l1.5,5.8h.1Z"/>
      <path d="M403.1,477.5c0-2.1,1.1-3.6,3.3-3.6s2.9.8,3.1,2.5h-1.5c-.1-.8-.8-1.2-1.6-1.2-1.4,0-1.9,1.1-1.9,2.4s.7,2.4,1.9,2.4,1.7-.5,1.8-1.4h-1.6v-1.1h3c0,2.3-.9,3.7-3.2,3.7s-3.3-1.5-3.3-3.6Z"/>
    </g>
    <g class="st0">
      <path d="M315,489v-.5c0-1.4.9-1.9,1.9-2.4.9-.5,1.9-.9,1.9-2.3s-.6-1.3-1.5-1.3-1.5.8-1.5,1.5h-.7c0-1.1.7-2.1,2.3-2.1s2.2.8,2.2,1.9c0,1.8-1.2,2.3-2.2,2.8-.8.4-1.5.8-1.5,1.7h3.9v.7h-4.6Z"/>
      <path d="M320.4,485.5c0-2,.6-3.6,2.7-3.6s2.7,1.6,2.7,3.6-.6,3.6-2.7,3.6-2.7-1.6-2.7-3.6ZM325,485.5c0-1.6-.4-2.9-1.9-2.9s-1.9,1.4-1.9,2.9.4,2.9,1.9,2.9,1.9-1.3,1.9-2.9Z"/>
      <path d="M326.7,485.5c0-2,.6-3.6,2.7-3.6s2.7,1.6,2.7,3.6-.6,3.6-2.7,3.6-2.7-1.6-2.7-3.6ZM331.2,485.5c0-1.6-.4-2.9-1.9-2.9s-1.9,1.4-1.9,2.9.4,2.9,1.9,2.9,1.9-1.3,1.9-2.9Z"/>
      <path d="M332.8,487.9h.7c.4.3.9.6,1.6.6,1.2,0,1.8-.5,1.8-1.5s-.4-1.6-1.7-1.7c-.5,0-.9.2-1.2.4h-.8l.5-3.7h3.6v.7h-3l-.3,2.3c.3-.1.8-.3,1.4-.3,1.7,0,2.3,1.1,2.3,2.3s-1,2.1-2.5,2.1-1.9-.4-2.4-1.2Z"/>
    </g>
  </g>
  <g class="st0">
    <g class="st0">
      <path d="M141.6,562.5l2.6-7.7h3.2l2.6,7.7h-1.9l-.8-1.9h-3.1l-.7,1.9h-1.9ZM144.6,559.3h2.4l-1.1-3.3h-.3l-1.1,3.3Z"/>
      <path d="M158.3,560.3c0,1.5-1.1,2.2-2.8,2.2h-4.6v-7.7h4.3c1.9,0,2.5.9,2.5,2s-.5,1.4-1.1,1.6c.8.1,1.6.7,1.6,1.9ZM152.8,556.1v1.6h1.8c.9,0,1.3-.3,1.3-.8s-.4-.8-1.3-.8h-1.8ZM155.2,561.1c.9,0,1.2-.5,1.2-1s-.3-1-1.2-1h-2.4v2h2.4Z"/>
      <path d="M159.6,562.5v-7.7h1.9v7.7h-1.9Z"/>
    </g>
    <g class="st0">
      <path d="M142.1,571.8v-.6c0-1.6,1.3-2.1,2.5-2.6,1.2-.5,2.5-1,2.5-2.5s-.8-1.4-1.9-1.4-2,.8-2,1.7h-1c0-1.3,1-2.4,3-2.4s2.9.9,2.9,2.1c0,2-1.6,2.6-2.9,3.1-1.1.4-2,.8-2,1.9h5.1v.7h-6.1Z"/>
      <path d="M149.3,568c0-2.2.8-4,3.5-4s3.5,1.8,3.5,4-.8,4-3.5,4-3.5-1.8-3.5-4ZM155.3,568c0-1.7-.5-3.2-2.5-3.2s-2.5,1.5-2.5,3.2.5,3.2,2.5,3.2,2.5-1.5,2.5-3.2Z"/>
      <path d="M157.5,568c0-2.2.8-4,3.5-4s3.5,1.8,3.5,4-.8,4-3.5,4-3.5-1.8-3.5-4ZM163.6,568c0-1.7-.5-3.2-2.5-3.2s-2.5,1.5-2.5,3.2.5,3.2,2.5,3.2,2.5-1.5,2.5-3.2Z"/>
      <path d="M165.5,570.4h1c.3.5.8.8,1.9.8s2.2-.5,2.2-1.5-.4-1.3-1.4-1.5h-1.7v-.7h1.7c1-.2,1.3-.8,1.3-1.5,0-.9-.7-1.4-2.1-1.4s-1.6.4-1.8,1h-1c.3-1,1.2-1.7,2.8-1.7s3.1.8,3.1,2.1c0,.7-.4,1.6-1.3,1.8.9.2,1.5,1,1.5,1.9,0,1.4-1.3,2.2-3.2,2.2s-2.5-.6-2.9-1.6Z"/>
    </g>
  </g>
  <g class="st0">
    <g class="st0">
      <path d="M407.7,440.5l2-7h2.4l2,7h-1.4l-.6-1.7h-2.4l-.6,1.7h-1.4ZM410,437.6h1.8l-.8-3h-.2l-.8,3Z"/>
      <path d="M418.4,433.5h1.4v4.5c0,1.6-.8,2.7-2.7,2.7s-2.6-1-2.6-2.7v-4.5h1.4v4.7c0,.8.5,1.2,1.2,1.2s1.2-.4,1.2-1.2v-4.7Z"/>
      <path d="M423.6,440.6c-1.5,0-2.9-.7-2.8-2.4h1.4c0,.6.4,1.2,1.3,1.2.7,0,1.2-.2,1.2-.8s-.9-.8-1.8-1.3c-1-.4-2-1-2-2.1s1.2-1.9,2.6-1.9,2.7.6,2.6,2.3h-1.4c0-.5-.2-1-1.1-1-.7,0-1.2.3-1.2.7s.7.8,1.6,1.1c1,.4,2.3,1,2.3,2.2s-1.1,1.9-2.6,1.9Z"/>
      <path d="M428.6,439.3h2.6v1.2h-4v-7h1.4v5.8Z"/>
      <path d="M431.4,440.5l2-7h2.4l2,7h-1.4l-.6-1.7h-2.4l-.6,1.7h-1.4ZM433.7,437.6h1.8l-.8-3h-.2l-.8,3Z"/>
      <path d="M442.8,439.3v-5.8h1.4v7h-2.7l-1.4-5.8h-.1v5.8h-1.4v-7h2.6l1.5,5.8h.1Z"/>
      <path d="M445.5,440.5v-7h2.9c2.3,0,3.2,1.1,3.2,3.5s-.9,3.5-3.2,3.5h-2.9ZM446.9,439.3h1.3c1.5,0,1.9-1,1.9-2.3s-.4-2.3-1.9-2.3h-1.3v4.5Z"/>
      <path d="M455.1,440.6c-1.5,0-2.9-.7-2.8-2.4h1.4c0,.6.4,1.2,1.3,1.2.7,0,1.2-.2,1.2-.8s-.9-.8-1.8-1.3c-1-.4-2-1-2-2.1s1.2-1.9,2.6-1.9,2.7.6,2.6,2.3h-1.4c0-.5-.2-1-1.1-1-.7,0-1.2.3-1.2.7s.7.8,1.6,1.1c1,.4,2.3,1,2.3,2.2s-1.1,1.9-2.6,1.9Z"/>
      <path d="M461.2,440.6c-1.5,0-2.9-.7-2.8-2.4h1.4c0,.6.4,1.2,1.3,1.2.7,0,1.2-.2,1.2-.8s-.9-.8-1.8-1.3c-1-.4-2-1-2-2.1s1.2-1.9,2.6-1.9,2.7.6,2.6,2.3h-1.4c0-.5-.2-1-1.1-1-.7,0-1.2.3-1.2.7s.7.8,1.6,1.1c1,.4,2.3,1,2.3,2.2s-1.1,1.9-2.6,1.9Z"/>
      <path d="M468.5,433.5v1.2h-1.6v5.8h-1.4v-5.8h-1.6v-1.2h4.6Z"/>
      <path d="M473.1,433.5h1.4v4.5c0,1.6-.8,2.7-2.7,2.7s-2.6-1-2.6-2.7v-4.5h1.4v4.7c0,.8.5,1.2,1.2,1.2s1.2-.4,1.2-1.2v-4.7Z"/>
      <path d="M475.7,440.5v-7h2.9c2.3,0,3.2,1.1,3.2,3.5s-.9,3.5-3.2,3.5h-2.9ZM477.2,439.3h1.3c1.5,0,1.9-1,1.9-2.3s-.4-2.3-1.9-2.3h-1.3v4.5Z"/>
      <path d="M482.8,440.5v-7h1.4v7h-1.4Z"/>
      <path d="M489.3,433.5h1.4v4.5c0,1.6-.8,2.7-2.7,2.7s-2.6-1-2.6-2.7v-4.5h1.4v4.7c0,.8.5,1.2,1.2,1.2s1.2-.4,1.2-1.2v-4.7Z"/>
      <path d="M495.9,439.3l1.4-5.8h2.5v7h-1.4v-5.8h0l-1.4,5.8h-2.1l-1.4-5.8h0v5.8h-1.4v-7h2.5l1.4,5.8h.1Z"/>
      <path d="M500.9,439.2h1.2v1.1c0,.7-.7,1.3-.9,1.5l-.3-.3c.2-.1.5-.5.5-1h-.5v-1.3Z"/>
    </g>
    <g class="st0">
      <path d="M412.8,444.5v1.2l-3.2,4.5h3.2v1.2h-4.9v-1.2l3.2-4.5h-2.7v-1.2h4.4Z"/>
      <path d="M413.7,451.5v-7h1.4v2.5h3.1v-2.5h1.4v7h-1.4v-3.2h-3.1v3.2h-1.4Z"/>
      <path d="M421,451.5v-7h4.5v1.2h-3.1v1.5h2.9v1.2h-2.9v1.8h3.1v1.2h-4.5Z"/>
      <path d="M425.9,451.6v-1.2h.8c.4,0,.6-.2.6-1v-4.9h1.4v5.2c0,1.2-.6,1.9-1.7,1.9h-1.2Z"/>
      <path d="M430,451.5v-7h1.4v7h-1.4Z"/>
      <path d="M432,451.5l2-7h2.4l2,7h-1.4l-.6-1.7h-2.4l-.6,1.7h-1.4ZM434.3,448.6h1.8l-.8-3h-.2l-.8,3Z"/>
      <path d="M443.4,450.3v-5.8h1.4v7h-2.7l-1.4-5.8h-.1v5.8h-1.4v-7h2.6l1.5,5.8h.1Z"/>
      <path d="M445.7,448c0-2.1,1.1-3.6,3.3-3.6s2.9.8,3.1,2.5h-1.5c-.1-.8-.8-1.2-1.6-1.2-1.4,0-1.9,1.1-1.9,2.4s.7,2.4,1.9,2.4,1.7-.5,1.8-1.4h-1.6v-1.1h3c0,2.3-.9,3.7-3.2,3.7s-3.3-1.5-3.3-3.6Z"/>
      <path d="M460,444.5h1.4v4.5c0,1.6-.8,2.7-2.7,2.7s-2.6-1-2.6-2.7v-4.5h1.4v4.7c0,.8.5,1.2,1.2,1.2s1.2-.4,1.2-1.2v-4.7Z"/>
      <path d="M466.9,450.3v-5.8h1.4v7h-2.7l-1.4-5.8h-.1v5.8h-1.4v-7h2.6l1.5,5.8h.1Z"/>
      <path d="M469.7,451.5v-7h1.4v7h-1.4Z"/>
      <path d="M474.8,450.3l1.7-5.8h1.5l-2.1,7h-2.1l-2.1-7h1.5l1.7,5.8Z"/>
      <path d="M478.6,451.5v-7h4.5v1.2h-3.1v1.5h2.9v1.2h-2.9v1.8h3.1v1.2h-4.5Z"/>
      <path d="M489.7,451.5h-1.5c-.5-.5-.4-2.6-1.7-2.6h-1v2.6h-1.4v-7h2.8c1.6,0,2.3,1,2.3,2.2s-.4,1.5-1,1.8c.9.4.9,2.4,1.4,3.1ZM485.5,445.7v1.9h1.3c.8,0,1.1-.4,1.1-1s-.3-1-1.1-1h-1.3Z"/>
      <path d="M492.8,451.6c-1.5,0-2.9-.7-2.8-2.4h1.4c0,.6.4,1.2,1.3,1.2.7,0,1.2-.2,1.2-.8s-.9-.8-1.8-1.3c-1-.4-2-1-2-2.1s1.2-1.9,2.6-1.9,2.7.6,2.6,2.3h-1.4c0-.5-.2-1-1.1-1-.7,0-1.2.3-1.2.7s.7.8,1.6,1.1c1,.4,2.3,1,2.3,2.2s-1.1,1.9-2.6,1.9Z"/>
      <path d="M496.4,451.5v-7h1.4v7h-1.4Z"/>
      <path d="M503.2,444.5v1.2h-1.6v5.8h-1.4v-5.8h-1.6v-1.2h4.6Z"/>
      <path d="M502.9,451.5l2-7h2.4l2,7h-1.4l-.6-1.7h-2.4l-.6,1.7h-1.4ZM504.5,443.5c0-.4.3-.6.6-.6s.6.3.6.6-.3.6-.6.6-.6-.3-.6-.6ZM505.2,448.6h1.8l-.8-3h-.2l-.8,3ZM506.4,443.5c0-.4.3-.6.6-.6s.6.3.6.6-.3.6-.6.6-.6-.3-.6-.6Z"/>
      <path d="M513.3,444.5v1.2h-1.6v5.8h-1.4v-5.8h-1.6v-1.2h4.6Z"/>
      <path d="M513.1,450.2h1.2v1.1c0,.7-.7,1.3-.9,1.5l-.3-.3c.2-.1.5-.5.5-1h-.5v-1.3Z"/>
      <path d="M520.2,450.3l1.7-5.8h1.5l-2.1,7h-2.1l-2.1-7h1.5l1.7,5.8Z"/>
      <path d="M529.5,451.5h-1.5c-.5-.5-.4-2.6-1.7-2.6h-1v2.6h-1.4v-7h2.8c1.6,0,2.3,1,2.3,2.2s-.4,1.5-1,1.8c.9.4.9,2.4,1.4,3.1ZM525.3,445.7v1.9h1.3c.8,0,1.1-.4,1.1-1s-.3-1-1.1-1h-1.3Z"/>
      <path d="M532.6,448c0-2.1,1.1-3.6,3.3-3.6s2.9.8,3.2,2.4h-1.5c-.2-.8-.9-1.2-1.7-1.2-1.4,0-1.9,1.1-1.9,2.4s.7,2.4,1.9,2.4,1.6-.7,1.8-1.6h1.4c-.2,1.7-1.3,2.8-3.2,2.8s-3.3-1.5-3.3-3.6Z"/>
      <path d="M540.1,451.5v-7h1.4v2.5h3.1v-2.5h1.4v7h-1.4v-3.2h-3.1v3.2h-1.4Z"/>
      <path d="M547.3,451.5v-7h1.4v7h-1.4Z"/>
      <path d="M554.3,450.3v-5.8h1.4v7h-2.7l-1.4-5.8h-.1v5.8h-1.4v-7h2.6l1.5,5.8h.1Z"/>
      <path d="M556.3,451.5l2-7h2.4l2,7h-1.4l-.6-1.7h-2.4l-.6,1.7h-1.4ZM558.6,448.6h1.8l-.8-3h-.2l-.8,3Z"/>
    </g>
    <g class="st0">
      <path d="M408.1,462.5v-.5c0-1.4.9-1.9,1.9-2.4.9-.5,1.9-.9,1.9-2.3s-.6-1.3-1.5-1.3-1.5.8-1.5,1.5h-.7c0-1.1.7-2.1,2.3-2.1s2.2.8,2.2,1.9c0,1.8-1.2,2.3-2.2,2.8-.8.4-1.5.8-1.5,1.7h3.9v.7h-4.6Z"/>
      <path d="M413.5,459c0-2,.6-3.6,2.7-3.6s2.7,1.6,2.7,3.6-.6,3.6-2.7,3.6-2.7-1.6-2.7-3.6ZM418.1,459c0-1.6-.4-2.9-1.9-2.9s-1.9,1.4-1.9,2.9.4,2.9,1.9,2.9,1.9-1.3,1.9-2.9Z"/>
      <path d="M419.8,459c0-2,.6-3.6,2.7-3.6s2.7,1.6,2.7,3.6-.6,3.6-2.7,3.6-2.7-1.6-2.7-3.6ZM424.3,459c0-1.6-.4-2.9-1.9-2.9s-1.9,1.4-1.9,2.9.4,2.9,1.9,2.9,1.9-1.3,1.9-2.9Z"/>
      <path d="M431,460.3c0,1.3-.9,2.3-2.5,2.3s-2.5-1.1-2.5-2.7c-.1-2.7.5-4.5,2.5-4.5s2.2.6,2.2,1.9h-.8c0-1.1-.7-1.2-1.4-1.2-1.5,0-1.8,1.6-1.8,3.1.3-.7,1-1.1,1.8-1.1,1.5,0,2.4,1,2.4,2.3ZM430.3,460.3c0-.9-.6-1.6-1.7-1.6s-1.7.7-1.7,1.6.6,1.6,1.7,1.6,1.7-.7,1.7-1.6Z"/>
      <path d="M434.7,460.3v-.6h3.3v.6h-3.3Z"/>
      <path d="M441.7,462.5v-.5c0-1.4.9-1.9,1.9-2.4.9-.5,1.9-.9,1.9-2.3s-.6-1.3-1.5-1.3-1.5.8-1.5,1.5h-.7c0-1.1.7-2.1,2.3-2.1s2.2.8,2.2,1.9c0,1.8-1.2,2.3-2.2,2.8-.8.4-1.5.8-1.5,1.7h3.9v.7h-4.6Z"/>
      <path d="M447.2,459c0-2,.6-3.6,2.7-3.6s2.7,1.6,2.7,3.6-.6,3.6-2.7,3.6-2.7-1.6-2.7-3.6ZM451.8,459c0-1.6-.4-2.9-1.9-2.9s-1.9,1.4-1.9,2.9.4,2.9,1.9,2.9,1.9-1.3,1.9-2.9Z"/>
      <path d="M453.5,459c0-2,.6-3.6,2.7-3.6s2.7,1.6,2.7,3.6-.6,3.6-2.7,3.6-2.7-1.6-2.7-3.6ZM458,459c0-1.6-.4-2.9-1.9-2.9s-1.9,1.4-1.9,2.9.4,2.9,1.9,2.9,1.9-1.3,1.9-2.9Z"/>
      <path d="M460,462.5c0-1.4.3-2.7.8-3.9.5-1,1.2-1.9,2.1-2.4h-3.6v-.7h4.5v.6c-1,.6-1.7,1.6-2.3,2.7-.5,1.1-.8,2.4-.8,3.7h-.8Z"/>
    </g>
  </g>
  <g class="st0">
    <g class="st0">
      <path d="M383.4,334.1v-1.2h.8c.4,0,.6-.2.6-1v-4.9h1.4v5.2c0,1.2-.6,1.9-1.7,1.9h-1.2Z"/>
      <path d="M391.3,327h1.4v4.5c0,1.6-.8,2.7-2.7,2.7s-2.6-1-2.6-2.7v-4.5h1.4v4.7c0,.8.5,1.2,1.2,1.2s1.2-.4,1.2-1.2v-4.7Z"/>
      <path d="M398.2,332.8v-5.8h1.4v7h-2.7l-1.4-5.8h-.1v5.8h-1.4v-7h2.6l1.5,5.8h.1Z"/>
      <path d="M401,334v-7h1.4v7h-1.4Z"/>
      <path d="M403.3,330.5c0-2.1,1.1-3.6,3.3-3.6s3.3,1.5,3.3,3.6-1.1,3.6-3.3,3.6-3.3-1.5-3.3-3.6ZM408.5,330.5c0-1.3-.5-2.4-1.9-2.4s-1.9,1.1-1.9,2.4.7,2.4,1.9,2.4,1.9-1.2,1.9-2.4Z"/>
      <path d="M416.5,334h-1.5c-.5-.5-.4-2.6-1.7-2.6h-1v2.6h-1.4v-7h2.8c1.6,0,2.3,1,2.3,2.2s-.4,1.5-1,1.8c.9.4.9,2.4,1.4,3.1ZM412.3,328.2v1.9h1.3c.8,0,1.1-.4,1.1-1s-.3-1-1.1-1h-1.3Z"/>
      <path d="M419.9,334v-7h2.8c1.5,0,2.3.9,2.3,2.2s-.8,2.2-2.3,2.2h-1.4v2.6h-1.4ZM421.3,330.2h1.3c.8,0,1.1-.4,1.1-1s-.3-1-1.1-1h-1.3v1.9Z"/>
      <path d="M431.5,334h-1.5c-.5-.5-.4-2.6-1.7-2.6h-1v2.6h-1.4v-7h2.8c1.6,0,2.3,1,2.3,2.2s-.4,1.5-1,1.8c.9.4.9,2.4,1.4,3.1ZM427.3,328.2v1.9h1.3c.8,0,1.1-.4,1.1-1s-.3-1-1.1-1h-1.3Z"/>
      <path d="M431.8,330.5c0-2.1,1.1-3.6,3.3-3.6s3.3,1.5,3.3,3.6-1.1,3.6-3.3,3.6-3.3-1.5-3.3-3.6ZM437,330.5c0-1.3-.5-2.4-1.9-2.4s-1.9,1.1-1.9,2.4.7,2.4,1.9,2.4,1.9-1.2,1.9-2.4Z"/>
      <path d="M438.8,334.1v-1.2h.8c.4,0,.6-.2.6-1v-4.9h1.4v5.2c0,1.2-.6,1.9-1.7,1.9h-1.2Z"/>
      <path d="M442.9,334v-7h4.5v1.2h-3.1v1.5h2.9v1.2h-2.9v1.8h3.1v1.2h-4.5Z"/>
      <path d="M448,330.5c0-2.1,1.1-3.6,3.3-3.6s2.9.8,3.2,2.4h-1.5c-.2-.8-.9-1.2-1.7-1.2-1.4,0-1.9,1.1-1.9,2.4s.7,2.4,1.9,2.4,1.6-.7,1.8-1.6h1.4c-.2,1.7-1.3,2.8-3.2,2.8s-3.3-1.5-3.3-3.6Z"/>
      <path d="M459.3,327v1.2h-1.6v5.8h-1.4v-5.8h-1.6v-1.2h4.6Z"/>
      <path d="M466.6,332.8l1.4-5.8h2.5v7h-1.4v-5.8h0l-1.4,5.8h-2.1l-1.4-5.8h0v5.8h-1.4v-7h2.5l1.4,5.8h.1Z"/>
      <path d="M471.1,334l2-7h2.4l2,7h-1.4l-.6-1.7h-2.4l-.6,1.7h-1.4ZM473.4,331.1h1.8l-.8-3h-.2l-.8,3Z"/>
      <path d="M482.4,332.8v-5.8h1.4v7h-2.7l-1.4-5.8h-.1v5.8h-1.4v-7h2.6l1.5,5.8h.1Z"/>
      <path d="M484.4,334l2-7h2.4l2,7h-1.4l-.6-1.7h-2.4l-.6,1.7h-1.4ZM486.7,331.1h1.8l-.8-3h-.2l-.8,3Z"/>
      <path d="M490.9,330.5c0-2.1,1.1-3.6,3.3-3.6s2.9.8,3.1,2.5h-1.5c-.1-.8-.8-1.2-1.6-1.2-1.4,0-1.9,1.1-1.9,2.4s.7,2.4,1.9,2.4,1.7-.5,1.8-1.4h-1.6v-1.1h3c0,2.3-.9,3.7-3.2,3.7s-3.3-1.5-3.3-3.6Z"/>
      <path d="M498.6,334v-7h4.5v1.2h-3.1v1.5h2.9v1.2h-2.9v1.8h3.1v1.2h-4.5Z"/>
      <path d="M509.8,334h-1.5c-.5-.5-.4-2.6-1.7-2.6h-1v2.6h-1.4v-7h2.8c1.6,0,2.3,1,2.3,2.2s-.4,1.5-1,1.8c.9.4.9,2.4,1.4,3.1ZM505.6,328.2v1.9h1.3c.8,0,1.1-.4,1.1-1s-.3-1-1.1-1h-1.3Z"/>
    </g>
    <g class="st0">
      <path d="M386,338v1.2h-1.6v5.8h-1.4v-5.8h-1.6v-1.2h4.6Z"/>
      <path d="M386.8,345v-7h1.4v2.5h3.1v-2.5h1.4v7h-1.4v-3.2h-3.1v3.2h-1.4Z"/>
      <path d="M394,345v-7h4.5v1.2h-3.1v1.5h2.9v1.2h-2.9v1.8h3.1v1.2h-4.5Z"/>
      <path d="M406.2,338v1.2h-1.6v5.8h-1.4v-5.8h-1.6v-1.2h4.6Z"/>
      <path d="M406.3,341.5c0-2.1,1.1-3.6,3.3-3.6s3.3,1.5,3.3,3.6-1.1,3.6-3.3,3.6-3.3-1.5-3.3-3.6ZM411.5,341.5c0-1.3-.5-2.4-1.9-2.4s-1.9,1.1-1.9,2.4.7,2.4,1.9,2.4,1.9-1.2,1.9-2.4Z"/>
      <path d="M414.8,345v-2.5l-2.1-4.5h1.6l1.2,3.1h0l1.2-3.1h1.6l-2.1,4.5v2.5h-1.4Z"/>
      <path d="M421.2,341.5c0-2.1,1.1-3.6,3.3-3.6s2.9.8,3.2,2.4h-1.5c-.2-.8-.9-1.2-1.7-1.2-1.4,0-1.9,1.1-1.9,2.4s.7,2.4,1.9,2.4,1.6-.7,1.8-1.6h1.4c-.2,1.7-1.3,2.8-3.2,2.8s-3.3-1.5-3.3-3.6Z"/>
      <path d="M428.2,341.5c0-2.1,1.1-3.6,3.3-3.6s3.3,1.5,3.3,3.6-1.1,3.6-3.3,3.6-3.3-1.5-3.3-3.6ZM433.4,341.5c0-1.3-.5-2.4-1.9-2.4s-1.9,1.1-1.9,2.4.7,2.4,1.9,2.4,1.9-1.2,1.9-2.4Z"/>
      <path d="M439.8,343.8l1.4-5.8h2.5v7h-1.4v-5.8h0l-1.4,5.8h-2.1l-1.4-5.8h0v5.8h-1.4v-7h2.5l1.4,5.8h.1Z"/>
      <path d="M445,345v-7h2.8c1.5,0,2.3.9,2.3,2.2s-.8,2.2-2.3,2.2h-1.4v2.6h-1.4ZM446.4,341.2h1.3c.8,0,1.1-.4,1.1-1s-.3-1-1.1-1h-1.3v1.9Z"/>
      <path d="M449.8,345l2-7h2.4l2,7h-1.4l-.6-1.7h-2.4l-.6,1.7h-1.4ZM452,342.1h1.8l-.8-3h-.2l-.8,3Z"/>
      <path d="M461.1,343.8v-5.8h1.4v7h-2.7l-1.4-5.8h-.1v5.8h-1.4v-7h2.6l1.5,5.8h.1Z"/>
      <path d="M465.1,345v-2.5l-2.1-4.5h1.6l1.2,3.1h0l1.2-3.1h1.6l-2.1,4.5v2.5h-1.4Z"/>
      <path d="M471.8,345v-7h1.4v2.5h3.1v-2.5h1.4v7h-1.4v-3.2h-3.1v3.2h-1.4Z"/>
      <path d="M484.1,345h-1.6l-1.5-3.1h-.6v3.1h-1.4v-7h1.4v2.8h.6l1.3-2.8h1.4l-1.4,3.4,1.8,3.6Z"/>
      <path d="M488.6,343.8h2.6v1.2h-4v-7h1.4v5.8Z"/>
      <path d="M495.7,338v1.2h-1.6v5.8h-1.4v-5.8h-1.6v-1.2h4.6Z"/>
      <path d="M496.5,345v-7h2.9c2.3,0,3.2,1.1,3.2,3.5s-.9,3.5-3.2,3.5h-2.9ZM497.9,343.8h1.3c1.5,0,1.9-1,1.9-2.3s-.4-2.3-1.9-2.3h-1.3v4.5Z"/>
      <path d="M503.1,343.7h1.2v1.1c0,.7-.7,1.3-.9,1.5l-.3-.3c.2-.1.5-.5.5-1h-.5v-1.3Z"/>
    </g>
    <g class="st0">
      <path d="M451.4,356v-7h1.4v2.5h3.1v-2.5h1.4v7h-1.4v-3.2h-3.1v3.2h-1.4Z"/>
      <path d="M458.2,352.5c0-2.1,1.1-3.6,3.3-3.6s3.3,1.5,3.3,3.6-1.1,3.6-3.3,3.6-3.3-1.5-3.3-3.6ZM463.4,352.5c0-1.3-.5-2.4-1.9-2.4s-1.9,1.1-1.9,2.4.7,2.4,1.9,2.4,1.9-1.2,1.9-2.4Z"/>
      <path d="M470.1,354.8v-5.8h1.4v7h-2.7l-1.4-5.8h-.1v5.8h-1.4v-7h2.6l1.5,5.8h.1Z"/>
      <path d="M472.4,352.5c0-2.1,1.1-3.6,3.3-3.6s2.9.8,3.1,2.5h-1.5c-.1-.8-.8-1.2-1.6-1.2-1.4,0-1.9,1.1-1.9,2.4s.7,2.4,1.9,2.4,1.7-.5,1.8-1.4h-1.6v-1.1h3c0,2.3-.9,3.7-3.2,3.7s-3.3-1.5-3.3-3.6Z"/>
      <path d="M488,356h-1.6l-1.5-3.1h-.6v3.1h-1.4v-7h1.4v2.8h.6l1.3-2.8h1.4l-1.4,3.4,1.8,3.6Z"/>
      <path d="M487.8,352.5c0-2.1,1.1-3.6,3.3-3.6s3.3,1.5,3.3,3.6-1.1,3.6-3.3,3.6-3.3-1.5-3.3-3.6ZM493,352.5c0-1.3-.5-2.4-1.9-2.4s-1.9,1.1-1.9,2.4.7,2.4,1.9,2.4,1.9-1.2,1.9-2.4Z"/>
      <path d="M499.7,354.8v-5.8h1.4v7h-2.7l-1.4-5.8h-.1v5.8h-1.4v-7h2.6l1.5,5.8h.1Z"/>
      <path d="M502,352.5c0-2.1,1.1-3.6,3.3-3.6s2.9.8,3.1,2.5h-1.5c-.1-.8-.8-1.2-1.6-1.2-1.4,0-1.9,1.1-1.9,2.4s.7,2.4,1.9,2.4,1.7-.5,1.8-1.4h-1.6v-1.1h3c0,2.3-.9,3.7-3.2,3.7s-3.3-1.5-3.3-3.6Z"/>
    </g>
    <g class="st0">
      <path d="M455.8,367v-.5c0-1.4.9-1.9,1.9-2.4.9-.5,1.9-.9,1.9-2.3s-.6-1.3-1.5-1.3-1.5.8-1.5,1.5h-.7c0-1.1.7-2.1,2.3-2.1s2.2.8,2.2,1.9c0,1.8-1.2,2.3-2.2,2.8-.8.4-1.5.8-1.5,1.7h3.9v.7h-4.6Z"/>
      <path d="M461.2,363.5c0-2,.6-3.6,2.7-3.6s2.7,1.6,2.7,3.6-.6,3.6-2.7,3.6-2.7-1.6-2.7-3.6ZM465.8,363.5c0-1.6-.4-2.9-1.9-2.9s-1.9,1.4-1.9,2.9.4,2.9,1.9,2.9,1.9-1.3,1.9-2.9Z"/>
      <path d="M467.5,363.5c0-2,.6-3.6,2.7-3.6s2.7,1.6,2.7,3.6-.6,3.6-2.7,3.6-2.7-1.6-2.7-3.6ZM472,363.5c0-1.6-.4-2.9-1.9-2.9s-1.9,1.4-1.9,2.9.4,2.9,1.9,2.9,1.9-1.3,1.9-2.9Z"/>
      <path d="M473.7,365.2c0-.9.5-1.5,1.4-1.8-1-.2-1.3-1-1.3-1.6,0-1.1.8-1.8,2.3-1.9,1.5,0,2.3.7,2.3,1.9,0,.9-.5,1.4-1.3,1.6,1.1.3,1.4,1.1,1.4,1.8,0,1.2-.9,1.9-2.4,2-1.5,0-2.4-.8-2.4-2ZM477.7,365.1c0-1.1-.9-1.4-1.7-1.4s-1.7.3-1.7,1.4.6,1.3,1.7,1.3,1.7-.5,1.7-1.3ZM477.6,361.8c0-.8-.5-1.2-1.5-1.2s-1.5.5-1.5,1.2.8,1.3,1.5,1.3,1.5-.3,1.5-1.3Z"/>
      <path d="M482.2,364.8v-.6h3.3v.6h-3.3Z"/>
      <path d="M486.2,367v-.5c0-1.4.9-1.9,1.9-2.4.9-.5,1.9-.9,1.9-2.3s-.6-1.3-1.5-1.3-1.5.8-1.5,1.5h-.7c0-1.1.7-2.1,2.3-2.1s2.2.8,2.2,1.9c0,1.8-1.2,2.3-2.2,2.8-.8.4-1.5.8-1.5,1.7h3.9v.7h-4.6Z"/>
      <path d="M491.7,363.5c0-2,.6-3.6,2.7-3.6s2.7,1.6,2.7,3.6-.6,3.6-2.7,3.6-2.7-1.6-2.7-3.6ZM496.2,363.5c0-1.6-.4-2.9-1.9-2.9s-1.9,1.4-1.9,2.9.4,2.9,1.9,2.9,1.9-1.3,1.9-2.9Z"/>
      <path d="M497.9,363.5c0-2,.6-3.6,2.7-3.6s2.7,1.6,2.7,3.6-.6,3.6-2.7,3.6-2.7-1.6-2.7-3.6ZM502.5,363.5c0-1.6-.4-2.9-1.9-2.9s-1.9,1.4-1.9,2.9.4,2.9,1.9,2.9,1.9-1.3,1.9-2.9Z"/>
      <path d="M504.1,362.2c0-1.3.9-2.3,2.5-2.3s2.5,1.1,2.5,2.7,0,2.5-.4,3.4-1.2,1.2-2.3,1.2-2.2-.9-2.4-1.7h.7c.3.5.8,1,1.6,1s1.4-.3,1.7-.9c.2-.6.2-1.5.2-2.1-.3.7-1,1-1.8,1-1.5,0-2.4-1-2.4-2.3ZM504.9,362.2c0,.9.6,1.6,1.7,1.6s1.7-.7,1.7-1.6-.6-1.6-1.7-1.6-1.7.7-1.7,1.6Z"/>
    </g>
  </g>
  <g class="st0">
    <g class="st0">
      <path d="M559.2,288.4c0-2.5,1.4-4.4,4-4.4s3.5.9,3.8,2.9h-1.8c-.2-1-1.1-1.4-2.1-1.4-1.7,0-2.3,1.4-2.3,2.9s.8,2.9,2.3,2.9,2-.8,2.2-1.9h1.7c-.3,2-1.6,3.4-3.9,3.4s-4-1.9-4-4.4Z"/>
      <path d="M574.9,292.6h-1.8c-.6-.6-.5-3.1-2-3.1h-1.2v3.1h-1.7v-8.4h3.4c1.9,0,2.8,1.2,2.8,2.6s-.4,1.8-1.2,2.1c1.1.5,1,2.9,1.7,3.7ZM569.9,285.7v2.3h1.5c.9,0,1.3-.5,1.3-1.2s-.4-1.2-1.3-1.2h-1.5Z"/>
      <path d="M575.6,292.6v-8.4h5.4v1.5h-3.8v1.9h3.5v1.5h-3.5v2.1h3.8v1.5h-5.4Z"/>
      <path d="M581.5,292.6l2.4-8.4h2.9l2.4,8.4h-1.7l-.7-2.1h-2.9l-.7,2.1h-1.7ZM584.2,289.1h2.2l-1-3.6h-.2l-1,3.6Z"/>
      <path d="M594.1,284.2v1.5h-1.9v6.9h-1.7v-6.9h-1.9v-1.5h5.5Z"/>
      <path d="M595,292.6v-8.4h1.7v8.4h-1.7Z"/>
      <path d="M601.2,291.2l2-7h1.8l-2.5,8.4h-2.6l-2.5-8.4h1.8l2,7Z"/>
      <path d="M605.7,292.6v-8.4h5.4v1.5h-3.8v1.9h3.5v1.5h-3.5v2.1h3.8v1.5h-5.4Z"/>
      <path d="M615.7,292.6v-8.4h3.4c1.8,0,2.8,1,2.8,2.6s-1,2.6-2.8,2.6h-1.7v3.1h-1.7ZM617.4,288h1.5c.9,0,1.3-.5,1.3-1.2s-.4-1.2-1.3-1.2h-1.5v2.3Z"/>
      <path d="M629.6,292.6h-1.8c-.6-.6-.5-3.1-2-3.1h-1.2v3.1h-1.7v-8.4h3.4c1.9,0,2.8,1.2,2.8,2.6s-.4,1.8-1.2,2.1c1.1.5,1,2.9,1.7,3.7ZM624.6,285.7v2.3h1.5c.9,0,1.3-.5,1.3-1.2s-.4-1.2-1.3-1.2h-1.5Z"/>
      <path d="M629.9,288.4c0-2.5,1.4-4.4,4-4.4s4,1.9,4,4.4-1.4,4.4-4,4.4-4-1.9-4-4.4ZM636.2,288.4c0-1.5-.6-2.9-2.3-2.9s-2.3,1.4-2.3,2.9.8,2.9,2.3,2.9,2.3-1.4,2.3-2.9Z"/>
      <path d="M638.4,292.8v-1.5h1c.5,0,.7-.2.7-1.2v-5.9h1.7v6.2c0,1.5-.7,2.3-2,2.3h-1.4Z"/>
      <path d="M643.3,292.6v-8.4h5.4v1.5h-3.8v1.9h3.5v1.5h-3.5v2.1h3.8v1.5h-5.4Z"/>
      <path d="M649.4,288.4c0-2.5,1.4-4.4,4-4.4s3.5.9,3.8,2.9h-1.8c-.2-1-1.1-1.4-2.1-1.4-1.7,0-2.3,1.4-2.3,2.9s.8,2.9,2.3,2.9,2-.8,2.2-1.9h1.7c-.3,2-1.6,3.4-3.9,3.4s-4-1.9-4-4.4Z"/>
      <path d="M662.9,284.2v1.5h-1.9v6.9h-1.7v-6.9h-1.9v-1.5h5.5Z"/>
      <path d="M671.7,291.1l1.7-6.9h3v8.4h-1.7v-6.9h0l-1.7,6.9h-2.6l-1.7-6.9h0v6.9h-1.7v-8.4h3l1.7,6.9h.1Z"/>
      <path d="M677.1,292.6l2.4-8.4h2.9l2.4,8.4h-1.7l-.7-2.1h-2.9l-.7,2.1h-1.7ZM679.9,289.1h2.2l-1-3.6h-.2l-1,3.6Z"/>
      <path d="M690.7,291.1v-6.9h1.7v8.4h-3.3l-1.7-6.9h-.1v6.9h-1.7v-8.4h3.2l1.8,6.9h.2Z"/>
      <path d="M693.1,292.6l2.4-8.4h2.9l2.4,8.4h-1.7l-.7-2.1h-2.9l-.7,2.1h-1.7ZM695.9,289.1h2.2l-1-3.6h-.2l-1,3.6Z"/>
      <path d="M700.9,288.4c0-2.5,1.4-4.4,4-4.4s3.5,1,3.8,3h-1.9c-.1-.9-.9-1.5-1.9-1.5-1.7,0-2.3,1.4-2.3,2.9s.9,2.9,2.3,2.9,2-.6,2.1-1.6h-1.9v-1.3h3.7c0,2.7-1.1,4.4-3.9,4.4s-4-1.9-4-4.4Z"/>
      <path d="M710.2,292.6v-8.4h5.4v1.5h-3.8v1.9h3.5v1.5h-3.5v2.1h3.8v1.5h-5.4Z"/>
      <path d="M723.5,292.6h-1.8c-.6-.6-.5-3.1-2-3.1h-1.2v3.1h-1.7v-8.4h3.4c1.9,0,2.8,1.2,2.8,2.6s-.4,1.8-1.2,2.1c1.1.5,1,2.9,1.7,3.7ZM718.5,285.7v2.3h1.5c.9,0,1.3-.5,1.3-1.2s-.4-1.2-1.3-1.2h-1.5Z"/>
    </g>
    <g class="st0">
      <path d="M564.5,295.2v1.5h-1.9v6.9h-1.7v-6.9h-1.9v-1.5h5.5Z"/>
      <path d="M565.5,303.6v-8.4h1.7v3h3.7v-3h1.7v8.4h-1.7v-3.9h-3.7v3.9h-1.7Z"/>
      <path d="M574.2,303.6v-8.4h5.4v1.5h-3.8v1.9h3.5v1.5h-3.5v2.1h3.8v1.5h-5.4Z"/>
      <path d="M588.8,295.2v1.5h-1.9v6.9h-1.7v-6.9h-1.9v-1.5h5.5Z"/>
      <path d="M588.9,299.4c0-2.5,1.4-4.4,4-4.4s4,1.9,4,4.4-1.4,4.4-4,4.4-4-1.9-4-4.4ZM595.1,299.4c0-1.5-.6-2.9-2.3-2.9s-2.3,1.4-2.3,2.9.8,2.9,2.3,2.9,2.3-1.4,2.3-2.9Z"/>
      <path d="M599.2,303.6v-3l-2.5-5.4h1.9l1.4,3.7h0l1.4-3.7h1.9l-2.5,5.4v3h-1.7Z"/>
      <path d="M606.8,299.4c0-2.5,1.4-4.4,4-4.4s3.5.9,3.8,2.9h-1.8c-.2-1-1.1-1.4-2.1-1.4-1.7,0-2.3,1.4-2.3,2.9s.8,2.9,2.3,2.9,2-.8,2.2-1.9h1.7c-.3,2-1.6,3.4-3.9,3.4s-4-1.9-4-4.4Z"/>
      <path d="M615.2,299.4c0-2.5,1.4-4.4,4-4.4s4,1.9,4,4.4-1.4,4.4-4,4.4-4-1.9-4-4.4ZM621.5,299.4c0-1.5-.6-2.9-2.3-2.9s-2.3,1.4-2.3,2.9.8,2.9,2.3,2.9,2.3-1.4,2.3-2.9Z"/>
      <path d="M629.2,302.1l1.7-6.9h3v8.4h-1.7v-6.9h0l-1.7,6.9h-2.6l-1.7-6.9h0v6.9h-1.7v-8.4h3l1.7,6.9h.1Z"/>
      <path d="M635.4,303.6v-8.4h3.4c1.8,0,2.8,1,2.8,2.6s-1,2.6-2.8,2.6h-1.7v3.1h-1.7ZM637.1,299h1.5c.9,0,1.3-.5,1.3-1.2s-.4-1.2-1.3-1.2h-1.5v2.3Z"/>
      <path d="M641.1,303.6l2.4-8.4h2.9l2.4,8.4h-1.7l-.7-2.1h-2.9l-.7,2.1h-1.7ZM643.8,300.1h2.2l-1-3.6h-.2l-1,3.6Z"/>
      <path d="M654.7,302.1v-6.9h1.7v8.4h-3.3l-1.7-6.9h-.1v6.9h-1.7v-8.4h3.2l1.8,6.9h.2Z"/>
      <path d="M659.5,303.6v-3l-2.5-5.4h1.9l1.4,3.7h0l1.4-3.7h1.9l-2.5,5.4v3h-1.7Z"/>
      <path d="M667.5,303.6v-8.4h1.7v3h3.7v-3h1.7v8.4h-1.7v-3.9h-3.7v3.9h-1.7Z"/>
      <path d="M682.3,303.6h-1.9l-1.8-3.7h-.7v3.7h-1.7v-8.4h1.7v3.3h.7l1.5-3.3h1.7l-1.7,4,2.1,4.4Z"/>
      <path d="M687.7,302.1h3.1v1.5h-4.8v-8.4h1.7v6.9Z"/>
      <path d="M696.2,295.2v1.5h-1.9v6.9h-1.7v-6.9h-1.9v-1.5h5.5Z"/>
      <path d="M697.2,303.6v-8.4h3.5c2.7,0,3.8,1.3,3.8,4.2s-1.1,4.2-3.8,4.2h-3.5ZM698.9,302.1h1.6c1.8,0,2.3-1.2,2.3-2.7s-.5-2.7-2.3-2.7h-1.6v5.5Z"/>
      <path d="M705.1,302h1.5v1.4c0,.9-.8,1.6-1.1,1.8l-.3-.3c.2-.2.6-.7.6-1.2h-.6v-1.6Z"/>
    </g>
    <g class="st0">
      <path d="M559.6,314.6v-8.4h1.7v3h3.7v-3h1.7v8.4h-1.7v-3.9h-3.7v3.9h-1.7Z"/>
      <path d="M567.8,310.4c0-2.5,1.4-4.4,4-4.4s4,1.9,4,4.4-1.4,4.4-4,4.4-4-1.9-4-4.4ZM574.1,310.4c0-1.5-.6-2.9-2.3-2.9s-2.3,1.4-2.3,2.9.8,2.9,2.3,2.9,2.3-1.4,2.3-2.9Z"/>
      <path d="M582.1,313.1v-6.9h1.7v8.4h-3.3l-1.7-6.9h-.1v6.9h-1.7v-8.4h3.2l1.8,6.9h.2Z"/>
      <path d="M584.9,310.4c0-2.5,1.4-4.4,4-4.4s3.5,1,3.8,3h-1.9c-.1-.9-.9-1.5-1.9-1.5-1.7,0-2.3,1.4-2.3,2.9s.9,2.9,2.3,2.9,2-.6,2.1-1.6h-1.9v-1.3h3.7c0,2.7-1.1,4.4-3.9,4.4s-4-1.9-4-4.4Z"/>
      <path d="M603.6,314.6h-1.9l-1.8-3.7h-.7v3.7h-1.7v-8.4h1.7v3.3h.7l1.5-3.3h1.7l-1.7,4,2.1,4.4Z"/>
      <path d="M603.3,310.4c0-2.5,1.4-4.4,4-4.4s4,1.9,4,4.4-1.4,4.4-4,4.4-4-1.9-4-4.4ZM609.6,310.4c0-1.5-.6-2.9-2.3-2.9s-2.3,1.4-2.3,2.9.8,2.9,2.3,2.9,2.3-1.4,2.3-2.9Z"/>
      <path d="M617.6,313.1v-6.9h1.7v8.4h-3.3l-1.7-6.9h-.1v6.9h-1.7v-8.4h3.2l1.8,6.9h.2Z"/>
      <path d="M620.4,310.4c0-2.5,1.4-4.4,4-4.4s3.5,1,3.8,3h-1.9c-.1-.9-.9-1.5-1.9-1.5-1.7,0-2.3,1.4-2.3,2.9s.9,2.9,2.3,2.9,2-.6,2.1-1.6h-1.9v-1.3h3.7c0,2.7-1.1,4.4-3.9,4.4s-4-1.9-4-4.4Z"/>
    </g>
    <g class="st0">
      <path d="M559.2,325.6v-.7c0-1.7,1.1-2.3,2.3-2.8,1.1-.6,2.3-1.1,2.3-2.7s-.7-1.6-1.8-1.6-1.8.9-1.8,1.8h-.9c0-1.4.9-2.6,2.7-2.6s2.6,1,2.6,2.3c0,2.2-1.4,2.8-2.7,3.4-1,.5-1.8.9-1.8,2.1h4.6v.8h-5.6Z"/>
      <path d="M565.8,321.4c0-2.4.7-4.3,3.2-4.3s3.2,2,3.2,4.3-.7,4.3-3.2,4.3-3.2-1.9-3.2-4.3ZM571.3,321.4c0-1.9-.5-3.5-2.3-3.5s-2.3,1.7-2.3,3.5.5,3.5,2.3,3.5,2.3-1.6,2.3-3.5Z"/>
      <path d="M573.3,321.4c0-2.4.7-4.3,3.2-4.3s3.2,2,3.2,4.3-.7,4.3-3.2,4.3-3.2-1.9-3.2-4.3ZM578.8,321.4c0-1.9-.5-3.5-2.3-3.5s-2.3,1.7-2.3,3.5.5,3.5,2.3,3.5,2.3-1.6,2.3-3.5Z"/>
      <path d="M580.8,319.8c0-1.6,1.1-2.8,3-2.8s3,1.3,3,3.2,0,3-.5,4c-.5,1-1.4,1.4-2.7,1.4s-2.6-1.1-2.9-2h.9c.3.7.9,1.2,1.9,1.2s1.7-.4,2-1.1c.3-.7.2-1.8.2-2.6-.4.8-1.2,1.2-2.1,1.2-1.9,0-2.9-1.2-2.9-2.7ZM581.7,319.8c0,1.1.7,2,2.1,2s2.1-.9,2.1-2-.7-2-2.1-2-2.1.9-2.1,2Z"/>
      <path d="M591.3,322.9v-.7h4v.7h-4Z"/>
      <path d="M596.1,325.6v-.7c0-1.7,1.1-2.3,2.3-2.8,1.1-.6,2.3-1.1,2.3-2.7s-.7-1.6-1.8-1.6-1.8.9-1.8,1.8h-.9c0-1.4.9-2.6,2.7-2.6s2.6,1,2.6,2.3c0,2.2-1.4,2.8-2.7,3.4-1,.5-1.8.9-1.8,2.1h4.6v.8h-5.6Z"/>
      <path d="M602.7,321.4c0-2.4.7-4.3,3.2-4.3s3.2,2,3.2,4.3-.7,4.3-3.2,4.3-3.2-1.9-3.2-4.3ZM608.2,321.4c0-1.9-.5-3.5-2.3-3.5s-2.3,1.7-2.3,3.5.5,3.5,2.3,3.5,2.3-1.6,2.3-3.5Z"/>
      <path d="M610.2,321.4c0-2.4.7-4.3,3.2-4.3s3.2,2,3.2,4.3-.7,4.3-3.2,4.3-3.2-1.9-3.2-4.3ZM615.7,321.4c0-1.9-.5-3.5-2.3-3.5s-2.3,1.7-2.3,3.5.5,3.5,2.3,3.5,2.3-1.6,2.3-3.5Z"/>
      <path d="M618.7,325.6v-7.2c-.2.1-.7.3-1.2.3h-.3v-.8h.3c.5,0,1-.3,1.2-.7h.9v8.4h-.9Z"/>
      <path d="M622.2,325.6v-7.2c-.2.1-.7.3-1.2.3h-.3v-.8h.3c.5,0,1-.3,1.2-.7h.9v8.4h-.9Z"/>
    </g>
  </g>
  <g class="st0">
    <g class="st0">
      <path d="M673.1,395.8c0,1.6-1,2.4-2.5,2.4h-4.1v-8.4h3.9c1.8,0,2.3.9,2.3,2.2s-.4,1.5-1,1.8c.7.2,1.4.8,1.4,2.1ZM668.2,391.3v1.8h1.6c.8,0,1.2-.3,1.2-.9s-.4-.9-1.2-.9h-1.6ZM670.4,396.7c.8,0,1.1-.6,1.1-1.1s-.3-1.1-1.1-1.1h-2.2v2.2h2.2Z"/>
      <path d="M673.3,398.2l2.4-8.4h2.9l2.4,8.4h-1.7l-.7-2.1h-2.9l-.7,2.1h-1.7ZM676.1,394.7h2.2l-1-3.6h-.2l-1,3.6Z"/>
      <path d="M681.1,394c0-2.5,1.4-4.4,4-4.4s3.5.9,3.8,2.9h-1.8c-.2-1-1.1-1.4-2.1-1.4-1.7,0-2.3,1.4-2.3,2.9s.8,2.9,2.3,2.9,2-.8,2.2-1.9h1.7c-.3,2-1.6,3.4-3.9,3.4s-4-1.9-4-4.4Z"/>
      <path d="M690.1,398.2v-8.4h1.7v3h3.7v-3h1.7v8.4h-1.7v-3.9h-3.7v3.9h-1.7Z"/>
      <path d="M698.8,398.2v-8.4h5.4v1.5h-3.8v1.9h3.5v1.5h-3.5v2.1h3.8v1.5h-5.4Z"/>
      <path d="M707.1,396.7h3.1v1.5h-4.8v-8.4h1.7v6.9Z"/>
      <path d="M710.3,394c0-2.5,1.4-4.4,4-4.4s4,1.9,4,4.4-1.4,4.4-4,4.4-4-1.9-4-4.4ZM716.6,394c0-1.5-.6-2.9-2.3-2.9s-2.3,1.4-2.3,2.9.8,2.9,2.3,2.9,2.3-1.4,2.3-2.9Z"/>
      <path d="M726.2,398.2h-1.8c-.6-.6-.5-3.1-2-3.1h-1.2v3.1h-1.7v-8.4h3.4c1.9,0,2.8,1.2,2.8,2.6s-.4,1.8-1.2,2.1c1.1.5,1,2.9,1.7,3.7ZM721.1,391.3v2.3h1.5c.9,0,1.3-.5,1.3-1.2s-.4-1.2-1.3-1.2h-1.5Z"/>
      <path d="M733.2,398.4c-1.8,0-3.5-.9-3.4-2.9h1.7c0,.7.5,1.4,1.6,1.4.9,0,1.4-.3,1.4-.9s-1.1-1-2.2-1.5c-1.2-.5-2.4-1.2-2.4-2.5s1.4-2.3,3.1-2.3,3.2.8,3.1,2.7h-1.7c0-.6-.3-1.2-1.3-1.3-.9,0-1.4.3-1.4.9s.9.9,1.9,1.3c1.2.5,2.7,1.2,2.7,2.7s-1.4,2.3-3.1,2.3Z"/>
      <path d="M742.1,389.8v1.5h-1.9v6.9h-1.7v-6.9h-1.9v-1.5h5.5Z"/>
      <path d="M747.5,389.8h1.7v5.4c0,2-1,3.2-3.2,3.2s-3.2-1.2-3.2-3.2v-5.4h1.7v5.6c0,1,.6,1.5,1.5,1.5s1.5-.5,1.5-1.5v-5.6Z"/>
      <path d="M750.7,398.2v-8.4h3.5c2.7,0,3.8,1.3,3.8,4.2s-1.1,4.2-3.8,4.2h-3.5ZM752.4,396.7h1.6c1.8,0,2.3-1.2,2.3-2.7s-.5-2.7-2.3-2.7h-1.6v5.5Z"/>
      <path d="M759.2,398.2v-8.4h1.7v8.4h-1.7Z"/>
      <path d="M767,389.8h1.7v5.4c0,2-1,3.2-3.2,3.2s-3.2-1.2-3.2-3.2v-5.4h1.7v5.6c0,1,.6,1.5,1.5,1.5s1.5-.5,1.5-1.5v-5.6Z"/>
      <path d="M774.9,396.7l1.7-6.9h3v8.4h-1.7v-6.9h0l-1.7,6.9h-2.6l-1.7-6.9h0v6.9h-1.7v-8.4h3l1.7,6.9h.1Z"/>
    </g>
    <g class="st0">
      <path d="M672.6,409.2h-1.9l-1.8-3.7h-.7v3.7h-1.7v-8.4h1.7v3.3h.7l1.5-3.3h1.7l-1.7,4,2.1,4.4Z"/>
      <path d="M672.3,405c0-2.5,1.4-4.4,4-4.4s4,1.9,4,4.4-1.4,4.4-4,4.4-4-1.9-4-4.4ZM678.6,405c0-1.5-.6-2.9-2.3-2.9s-2.3,1.4-2.3,2.9.8,2.9,2.3,2.9,2.3-1.4,2.3-2.9Z"/>
      <path d="M686.3,407.7l1.7-6.9h3v8.4h-1.7v-6.9h0l-1.7,6.9h-2.6l-1.7-6.9h0v6.9h-1.7v-8.4h3l1.7,6.9h.1Z"/>
      <path d="M697.3,407.7l1.7-6.9h3v8.4h-1.7v-6.9h0l-1.7,6.9h-2.6l-1.7-6.9h0v6.9h-1.7v-8.4h3l1.7,6.9h.1Z"/>
      <path d="M708.1,400.8h1.7v5.4c0,2-1,3.2-3.2,3.2s-3.2-1.2-3.2-3.2v-5.4h1.7v5.6c0,1,.6,1.5,1.5,1.5s1.5-.5,1.5-1.5v-5.6Z"/>
      <path d="M716.4,407.7v-6.9h1.7v8.4h-3.3l-1.7-6.9h-.1v6.9h-1.7v-8.4h3.2l1.8,6.9h.2Z"/>
      <path d="M719.7,409.2v-8.4h1.7v8.4h-1.7Z"/>
      <path d="M729,409.2h-1.9l-1.8-3.7h-.7v3.7h-1.7v-8.4h1.7v3.3h.7l1.5-3.3h1.7l-1.7,4,2.1,4.4Z"/>
      <path d="M728.9,409.2l2.4-8.4h2.9l2.4,8.4h-1.7l-.7-2.1h-2.9l-.7,2.1h-1.7ZM731.6,405.7h2.2l-1-3.6h-.2l-1,3.6Z"/>
      <path d="M741.4,400.8v1.5h-1.9v6.9h-1.7v-6.9h-1.9v-1.5h5.5Z"/>
      <path d="M742.4,409.2v-8.4h1.7v8.4h-1.7Z"/>
      <path d="M745.2,405c0-2.5,1.4-4.4,4-4.4s4,1.9,4,4.4-1.4,4.4-4,4.4-4-1.9-4-4.4ZM751.5,405c0-1.5-.6-2.9-2.3-2.9s-2.3,1.4-2.3,2.9.8,2.9,2.3,2.9,2.3-1.4,2.3-2.9Z"/>
      <path d="M759.5,407.7v-6.9h1.7v8.4h-3.3l-1.7-6.9h-.1v6.9h-1.7v-8.4h3.2l1.8,6.9h.2Z"/>
      <path d="M765.7,409.4c-1.8,0-3.5-.9-3.4-2.9h1.7c0,.7.5,1.4,1.6,1.4.9,0,1.4-.3,1.4-.9s-1.1-1-2.2-1.5c-1.2-.5-2.4-1.2-2.4-2.5s1.4-2.3,3.1-2.3,3.2.8,3.1,2.7h-1.7c0-.6-.3-1.2-1.3-1.3-.9,0-1.4.3-1.4.9s.9.9,1.9,1.3c1.2.5,2.7,1.2,2.7,2.7s-1.4,2.3-3.1,2.3Z"/>
      <path d="M770,409.2v-8.4h3.5c2.7,0,3.8,1.3,3.8,4.2s-1.1,4.2-3.8,4.2h-3.5ZM771.7,407.7h1.6c1.8,0,2.3-1.2,2.3-2.7s-.5-2.7-2.3-2.7h-1.6v5.5Z"/>
      <path d="M778.5,409.2v-8.4h5.4v1.5h-3.8v1.9h3.5v1.5h-3.5v2.1h3.8v1.5h-5.4Z"/>
      <path d="M788.1,409.4c-1.8,0-3.5-.9-3.4-2.9h1.7c0,.7.5,1.4,1.6,1.4.9,0,1.4-.3,1.4-.9s-1.1-1-2.2-1.5c-1.2-.5-2.4-1.2-2.4-2.5s1.4-2.3,3.1-2.3,3.2.8,3.1,2.7h-1.7c0-.6-.3-1.2-1.3-1.3-.9,0-1.4.3-1.4.9s.9.9,1.9,1.3c1.2.5,2.7,1.2,2.7,2.7s-1.4,2.3-3.1,2.3Z"/>
      <path d="M792.4,409.2v-8.4h1.7v8.4h-1.7Z"/>
      <path d="M795.2,405c0-2.5,1.4-4.4,4-4.4s3.5,1,3.8,3h-1.9c-.1-.9-.9-1.5-1.9-1.5-1.7,0-2.3,1.4-2.3,2.9s.9,2.9,2.3,2.9,2-.6,2.1-1.6h-1.9v-1.3h3.7c0,2.7-1.1,4.4-3.9,4.4s-4-1.9-4-4.4Z"/>
      <path d="M809.5,407.7v-6.9h1.7v8.4h-3.3l-1.7-6.9h-.1v6.9h-1.7v-8.4h3.2l1.8,6.9h.2Z"/>
    </g>
    <g class="st0">
      <path d="M673.1,417.8c0,1.6-1,2.4-2.5,2.4h-4.1v-8.4h3.9c1.8,0,2.3.9,2.3,2.2s-.4,1.5-1,1.8c.7.2,1.4.8,1.4,2.1ZM668.2,413.3v1.8h1.6c.8,0,1.2-.3,1.2-.9s-.4-.9-1.2-.9h-1.6ZM670.4,418.7c.8,0,1.1-.6,1.1-1.1s-.3-1.1-1.1-1.1h-2.2v2.2h2.2Z"/>
      <path d="M678.9,411.8v1.5h-1.9v6.9h-1.7v-6.9h-1.9v-1.5h5.5Z"/>
      <path d="M685.9,420.2h-1.9l-1.8-3.7h-.7v3.7h-1.7v-8.4h1.7v3.3h.7l1.5-3.3h1.7l-1.7,4,2.1,4.4Z"/>
      <path d="M685.9,417.8v-1.2h3.8v1.2h-3.8Z"/>
      <path d="M691,420.2v-8.4h5.2v1.5h-3.6v1.9h3.3v1.5h-3.3v3.6h-1.7Z"/>
      <path d="M697.2,420.2v-8.4h1.7v3h3.7v-3h1.7v8.4h-1.7v-3.9h-3.7v3.9h-1.7Z"/>
    </g>
    <g class="st0">
      <path d="M666.1,431.2v-.7c0-1.7,1.1-2.3,2.3-2.8,1.1-.6,2.3-1.1,2.3-2.7s-.7-1.6-1.8-1.6-1.8.9-1.8,1.8h-.9c0-1.4.9-2.6,2.7-2.6s2.6,1,2.6,2.3c0,2.2-1.4,2.8-2.7,3.4-1,.5-1.8.9-1.8,2.1h4.6v.8h-5.6Z"/>
      <path d="M672.7,427c0-2.4.7-4.3,3.2-4.3s3.2,2,3.2,4.3-.7,4.3-3.2,4.3-3.2-1.9-3.2-4.3ZM678.2,427c0-1.9-.5-3.5-2.3-3.5s-2.3,1.7-2.3,3.5.5,3.5,2.3,3.5,2.3-1.6,2.3-3.5Z"/>
      <path d="M680.2,427c0-2.4.7-4.3,3.2-4.3s3.2,2,3.2,4.3-.7,4.3-3.2,4.3-3.2-1.9-3.2-4.3ZM685.7,427c0-1.9-.5-3.5-2.3-3.5s-2.3,1.7-2.3,3.5.5,3.5,2.3,3.5,2.3-1.6,2.3-3.5Z"/>
      <path d="M688.7,431.2v-7.2c-.2.1-.7.3-1.2.3h-.3v-.8h.3c.5,0,1-.3,1.2-.7h.9v8.4h-.9Z"/>
      <path d="M694.5,428.5v-.7h4v.7h-4Z"/>
      <path d="M702.9,431.2v-.7c0-1.7,1.1-2.3,2.3-2.8,1.1-.6,2.3-1.1,2.3-2.7s-.7-1.6-1.8-1.6-1.8.9-1.8,1.8h-.9c0-1.4.9-2.6,2.7-2.6s2.6,1,2.6,2.3c0,2.2-1.4,2.8-2.7,3.4-1,.5-1.8.9-1.8,2.1h4.6v.8h-5.6Z"/>
      <path d="M709.5,427c0-2.4.7-4.3,3.2-4.3s3.2,2,3.2,4.3-.7,4.3-3.2,4.3-3.2-1.9-3.2-4.3ZM715,427c0-1.9-.5-3.5-2.3-3.5s-2.3,1.7-2.3,3.5.5,3.5,2.3,3.5,2.3-1.6,2.3-3.5Z"/>
      <path d="M717,427c0-2.4.7-4.3,3.2-4.3s3.2,2,3.2,4.3-.7,4.3-3.2,4.3-3.2-1.9-3.2-4.3ZM722.5,427c0-1.9-.5-3.5-2.3-3.5s-2.3,1.7-2.3,3.5.5,3.5,2.3,3.5,2.3-1.6,2.3-3.5Z"/>
      <path d="M725.5,431.2v-7.2c-.2.1-.7.3-1.2.3h-.3v-.8h.3c.5,0,1-.3,1.2-.7h.9v8.4h-.9Z"/>
      <path d="M727.8,429.9h.9c.5.4,1.1.7,2,.7,1.4,0,2.1-.6,2.1-1.8s-.4-1.9-2.1-2c-.6,0-1.1.2-1.5.4h-.9l.6-4.4h4.3v.8h-3.6l-.3,2.8c.3-.2,1-.4,1.6-.4,2.1,0,2.8,1.3,2.8,2.7s-1.2,2.6-3.1,2.6-2.3-.5-2.8-1.5Z"/>
    </g>
  </g>
  <g class="st0">
    <g class="st0">
      <path d="M765.1,315.3v-7h2.8c1.5,0,2.3.9,2.3,2.2s-.8,2.2-2.3,2.2h-1.4v2.6h-1.4ZM766.5,311.5h1.3c.8,0,1.1-.4,1.1-1s-.3-1-1.1-1h-1.3v1.9Z"/>
      <path d="M776.7,315.3h-1.5c-.5-.5-.4-2.6-1.7-2.6h-1v2.6h-1.4v-7h2.8c1.6,0,2.3,1,2.3,2.2s-.4,1.5-1,1.8c.9.4.9,2.4,1.4,3.1ZM772.5,309.5v1.9h1.3c.8,0,1.1-.4,1.1-1s-.3-1-1.1-1h-1.3Z"/>
      <path d="M776.6,315.3l2-7h2.4l2,7h-1.4l-.6-1.7h-2.4l-.6,1.7h-1.4ZM778.9,312.4h1.8l-.8-3h-.2l-.8,3Z"/>
      <path d="M788.8,315.3h-1.6l-1.5-3.1h-.6v3.1h-1.4v-7h1.4v2.8h.6l1.3-2.8h1.4l-1.4,3.4,1.8,3.6Z"/>
      <path d="M792.9,308.3v1.2h-1.6v5.8h-1.4v-5.8h-1.6v-1.2h4.6Z"/>
      <path d="M793.7,315.3v-7h1.4v7h-1.4Z"/>
      <path d="M801.5,315.3h-1.6l-1.5-3.1h-.6v3.1h-1.4v-7h1.4v2.8h.6l1.3-2.8h1.4l-1.4,3.4,1.8,3.6Z"/>
      <path d="M805.8,308.3h1.4v4.5c0,1.6-.8,2.7-2.7,2.7s-2.6-1-2.6-2.7v-4.5h1.4v4.7c0,.8.5,1.2,1.2,1.2s1.2-.4,1.2-1.2v-4.7Z"/>
      <path d="M812.5,314.1l1.4-5.8h2.5v7h-1.4v-5.8h0l-1.4,5.8h-2.1l-1.4-5.8h0v5.8h-1.4v-7h2.5l1.4,5.8h.1Z"/>
      <path d="M817.5,314h1.2v1.1c0,.7-.7,1.3-.9,1.5l-.3-.3c.2-.1.5-.5.5-1h-.5v-1.3Z"/>
    </g>
    <g class="st0">
      <path d="M769.2,319.3v1.2h-1.6v5.8h-1.4v-5.8h-1.6v-1.2h4.6Z"/>
      <path d="M768.8,326.3l2-7h2.4l2,7h-1.4l-.6-1.7h-2.4l-.6,1.7h-1.4ZM771.1,323.4h1.8l-.8-3h-.2l-.8,3Z"/>
      <path d="M775.3,322.8c0-2.1,1.1-3.6,3.3-3.6s2.9.8,3.2,2.4h-1.5c-.2-.8-.9-1.2-1.7-1.2-1.4,0-1.9,1.1-1.9,2.4s.7,2.4,1.9,2.4,1.6-.7,1.8-1.6h1.4c-.2,1.7-1.3,2.8-3.2,2.8s-3.3-1.5-3.3-3.6Z"/>
      <path d="M787.9,326.3h-1.6l-1.5-3.1h-.6v3.1h-1.4v-7h1.4v2.8h.6l1.3-2.8h1.4l-1.4,3.4,1.8,3.6Z"/>
      <path d="M791,326.3v-7h2.9c2.3,0,3.2,1.1,3.2,3.5s-.9,3.5-3.2,3.5h-2.9ZM792.5,325.1h1.3c1.5,0,1.9-1,1.9-2.3s-.4-2.3-1.9-2.3h-1.3v4.5Z"/>
      <path d="M798.1,326.3v-7h4.5v1.2h-3.1v1.5h2.9v1.2h-2.9v1.8h3.1v1.2h-4.5Z"/>
      <path d="M806.1,326.4c-1.5,0-2.9-.7-2.8-2.4h1.4c0,.6.4,1.2,1.3,1.2.7,0,1.2-.2,1.2-.8s-.9-.8-1.8-1.3c-1-.4-2-1-2-2.1s1.2-1.9,2.6-1.9,2.7.6,2.6,2.3h-1.4c0-.5-.2-1-1.1-1-.7,0-1.2.3-1.2.7s.7.8,1.6,1.1c1,.4,2.3,1,2.3,2.2s-1.1,1.9-2.6,1.9Z"/>
      <path d="M809.7,326.3v-7h1.4v7h-1.4Z"/>
      <path d="M812,322.8c0-2.1,1.1-3.6,3.3-3.6s2.9.8,3.1,2.5h-1.5c-.1-.8-.8-1.2-1.6-1.2-1.4,0-1.9,1.1-1.9,2.4s.7,2.4,1.9,2.4,1.7-.5,1.8-1.4h-1.6v-1.1h3c0,2.3-.9,3.7-3.2,3.7s-3.3-1.5-3.3-3.6Z"/>
      <path d="M824,325.1v-5.8h1.4v7h-2.7l-1.4-5.8h-.1v5.8h-1.4v-7h2.6l1.5,5.8h.1Z"/>
    </g>
    <g class="st0">
      <path d="M764.8,337.3v-.5c0-1.4.9-1.9,1.9-2.4.9-.5,1.9-.9,1.9-2.3s-.6-1.3-1.5-1.3-1.5.8-1.5,1.5h-.7c0-1.1.7-2.1,2.3-2.1s2.2.8,2.2,1.9c0,1.8-1.2,2.3-2.2,2.8-.8.4-1.5.8-1.5,1.7h3.9v.7h-4.6Z"/>
      <path d="M770.2,333.8c0-2,.6-3.6,2.7-3.6s2.7,1.6,2.7,3.6-.6,3.6-2.7,3.6-2.7-1.6-2.7-3.6ZM774.8,333.8c0-1.6-.4-2.9-1.9-2.9s-1.9,1.4-1.9,2.9.4,2.9,1.9,2.9,1.9-1.3,1.9-2.9Z"/>
      <path d="M777.4,337.3v-6c-.2.1-.6.3-1,.3h-.3v-.7h.3c.4,0,.9-.2,1-.6h.7v7h-.8Z"/>
      <path d="M779.2,336h.7c.2.4.6.8,1.4.8s1.7-.5,1.7-1.3-.3-1.2-1.1-1.3h-1.3v-.6h1.3c.7-.2,1-.8,1-1.3,0-.8-.6-1.3-1.6-1.3s-1.2.4-1.4.9h-.7c.2-.9.9-1.5,2.1-1.5s2.3.8,2.3,1.9c0,.6-.3,1.4-1,1.7.7.2,1.1.9,1.1,1.7,0,1.2-.9,2-2.4,2s-1.9-.5-2.2-1.4Z"/>
    </g>
  </g>
  <g class="st0">
    <g class="st0">
      <path d="M851.3,295.6c0,1.7-1.1,2.6-2.7,2.6h-4.5v-9.1h4.2c1.9,0,2.5,1,2.5,2.4s-.5,1.6-1.1,1.9c.7.2,1.6.8,1.5,2.2ZM846,290.7v1.9h1.7c.9,0,1.3-.4,1.3-1s-.4-.9-1.3-.9h-1.7ZM848.4,296.6c.9,0,1.2-.7,1.2-1.2s-.3-1.2-1.2-1.2h-2.4v2.4h2.4Z"/>
      <path d="M851.6,298.2l2.6-9.1h3.1l2.6,9.1h-1.9l-.7-2.3h-3.1l-.7,2.3h-1.9ZM854.5,294.4h2.4l-1.1-3.9h-.3l-1.1,3.9Z"/>
      <path d="M862.9,298.2l2.6-9.1h3.1l2.6,9.1h-1.9l-.7-2.3h-3.1l-.7,2.3h-1.9ZM865.9,294.4h2.4l-1.1-3.9h-.3l-1.1,3.9Z"/>
      <path d="M879.3,295.6c0,1.7-1.1,2.6-2.7,2.6h-4.5v-9.1h4.2c1.9,0,2.5,1,2.5,2.4s-.5,1.6-1.1,1.9c.7.2,1.6.8,1.5,2.2ZM873.9,290.7v1.9h1.7c.9,0,1.3-.4,1.3-1s-.4-.9-1.3-.9h-1.7ZM876.3,296.6c.9,0,1.2-.7,1.2-1.2s-.3-1.2-1.2-1.2h-2.4v2.4h2.4Z"/>
      <path d="M883.8,298.4c-2,0-3.8-1-3.7-3.1h1.8c0,.7.6,1.5,1.7,1.5,1,0,1.5-.3,1.5-1s-1.2-1.1-2.4-1.6c-1.3-.6-2.6-1.3-2.6-2.7s1.5-2.5,3.4-2.5,3.5.8,3.4,3h-1.8c0-.7-.3-1.3-1.4-1.4-1,0-1.6.4-1.6,1s1,1,2.1,1.5c1.3.6,3,1.3,3,2.9s-1.5,2.5-3.3,2.5Z"/>
      <path d="M888.1,293.7c0-2.7,1.5-4.7,4.3-4.7s3.8,1,4.1,3.2h-1.9c-.2-1.1-1.1-1.6-2.2-1.6-1.8,0-2.5,1.5-2.5,3.1s.9,3.1,2.5,3.1,2.1-.9,2.4-2.1h1.9c-.3,2.2-1.8,3.7-4.2,3.7s-4.3-2-4.3-4.7Z"/>
      <path d="M897.8,298.2v-9.1h1.8v3.3h4v-3.3h1.8v9.1h-1.8v-4.2h-4v4.2h-1.8Z"/>
      <path d="M909.1,296.6h3.4v1.6h-5.2v-9.1h1.8v7.5Z"/>
      <path d="M918.1,289.1h1.8v5.8c0,2.1-1.1,3.5-3.5,3.5s-3.4-1.3-3.4-3.5v-5.8h1.8v6.1c0,1.1.7,1.6,1.6,1.6s1.6-.5,1.6-1.6v-6.1Z"/>
      <path d="M924.8,298.4c-2,0-3.8-1-3.7-3.1h1.8c0,.7.6,1.5,1.7,1.5,1,0,1.5-.3,1.5-1s-1.2-1.1-2.4-1.6c-1.3-.6-2.6-1.3-2.6-2.7s1.5-2.5,3.4-2.5,3.5.8,3.4,3h-1.8c0-.7-.3-1.3-1.4-1.4-1,0-1.6.4-1.6,1s1,1,2.1,1.5c1.3.6,3,1.3,3,2.9s-1.5,2.5-3.3,2.5Z"/>
      <path d="M932.7,298.4c-2,0-3.8-1-3.7-3.1h1.8c0,.7.6,1.5,1.7,1.5,1,0,1.5-.3,1.5-1s-1.2-1.1-2.4-1.6c-1.3-.6-2.6-1.3-2.6-2.7s1.5-2.5,3.4-2.5,3.5.8,3.4,3h-1.8c0-.7-.3-1.3-1.4-1.4-1,0-1.6.4-1.6,1s1,1,2.1,1.5c1.3.6,3,1.3,3,2.9s-1.5,2.5-3.3,2.5Z"/>
    </g>
    <g class="st0">
      <path d="M850.8,309.2h-2l-2-4.1h-.8v4.1h-1.8v-9.1h1.8v3.6h.8l1.7-3.6h1.8l-1.8,4.4,2.3,4.7Z"/>
      <path d="M850.5,304.7c0-2.7,1.5-4.7,4.3-4.7s4.3,2,4.3,4.7-1.5,4.7-4.3,4.7-4.3-2-4.3-4.7ZM857.3,304.7c0-1.7-.7-3.1-2.5-3.1s-2.5,1.5-2.5,3.1.9,3.1,2.5,3.1,2.5-1.5,2.5-3.1Z"/>
      <path d="M865.6,307.6l1.8-7.5h3.2v9.1h-1.8v-7.5h-.1l-1.8,7.5h-2.8l-1.8-7.5h-.1v7.5h-1.8v-9.1h3.2l1.8,7.5h.1Z"/>
      <path d="M877.3,300.1h1.8v5.8c0,2.1-1.1,3.5-3.5,3.5s-3.4-1.3-3.4-3.5v-5.8h1.8v6.1c0,1.1.7,1.6,1.6,1.6s1.6-.5,1.6-1.6v-6.1Z"/>
      <path d="M886.3,307.6v-7.5h1.8v9.1h-3.5l-1.8-7.5h-.2v7.5h-1.9v-9.1h3.4l2,7.5h.2Z"/>
      <path d="M889.8,309.2v-9.1h1.8v9.1h-1.8Z"/>
      <path d="M900,309.2h-2l-2-4.1h-.8v4.1h-1.8v-9.1h1.8v3.6h.8l1.7-3.6h1.8l-1.8,4.4,2.3,4.7Z"/>
      <path d="M899.8,309.2l2.6-9.1h3.1l2.6,9.1h-1.9l-.7-2.3h-3.1l-.7,2.3h-1.9ZM902.8,305.4h2.4l-1.1-3.9h-.3l-1.1,3.9Z"/>
      <path d="M913.4,300.1v1.6h-2.1v7.5h-1.8v-7.5h-2.1v-1.6h6Z"/>
      <path d="M914.4,309.2v-9.1h1.8v9.1h-1.8Z"/>
      <path d="M917.5,304.7c0-2.7,1.5-4.7,4.3-4.7s4.3,2,4.3,4.7-1.5,4.7-4.3,4.7-4.3-2-4.3-4.7ZM924.3,304.7c0-1.7-.7-3.1-2.5-3.1s-2.5,1.5-2.5,3.1.9,3.1,2.5,3.1,2.5-1.5,2.5-3.1Z"/>
      <path d="M932.9,307.6v-7.5h1.8v9.1h-3.5l-1.8-7.5h-.2v7.5h-1.9v-9.1h3.4l2,7.5h.2Z"/>
      <path d="M939.7,309.4c-2,0-3.8-1-3.7-3.1h1.8c0,.7.6,1.5,1.7,1.5,1,0,1.5-.3,1.5-1s-1.2-1.1-2.4-1.6c-1.3-.6-2.6-1.3-2.6-2.7s1.5-2.5,3.4-2.5,3.5.8,3.4,3h-1.8c0-.7-.3-1.3-1.4-1.4-1,0-1.6.4-1.6,1s1,1,2.1,1.5c1.3.6,3,1.3,3,2.9s-1.5,2.5-3.3,2.5Z"/>
      <path d="M944.4,309.2v-9.1h3.8c3,0,4.1,1.4,4.1,4.6s-1.2,4.5-4.1,4.5h-3.8ZM946.2,307.6h1.8c2,0,2.5-1.3,2.5-3s-.5-3-2.5-3h-1.8v5.9Z"/>
      <path d="M953.5,309.2v-9.1h5.9v1.6h-4.1v2h3.8v1.6h-3.8v2.3h4.1v1.6h-5.9Z"/>
      <path d="M964,309.4c-2,0-3.8-1-3.7-3.1h1.8c0,.7.6,1.5,1.7,1.5,1,0,1.5-.3,1.5-1s-1.2-1.1-2.4-1.6c-1.3-.6-2.6-1.3-2.6-2.7s1.5-2.5,3.4-2.5,3.5.8,3.4,3h-1.8c0-.7-.3-1.3-1.4-1.4-1,0-1.6.4-1.6,1s1,1,2.1,1.5c1.3.6,3,1.3,3,2.9s-1.5,2.5-3.3,2.5Z"/>
      <path d="M968.6,309.2v-9.1h1.8v9.1h-1.8Z"/>
      <path d="M971.6,304.7c0-2.7,1.5-4.7,4.3-4.7s3.8,1.1,4.1,3.2h-2c-.1-1-1-1.6-2.1-1.6-1.8,0-2.5,1.5-2.5,3.1s.9,3.1,2.5,3.1,2.2-.6,2.3-1.8h-2.1v-1.4h4c0,3-1.2,4.8-4.2,4.8s-4.3-2-4.3-4.7Z"/>
      <path d="M987.2,307.6v-7.5h1.8v9.1h-3.5l-1.8-7.5h-.2v7.5h-1.9v-9.1h3.4l2,7.5h.2Z"/>
    </g>
    <g class="st0">
      <path d="M843.8,320.2v-.7c0-1.9,1.2-2.5,2.5-3.1,1.2-.6,2.4-1.2,2.4-3s-.8-1.7-1.9-1.7-2,1-2,2h-.9c0-1.5.9-2.8,2.9-2.8s2.8,1,2.8,2.5c0,2.4-1.5,3.1-2.9,3.7-1,.5-2,1-2,2.2h5v.9h-6Z"/>
      <path d="M850.9,315.7c0-2.6.8-4.7,3.5-4.7s3.5,2.1,3.5,4.7-.8,4.7-3.5,4.7-3.5-2.1-3.5-4.7ZM856.8,315.7c0-2-.5-3.8-2.5-3.8s-2.5,1.8-2.5,3.8.5,3.8,2.5,3.8,2.5-1.7,2.5-3.8Z"/>
      <path d="M860.1,320.2v-7.8c-.3.2-.8.4-1.3.4h-.4v-.9h.4c.5,0,1.1-.3,1.3-.8h.9v9.1h-1Z"/>
      <path d="M862.6,318.7h.9c.5.4,1.2.8,2.1.8,1.5,0,2.3-.7,2.3-1.9s-.5-2.1-2.3-2.2c-.6,0-1.2.2-1.6.5h-1l.6-4.8h4.7v.9h-3.9l-.4,3.1c.4-.2,1.1-.4,1.8-.4,2.2,0,3,1.4,3,3s-1.3,2.8-3.3,2.8-2.5-.5-3.1-1.6Z"/>
    </g>
  </g>
  <g class="st0">
    <g class="st0">
      <path d="M1009.8,383.4l1.1-5.8h1.4l-1.3,7h-2.2l-1.1-5.8h-.2l-1.1,5.8h-2.2l-1.4-7h1.4l1.1,5.8h.1l1.1-5.8h2.3l1.1,5.8h.1Z"/>
      <path d="M1013,384.6v-7h4.5v1.2h-3.1v1.5h2.9v1.2h-2.9v1.8h3.1v1.2h-4.5Z"/>
      <path d="M1024.2,384.6h-1.5c-.5-.5-.4-2.6-1.7-2.6h-1v2.6h-1.4v-7h2.8c1.6,0,2.3,1,2.3,2.2s-.4,1.5-1,1.8c.9.4.9,2.4,1.4,3.1ZM1020,378.8v1.9h1.3c.8,0,1.1-.4,1.1-1s-.3-1-1.1-1h-1.3Z"/>
      <path d="M1029.8,384.6h-1.6l-1.5-3.1h-.6v3.1h-1.4v-7h1.4v2.8h.6l1.3-2.8h1.4l-1.4,3.4,1.8,3.6Z"/>
      <path d="M1032.6,384.7c-1.5,0-2.9-.7-2.8-2.4h1.4c0,.6.4,1.2,1.3,1.2.7,0,1.2-.2,1.2-.8s-.9-.8-1.8-1.3c-1-.4-2-1-2-2.1s1.2-1.9,2.6-1.9,2.7.6,2.6,2.3h-1.4c0-.5-.2-1-1.1-1-.7,0-1.2.3-1.2.7s.7.8,1.6,1.1c1,.4,2.3,1,2.3,2.2s-1.1,1.9-2.6,1.9Z"/>
      <path d="M1040,377.6v1.2h-1.6v5.8h-1.4v-5.8h-1.6v-1.2h4.6Z"/>
      <path d="M1044.5,377.6h1.4v4.5c0,1.6-.8,2.7-2.7,2.7s-2.6-1-2.6-2.7v-4.5h1.4v4.7c0,.8.5,1.2,1.2,1.2s1.2-.4,1.2-1.2v-4.7Z"/>
      <path d="M1047.2,384.6v-7h2.9c2.3,0,3.2,1.1,3.2,3.5s-.9,3.5-3.2,3.5h-2.9ZM1048.6,383.4h1.3c1.5,0,1.9-1,1.9-2.3s-.4-2.3-1.9-2.3h-1.3v4.5Z"/>
      <path d="M1054.2,384.6v-7h4.5v1.2h-3.1v1.5h2.9v1.2h-2.9v1.8h3.1v1.2h-4.5Z"/>
      <path d="M1064,383.4v-5.8h1.4v7h-2.7l-1.4-5.8h-.1v5.8h-1.4v-7h2.6l1.5,5.8h.1Z"/>
      <path d="M1070.9,377.6v1.2h-1.6v5.8h-1.4v-5.8h-1.6v-1.2h4.6Z"/>
    </g>
    <g class="st0">
      <path d="M1008.8,393.6c0,1.3-.9,2-2.1,2h-3.5v-7h3.3c1.5,0,1.9.8,1.9,1.8s-.4,1.2-.8,1.5c.6.1,1.2.6,1.2,1.7ZM1004.6,389.8v1.5h1.3c.7,0,1-.3,1-.8s-.3-.7-1-.7h-1.3ZM1006.5,394.4c.7,0,.9-.5.9-.9s-.2-.9-.9-.9h-1.8v1.9h1.8Z"/>
      <path d="M1013.6,388.6v1.2h-1.6v5.8h-1.4v-5.8h-1.6v-1.2h4.6Z"/>
      <path d="M1019.5,395.6h-1.6l-1.5-3.1h-.6v3.1h-1.4v-7h1.4v2.8h.6l1.3-2.8h1.4l-1.4,3.4,1.8,3.6Z"/>
      <path d="M1019.4,393.6v-1h3.2v1h-3.2Z"/>
      <path d="M1023.7,395.6v-7h4.4v1.2h-3v1.5h2.7v1.2h-2.7v3h-1.4Z"/>
      <path d="M1028.9,395.6v-7h1.4v2.5h3.1v-2.5h1.4v7h-1.4v-3.2h-3.1v3.2h-1.4Z"/>
    </g>
    <g class="st0">
      <path d="M1003,406.6v-.5c0-1.4.9-1.9,1.9-2.4.9-.5,1.9-.9,1.9-2.3s-.6-1.3-1.5-1.3-1.5.8-1.5,1.5h-.7c0-1.1.7-2.1,2.3-2.1s2.2.8,2.2,1.9c0,1.8-1.2,2.3-2.2,2.8-.8.4-1.5.8-1.5,1.7h3.9v.7h-4.6Z"/>
      <path d="M1008.4,403.1c0-2,.6-3.6,2.7-3.6s2.7,1.6,2.7,3.6-.6,3.6-2.7,3.6-2.7-1.6-2.7-3.6ZM1013,403.1c0-1.6-.4-2.9-1.9-2.9s-1.9,1.4-1.9,2.9.4,2.9,1.9,2.9,1.9-1.3,1.9-2.9Z"/>
      <path d="M1015.6,406.6v-6c-.2.1-.6.3-1,.3h-.3v-.7h.3c.4,0,.9-.2,1-.6h.7v7h-.8Z"/>
      <path d="M1020.8,406.6v-1.6h-3.4v-.7l3.4-4.7h.8v4.7h1v.7h-1v1.6h-.8ZM1018.2,404.3h2.6v-3.6l-2.6,3.6Z"/>
      <path d="M1026.1,404.4v-.6h3.3v.6h-3.3Z"/>
      <path d="M1033.1,406.6v-.5c0-1.4.9-1.9,1.9-2.4.9-.5,1.9-.9,1.9-2.3s-.6-1.3-1.5-1.3-1.5.8-1.5,1.5h-.7c0-1.1.7-2.1,2.3-2.1s2.2.8,2.2,1.9c0,1.8-1.2,2.3-2.2,2.8-.8.4-1.5.8-1.5,1.7h3.9v.7h-4.6Z"/>
      <path d="M1038.6,403.1c0-2,.6-3.6,2.7-3.6s2.7,1.6,2.7,3.6-.6,3.6-2.7,3.6-2.7-1.6-2.7-3.6ZM1043.2,403.1c0-1.6-.4-2.9-1.9-2.9s-1.9,1.4-1.9,2.9.4,2.9,1.9,2.9,1.9-1.3,1.9-2.9Z"/>
      <path d="M1045.7,406.6v-6c-.2.1-.6.3-1,.3h-.3v-.7h.3c.4,0,.9-.2,1-.6h.7v7h-.8Z"/>
      <path d="M1047.6,405.5h.7c.4.3.9.6,1.6.6,1.2,0,1.8-.5,1.8-1.5s-.4-1.6-1.7-1.7c-.5,0-.9.2-1.2.4h-.8l.5-3.7h3.6v.7h-3l-.3,2.3c.3-.1.8-.3,1.4-.3,1.7,0,2.3,1.1,2.3,2.3s-1,2.1-2.5,2.1-1.9-.4-2.4-1.2Z"/>
    </g>
  </g>
  <g class="st0">
    <g class="st0">
      <path d="M931.7,386.3v-7h4.4v1.2h-3v1.5h2.7v1.2h-2.7v3h-1.4Z"/>
      <path d="M942.5,386.3h-1.5c-.5-.5-.4-2.6-1.7-2.6h-1v2.6h-1.4v-7h2.8c1.6,0,2.3,1,2.3,2.2s-.4,1.5-1,1.8c.9.4.9,2.4,1.4,3.1ZM938.3,380.5v1.9h1.3c.8,0,1.1-.4,1.1-1s-.3-1-1.1-1h-1.3Z"/>
      <path d="M943.1,386.3v-7h4.5v1.2h-3.1v1.5h2.9v1.2h-2.9v1.8h3.1v1.2h-4.5Z"/>
      <path d="M948.6,386.3v-7h4.5v1.2h-3.1v1.5h2.9v1.2h-2.9v1.8h3.1v1.2h-4.5Z"/>
      <path d="M955.5,385.1h2.6v1.2h-4v-7h1.4v5.8Z"/>
      <path d="M958.4,386.3l2-7h2.4l2,7h-1.4l-.6-1.7h-2.4l-.6,1.7h-1.4ZM960.7,383.4h1.8l-.8-3h-.2l-.8,3Z"/>
      <path d="M969.7,385.1v-5.8h1.4v7h-2.7l-1.4-5.8h-.1v5.8h-1.4v-7h2.6l1.5,5.8h.1Z"/>
      <path d="M972.1,382.8c0-2.1,1.1-3.6,3.3-3.6s2.9.8,3.2,2.4h-1.5c-.2-.8-.9-1.2-1.7-1.2-1.4,0-1.9,1.1-1.9,2.4s.7,2.4,1.9,2.4,1.6-.7,1.8-1.6h1.4c-.2,1.7-1.3,2.8-3.2,2.8s-3.3-1.5-3.3-3.6Z"/>
      <path d="M979.6,386.3v-7h4.5v1.2h-3.1v1.5h2.9v1.2h-2.9v1.8h3.1v1.2h-4.5Z"/>
    </g>
    <g class="st0">
      <path d="M931.4,397.3v-.5c0-1.4.9-1.9,1.9-2.4.9-.5,1.9-.9,1.9-2.3s-.6-1.3-1.5-1.3-1.5.8-1.5,1.5h-.7c0-1.1.7-2.1,2.3-2.1s2.2.8,2.2,1.9c0,1.8-1.2,2.3-2.2,2.8-.8.4-1.5.8-1.5,1.7h3.9v.7h-4.6Z"/>
      <path d="M936.8,393.8c0-2,.6-3.6,2.7-3.6s2.7,1.6,2.7,3.6-.6,3.6-2.7,3.6-2.7-1.6-2.7-3.6ZM941.4,393.8c0-1.6-.4-2.9-1.9-2.9s-1.9,1.4-1.9,2.9.4,2.9,1.9,2.9,1.9-1.3,1.9-2.9Z"/>
      <path d="M944,397.3v-6c-.2.1-.6.3-1,.3h-.3v-.7h.3c.4,0,.9-.2,1-.6h.7v7h-.8Z"/>
      <path d="M945.8,396h.7c.2.4.6.8,1.4.8s1.7-.5,1.7-1.3-.3-1.2-1.1-1.3h-1.3v-.6h1.3c.7-.2,1-.8,1-1.3,0-.8-.6-1.3-1.6-1.3s-1.2.4-1.4.9h-.8c.2-.9.9-1.5,2.1-1.5s2.3.8,2.3,1.9c0,.6-.3,1.4-1,1.7.7.2,1.1.9,1.1,1.7,0,1.2-.9,2-2.4,2s-1.9-.5-2.2-1.4Z"/>
      <path d="M954.2,395.1v-.6h3.3v.6h-3.3Z"/>
      <path d="M961.2,397.3v-.5c0-1.4.9-1.9,1.9-2.4.9-.5,1.9-.9,1.9-2.3s-.6-1.3-1.5-1.3-1.5.8-1.5,1.5h-.7c0-1.1.7-2.1,2.3-2.1s2.2.8,2.2,1.9c0,1.8-1.2,2.3-2.2,2.8-.8.4-1.5.8-1.5,1.7h3.9v.7h-4.6Z"/>
      <path d="M966.6,393.8c0-2,.6-3.6,2.7-3.6s2.7,1.6,2.7,3.6-.6,3.6-2.7,3.6-2.7-1.6-2.7-3.6ZM971.2,393.8c0-1.6-.4-2.9-1.9-2.9s-1.9,1.4-1.9,2.9.4,2.9,1.9,2.9,1.9-1.3,1.9-2.9Z"/>
      <path d="M973.8,397.3v-6c-.2.1-.6.3-1,.3h-.3v-.7h.3c.4,0,.9-.2,1-.6h.7v7h-.8Z"/>
      <path d="M980.8,395.1c0,1.3-.9,2.3-2.5,2.3s-2.5-1.1-2.5-2.7c-.1-2.7.5-4.5,2.5-4.5s2.2.6,2.2,1.9h-.8c0-1.1-.7-1.2-1.4-1.2-1.5,0-1.8,1.6-1.8,3.1.3-.7,1-1.1,1.8-1.1,1.5,0,2.4,1,2.4,2.3ZM980,395.1c0-.9-.6-1.6-1.7-1.6s-1.7.7-1.7,1.6.6,1.6,1.7,1.6,1.7-.7,1.7-1.6Z"/>
    </g>
  </g>
  <g class="st0">
    <g class="st0">
      <path d="M1094.2,386.3l1.8-7.5h3.2v9.1h-1.8v-7.5h-.1l-1.8,7.5h-2.8l-1.8-7.5h-.1v7.5h-1.8v-9.1h3.2l1.8,7.5h.1Z"/>
      <path d="M1101,387.9v-9.1h1.8v9.1h-1.8Z"/>
      <path d="M1109.9,378.8v1.6h-2.1v7.5h-1.8v-7.5h-2.1v-1.6h6Z"/>
      <path d="M1109.5,387.9l2.6-9.1h3.1l2.6,9.1h-1.9l-.7-2.3h-3.1l-.7,2.3h-1.9ZM1112.4,384.1h2.4l-1.1-3.9h-.3l-1.1,3.9Z"/>
      <path d="M1125.9,387.9h-1.9c-.6-.7-.5-3.4-2.2-3.4h-1.3v3.4h-1.8v-9.1h3.7c2,0,3.1,1.3,3.1,2.8s-.5,2-1.3,2.3c1.2.5,1.1,3.1,1.9,4ZM1120.5,380.4v2.5h1.6c1,0,1.4-.5,1.4-1.3s-.4-1.3-1.4-1.3h-1.6Z"/>
      <path d="M1133.9,385.3c0,1.7-1.1,2.6-2.7,2.6h-4.5v-9.1h4.2c1.9,0,2.5,1,2.5,2.4s-.5,1.6-1.1,1.9c.7.2,1.6.8,1.5,2.2ZM1128.5,380.4v1.9h1.7c.9,0,1.3-.4,1.3-1s-.4-.9-1.3-.9h-1.7ZM1130.9,386.3c.9,0,1.2-.7,1.2-1.2s-.3-1.2-1.2-1.2h-2.4v2.4h2.4Z"/>
      <path d="M1135.2,387.9v-9.1h5.9v1.6h-4.1v2h3.8v1.6h-3.8v2.3h4.1v1.6h-5.9Z"/>
      <path d="M1142.4,387.9v-9.1h1.8v9.1h-1.8Z"/>
      <path d="M1151.2,378.8v1.6h-2.1v7.5h-1.8v-7.5h-2.1v-1.6h6Z"/>
      <path d="M1152.3,387.9v-9.1h5.9v1.6h-4.1v2h3.8v1.6h-3.8v2.3h4.1v1.6h-5.9Z"/>
      <path d="M1166.8,387.9h-1.9c-.6-.7-.5-3.4-2.2-3.4h-1.3v3.4h-1.8v-9.1h3.7c2,0,3.1,1.3,3.1,2.8s-.5,2-1.3,2.3c1.2.5,1.1,3.1,1.9,4ZM1161.3,380.4v2.5h1.6c1,0,1.4-.5,1.4-1.3s-.4-1.3-1.4-1.3h-1.6Z"/>
      <path d="M1167.6,387.9v-9.1h1.8v9.1h-1.8Z"/>
      <path d="M1176.6,386.3v-7.5h1.8v9.1h-3.5l-1.8-7.5h-.2v7.5h-1.9v-9.1h3.4l2,7.5h.2Z"/>
    </g>
    <g class="st0">
      <path d="M1089.1,398.9v-9.1h1.8v3.3h4v-3.3h1.8v9.1h-1.8v-4.2h-4v4.2h-1.8Z"/>
      <path d="M1098,394.4c0-2.7,1.5-4.7,4.3-4.7s4.3,2,4.3,4.7-1.5,4.7-4.3,4.7-4.3-2-4.3-4.7ZM1104.7,394.4c0-1.7-.7-3.1-2.5-3.1s-2.5,1.5-2.5,3.1.9,3.1,2.5,3.1,2.5-1.5,2.5-3.1Z"/>
      <path d="M1107.5,394.4c0-2.7,1.5-4.7,4.3-4.7s3.8,1,4.1,3.2h-1.9c-.2-1.1-1.1-1.6-2.2-1.6-1.8,0-2.5,1.5-2.5,3.1s.9,3.1,2.5,3.1,2.1-.9,2.4-2.1h1.9c-.3,2.2-1.8,3.7-4.2,3.7s-4.3-2-4.3-4.7Z"/>
      <path d="M1117.2,398.9v-9.1h1.8v3.3h4v-3.3h1.8v9.1h-1.8v-4.2h-4v4.2h-1.8Z"/>
      <path d="M1129.9,399.1c-2,0-3.8-1-3.7-3.1h1.8c0,.7.6,1.5,1.7,1.5,1,0,1.5-.3,1.5-1s-1.2-1.1-2.4-1.6c-1.3-.6-2.6-1.3-2.6-2.7s1.5-2.5,3.4-2.5,3.5.8,3.4,3h-1.8c0-.7-.3-1.3-1.4-1.4-1,0-1.6.4-1.6,1s1,1,2.1,1.5c1.3.6,3,1.3,3,2.9s-1.5,2.5-3.3,2.5Z"/>
      <path d="M1134.1,394.4c0-2.7,1.5-4.7,4.3-4.7s3.8,1,4.1,3.2h-1.9c-.2-1.1-1.1-1.6-2.2-1.6-1.8,0-2.5,1.5-2.5,3.1s.9,3.1,2.5,3.1,2.1-.9,2.4-2.1h1.9c-.3,2.2-1.8,3.7-4.2,3.7s-4.3-2-4.3-4.7Z"/>
      <path d="M1143.8,398.9v-9.1h1.8v3.3h4v-3.3h1.8v9.1h-1.8v-4.2h-4v4.2h-1.8Z"/>
      <path d="M1158.2,389.8h1.8v5.8c0,2.1-1.1,3.5-3.5,3.5s-3.4-1.3-3.4-3.5v-5.8h1.8v6.1c0,1.1.7,1.6,1.6,1.6s1.6-.5,1.6-1.6v-6.1Z"/>
      <path d="M1163.5,397.3h3.4v1.6h-5.2v-9.1h1.8v7.5Z"/>
      <path d="M1169.9,397.4l2.2-7.6h1.9l-2.7,9.1h-2.8l-2.7-9.1h1.9l2.2,7.6Z"/>
      <path d="M1174.8,398.9v-9.1h5.9v1.6h-4.1v2h3.8v1.6h-3.8v2.3h4.1v1.6h-5.9Z"/>
      <path d="M1189.2,398.9h-1.9c-.6-.7-.5-3.4-2.2-3.4h-1.3v3.4h-1.8v-9.1h3.7c2,0,3.1,1.3,3.1,2.8s-.5,2-1.3,2.3c1.2.5,1.1,3.1,1.9,4ZM1183.8,391.4v2.5h1.6c1,0,1.4-.5,1.4-1.3s-.4-1.3-1.4-1.3h-1.6Z"/>
      <path d="M1198.4,397.3l1.4-7.5h1.8l-1.8,9.1h-2.9l-1.4-7.5h-.2l-1.4,7.5h-2.9l-1.8-9.1h1.8l1.4,7.5h.2l1.4-7.5h2.9l1.4,7.5h.2Z"/>
      <path d="M1201.1,398.9l2.6-9.1h3.1l2.6,9.1h-1.9l-.7-2.3h-3.1l-.7,2.3h-1.9ZM1204.1,395.1h2.4l-1.1-3.9h-.3l-1.1,3.9Z"/>
      <path d="M1212.2,397.3h3.4v1.6h-5.2v-9.1h1.8v7.5Z"/>
      <path d="M1221.3,389.8v1.6h-2.1v7.5h-1.8v-7.5h-2.1v-1.6h6Z"/>
      <path d="M1227.2,389.8h1.8v5.8c0,2.1-1.1,3.5-3.5,3.5s-3.4-1.3-3.4-3.5v-5.8h1.8v6.1c0,1.1.7,1.6,1.6,1.6s1.6-.5,1.6-1.6v-6.1Z"/>
      <path d="M1236.3,397.3v-7.5h1.8v9.1h-3.5l-1.8-7.5h-.2v7.5h-1.9v-9.1h3.4l2,7.5h.2Z"/>
      <path d="M1239.3,394.4c0-2.7,1.5-4.7,4.3-4.7s3.8,1.1,4.1,3.2h-2c-.1-1-1-1.6-2.1-1.6-1.8,0-2.5,1.5-2.5,3.1s.9,3.1,2.5,3.1,2.2-.6,2.3-1.8h-2.1v-1.4h4c0,3-1.2,4.8-4.2,4.8s-4.3-2-4.3-4.7Z"/>
      <path d="M1249.1,397.2h1.6v1.5c0,.9-.9,1.7-1.2,1.9l-.4-.4c.2-.2.6-.7.6-1.3h-.7v-1.7Z"/>
    </g>
    <g class="st0">
      <path d="M1090.9,408.3h3.4v1.6h-5.2v-9.1h1.8v7.5Z"/>
      <path d="M1094.6,409.9l2.6-9.1h3.1l2.6,9.1h-1.9l-.7-2.3h-3.1l-.7,2.3h-1.9ZM1097.6,406.1h2.4l-1.1-3.9h-.3l-1.1,3.9Z"/>
      <path d="M1108.5,400.8h1.8v5.8c0,2.1-1.1,3.5-3.5,3.5s-3.4-1.3-3.4-3.5v-5.8h1.8v6.1c0,1.1.7,1.6,1.6,1.6s1.6-.5,1.6-1.6v-6.1Z"/>
      <path d="M1119.3,409.9h-1.9c-.6-.7-.5-3.4-2.2-3.4h-1.3v3.4h-1.8v-9.1h3.7c2,0,3.1,1.3,3.1,2.8s-.5,2-1.3,2.3c1.2.5,1.1,3.1,1.9,4ZM1113.8,402.4v2.5h1.6c1,0,1.4-.5,1.4-1.3s-.4-1.3-1.4-1.3h-1.6Z"/>
      <path d="M1120,409.9v-9.1h5.9v1.6h-4.1v2h3.8v1.6h-3.8v2.3h4.1v1.6h-5.9Z"/>
      <path d="M1126.4,409.9l2.6-9.1h3.1l2.6,9.1h-1.9l-.7-2.3h-3.1l-.7,2.3h-1.9ZM1129.4,406.1h2.4l-1.1-3.9h-.3l-1.1,3.9Z"/>
      <path d="M1140,400.8v1.6h-2.1v7.5h-1.8v-7.5h-2.1v-1.6h6Z"/>
      <path d="M1141,409.9v-9.1h5.9v1.6h-4.1v2h3.8v1.6h-3.8v2.3h4.1v1.6h-5.9Z"/>
      <path d="M1156.8,400.8h1.8v5.8c0,2.1-1.1,3.5-3.5,3.5s-3.4-1.3-3.4-3.5v-5.8h1.8v6.1c0,1.1.7,1.6,1.6,1.6s1.6-.5,1.6-1.6v-6.1Z"/>
      <path d="M1165.8,408.3v-7.5h1.8v9.1h-3.5l-1.8-7.5h-.2v7.5h-1.9v-9.1h3.4l2,7.5h.2Z"/>
      <path d="M1169.4,409.9v-9.1h1.8v9.1h-1.8Z"/>
      <path d="M1176.1,408.4l2.2-7.6h1.9l-2.7,9.1h-2.8l-2.7-9.1h1.9l2.2,7.6Z"/>
      <path d="M1181,409.9v-9.1h5.9v1.6h-4.1v2h3.8v1.6h-3.8v2.3h4.1v1.6h-5.9Z"/>
      <path d="M1195.4,409.9h-1.9c-.6-.7-.5-3.4-2.2-3.4h-1.3v3.4h-1.8v-9.1h3.7c2,0,3.1,1.3,3.1,2.8s-.5,2-1.3,2.3c1.2.5,1.1,3.1,1.9,4ZM1190,402.4v2.5h1.6c1,0,1.4-.5,1.4-1.3s-.4-1.3-1.4-1.3h-1.6Z"/>
      <path d="M1199.5,410.1c-2,0-3.8-1-3.7-3.1h1.8c0,.7.6,1.5,1.7,1.5,1,0,1.5-.3,1.5-1s-1.2-1.1-2.4-1.6c-1.3-.6-2.6-1.3-2.6-2.7s1.5-2.5,3.4-2.5,3.5.8,3.4,3h-1.8c0-.7-.3-1.3-1.4-1.4-1,0-1.6.4-1.6,1s1,1,2.1,1.5c1.3.6,3,1.3,3,2.9s-1.5,2.5-3.3,2.5Z"/>
      <path d="M1204.1,409.9v-9.1h1.8v9.1h-1.8Z"/>
      <path d="M1213,400.8v1.6h-2.1v7.5h-1.8v-7.5h-2.1v-1.6h6Z"/>
      <path d="M1214.1,409.9v-9.1h1.8v9.1h-1.8Z"/>
      <path d="M1217.6,409.9v-9.1h5.9v1.6h-4.1v2h3.8v1.6h-3.8v2.3h4.1v1.6h-5.9Z"/>
      <path d="M1228,410.1c-2,0-3.8-1-3.7-3.1h1.8c0,.7.6,1.5,1.7,1.5,1,0,1.5-.3,1.5-1s-1.2-1.1-2.4-1.6c-1.3-.6-2.6-1.3-2.6-2.7s1.5-2.5,3.4-2.5,3.5.8,3.4,3h-1.8c0-.7-.3-1.3-1.4-1.4-1,0-1.6.4-1.6,1s1,1,2.1,1.5c1.3.6,3,1.3,3,2.9s-1.5,2.5-3.3,2.5Z"/>
    </g>
    <g class="st0">
      <path d="M1088.7,420.9v-.7c0-1.9,1.2-2.5,2.5-3.1,1.2-.6,2.4-1.2,2.4-3s-.8-1.7-1.9-1.7-2,1-2,2h-.9c0-1.5.9-2.8,2.9-2.8s2.8,1,2.8,2.5c0,2.4-1.5,3.1-2.9,3.7-1,.5-2,1-2,2.2h5v.9h-6Z"/>
      <path d="M1095.8,416.4c0-2.6.8-4.7,3.5-4.7s3.5,2.1,3.5,4.7-.8,4.7-3.5,4.7-3.5-2.1-3.5-4.7ZM1101.7,416.4c0-2-.5-3.8-2.5-3.8s-2.5,1.8-2.5,3.8.5,3.8,2.5,3.8,2.5-1.7,2.5-3.8Z"/>
      <path d="M1105,420.9v-7.8c-.3.2-.8.4-1.3.4h-.4v-.9h.4c.5,0,1.1-.3,1.3-.8h.9v9.1h-1Z"/>
      <path d="M1107.5,419.4h.9c.5.4,1.2.8,2.1.8,1.5,0,2.3-.7,2.3-1.9s-.5-2.1-2.3-2.2c-.6,0-1.2.2-1.6.5h-1l.6-4.8h4.7v.9h-3.9l-.4,3.1c.4-.2,1.1-.4,1.8-.4,2.2,0,3,1.4,3,3s-1.3,2.8-3.3,2.8-2.5-.5-3.1-1.6Z"/>
    </g>
  </g>
  <g class="st0">
    <g class="st0">
      <path d="M1191.2,289.2c0-2.7,1.5-4.7,4.3-4.7s3.8,1.1,4.1,3.2h-2c-.1-1-1-1.6-2.1-1.6-1.8,0-2.5,1.5-2.5,3.1s.9,3.1,2.5,3.1,2.2-.6,2.3-1.8h-2.1v-1.4h4c0,3-1.2,4.8-4.2,4.8s-4.3-2-4.3-4.7Z"/>
      <path d="M1208.5,293.7h-1.9c-.6-.7-.5-3.4-2.2-3.4h-1.3v3.4h-1.8v-9.1h3.7c2,0,3.1,1.3,3.1,2.8s-.5,2-1.3,2.3c1.2.5,1.1,3.1,1.9,4ZM1203.1,286.2v2.5h1.6c1,0,1.4-.5,1.4-1.3s-.4-1.3-1.4-1.3h-1.6Z"/>
      <path d="M1208.5,293.7l2.6-9.1h3.1l2.6,9.1h-1.9l-.7-2.3h-3.1l-.7,2.3h-1.9ZM1211.4,289.9h2.4l-1.1-3.9h-.3l-1.1,3.9Z"/>
      <path d="M1217.7,293.7v-9.1h5.7v1.6h-3.8v2h3.6v1.6h-3.6v3.9h-1.8Z"/>
      <path d="M1224.4,293.7v-9.1h1.8v9.1h-1.8Z"/>
      <path d="M1234.6,293.7h-2l-2-4.1h-.8v4.1h-1.8v-9.1h1.8v3.6h.8l1.7-3.6h1.8l-1.8,4.4,2.3,4.7Z"/>
      <path d="M1235.3,293.7v-9.1h3.8c3,0,4.1,1.4,4.1,4.6s-1.2,4.5-4.1,4.5h-3.8ZM1237.1,292.1h1.8c2,0,2.5-1.3,2.5-3s-.5-3-2.5-3h-1.8v5.9Z"/>
      <path d="M1244.4,293.7v-9.1h5.9v1.6h-4.1v2h3.8v1.6h-3.8v2.3h4.1v1.6h-5.9Z"/>
      <path d="M1254.9,293.9c-2,0-3.8-1-3.7-3.1h1.8c0,.7.6,1.5,1.7,1.5,1,0,1.5-.3,1.5-1s-1.2-1.1-2.4-1.6c-1.3-.6-2.6-1.3-2.6-2.7s1.5-2.5,3.4-2.5,3.5.8,3.4,3h-1.8c0-.7-.3-1.3-1.4-1.4-1,0-1.6.4-1.6,1s1,1,2.1,1.5c1.3.6,3,1.3,3,2.9s-1.5,2.5-3.3,2.5Z"/>
      <path d="M1259.5,293.7v-9.1h1.8v9.1h-1.8Z"/>
      <path d="M1262.5,289.2c0-2.7,1.5-4.7,4.3-4.7s3.8,1.1,4.1,3.2h-2c-.1-1-1-1.6-2.1-1.6-1.8,0-2.5,1.5-2.5,3.1s.9,3.1,2.5,3.1,2.2-.6,2.3-1.8h-2.1v-1.4h4c0,3-1.2,4.8-4.2,4.8s-4.3-2-4.3-4.7Z"/>
      <path d="M1278.1,292.1v-7.5h1.8v9.1h-3.5l-1.8-7.5h-.2v7.5h-1.9v-9.1h3.4l2,7.5h.2Z"/>
      <path d="M1281.3,292h1.6v1.5c0,.9-.9,1.7-1.2,1.9l-.4-.4c.2-.2.6-.7.6-1.3h-.7v-1.7Z"/>
    </g>
    <g class="st0">
      <path d="M1198.8,302.1c0,1.7-1.1,2.6-2.7,2.6h-4.5v-9.1h4.2c1.9,0,2.5,1,2.5,2.4s-.5,1.6-1.1,1.9c.7.2,1.6.8,1.5,2.2ZM1193.5,297.2v1.9h1.7c.9,0,1.3-.4,1.3-1s-.4-.9-1.3-.9h-1.7ZM1195.9,303.1c.9,0,1.2-.7,1.2-1.2s-.3-1.2-1.2-1.2h-2.4v2.4h2.4Z"/>
      <path d="M1205.1,295.6v1.6h-2.1v7.5h-1.8v-7.5h-2.1v-1.6h6Z"/>
      <path d="M1206.1,304.7v-9.1h1.8v9.1h-1.8Z"/>
      <path d="M1216.3,304.7h-2l-2-4.1h-.8v4.1h-1.8v-9.1h1.8v3.6h.8l1.7-3.6h1.8l-1.8,4.4,2.3,4.7Z"/>
      <path d="M1216,300.2c0-2.7,1.5-4.7,4.3-4.7s4.3,2,4.3,4.7-1.5,4.7-4.3,4.7-4.3-2-4.3-4.7ZM1222.8,300.2c0-1.7-.7-3.1-2.5-3.1s-2.5,1.5-2.5,3.1.9,3.1,2.5,3.1,2.5-1.5,2.5-3.1Z"/>
      <path d="M1231.1,303.1l1.8-7.5h3.2v9.1h-1.8v-7.5h-.1l-1.8,7.5h-2.8l-1.8-7.5h-.1v7.5h-1.8v-9.1h3.2l1.8,7.5h.1Z"/>
      <path d="M1241.4,304.7v-9.1h5.9v1.6h-4.1v2h3.8v1.6h-3.8v2.3h4.1v1.6h-5.9Z"/>
      <path d="M1248.3,303h1.6v1.7h-1.6v-1.7Z"/>
      <path d="M1253.6,303.2l2.2-7.6h1.9l-2.7,9.1h-2.8l-2.7-9.1h1.9l2.2,7.6Z"/>
      <path d="M1257.3,303h1.6v1.7h-1.6v-1.7Z"/>
    </g>
    <g class="st0">
      <path d="M1191.3,315.7v-.7c0-1.9,1.2-2.5,2.5-3.1,1.2-.6,2.4-1.2,2.4-3s-.8-1.7-1.9-1.7-2,1-2,2h-.9c0-1.5.9-2.8,2.9-2.8s2.8,1,2.8,2.5c0,2.4-1.5,3.1-2.9,3.7-1,.5-2,1-2,2.2h5v.9h-6Z"/>
      <path d="M1198.4,311.2c0-2.6.8-4.7,3.5-4.7s3.5,2.1,3.5,4.7-.8,4.7-3.5,4.7-3.5-2.1-3.5-4.7ZM1204.3,311.2c0-2-.5-3.8-2.5-3.8s-2.5,1.8-2.5,3.8.5,3.8,2.5,3.8,2.5-1.7,2.5-3.8Z"/>
      <path d="M1207.6,315.7v-7.8c-.3.2-.8.4-1.3.4h-.4v-.9h.4c.5,0,1.1-.3,1.3-.8h.9v9.1h-1Z"/>
      <path d="M1210.1,314.2h.9c.5.4,1.2.8,2.1.8,1.5,0,2.3-.7,2.3-1.9s-.5-2.1-2.3-2.2c-.6,0-1.2.2-1.6.5h-1l.6-4.8h4.7v.9h-3.9l-.4,3.1c.4-.2,1.1-.4,1.8-.4,2.2,0,3,1.4,3,3s-1.3,2.8-3.3,2.8-2.5-.5-3.1-1.6Z"/>
      <path d="M1221.2,312.8v-.7h4.4v.7h-4.4Z"/>
      <path d="M1230.3,315.7v-.7c0-1.9,1.2-2.5,2.5-3.1,1.2-.6,2.4-1.2,2.4-3s-.8-1.7-1.9-1.7-2,1-2,2h-.9c0-1.5.9-2.8,2.9-2.8s2.8,1,2.8,2.5c0,2.4-1.5,3.1-2.9,3.7-1,.5-2,1-2,2.2h5v.9h-6Z"/>
      <path d="M1237.5,311.2c0-2.6.8-4.7,3.5-4.7s3.5,2.1,3.5,4.7-.8,4.7-3.5,4.7-3.5-2.1-3.5-4.7ZM1243.4,311.2c0-2-.5-3.8-2.5-3.8s-2.5,1.8-2.5,3.8.5,3.8,2.5,3.8,2.5-1.7,2.5-3.8Z"/>
      <path d="M1246.7,315.7v-7.8c-.3.2-.8.4-1.3.4h-.4v-.9h.4c.5,0,1.1-.3,1.3-.8h.9v9.1h-1Z"/>
      <path d="M1255.9,312.9c0,1.6-1.2,3-3.2,3s-3.2-1.5-3.3-3.5c-.1-3.6.7-5.9,3.3-5.9s2.9.7,2.9,2.5h-1c0-1.4-1-1.6-1.9-1.6-2,0-2.4,2.1-2.3,4.1.4-1,1.4-1.4,2.4-1.4,2,0,3.1,1.3,3.1,2.9ZM1254.9,312.9c0-1.2-.8-2.1-2.2-2.1s-2.3.9-2.3,2.1.8,2.1,2.3,2.1,2.2-.9,2.2-2.1Z"/>
    </g>
  </g>
  <g class="st0">
    <g class="st0">
      <path d="M1285.7,371.9c0-2.7,1.5-4.7,4.3-4.7s3.8,1.1,4.1,3.2h-2c-.1-1-1-1.6-2.1-1.6-1.8,0-2.5,1.5-2.5,3.1s.9,3.1,2.5,3.1,2.2-.6,2.3-1.8h-2.1v-1.4h4c0,3-1.2,4.8-4.2,4.8s-4.3-2-4.3-4.7Z"/>
      <path d="M1303,376.4h-1.9c-.6-.7-.5-3.4-2.2-3.4h-1.3v3.4h-1.8v-9.1h3.7c2,0,3.1,1.3,3.1,2.8s-.5,2-1.3,2.3c1.2.5,1.1,3.1,1.9,4ZM1297.6,368.9v2.5h1.6c1,0,1.4-.5,1.4-1.3s-.4-1.3-1.4-1.3h-1.6Z"/>
      <path d="M1303,376.4l2.6-9.1h3.1l2.6,9.1h-1.9l-.7-2.3h-3.1l-.7,2.3h-1.9ZM1305.9,372.6h2.4l-1.1-3.9h-.3l-1.1,3.9Z"/>
      <path d="M1312.2,376.4v-9.1h5.7v1.6h-3.8v2h3.6v1.6h-3.6v3.9h-1.8Z"/>
      <path d="M1318.9,376.4v-9.1h1.8v9.1h-1.8Z"/>
      <path d="M1329.1,376.4h-2l-2-4.1h-.8v4.1h-1.8v-9.1h1.8v3.6h.8l1.7-3.6h1.8l-1.8,4.4,2.3,4.7Z"/>
      <path d="M1329.8,376.4v-9.1h3.8c3,0,4.1,1.4,4.1,4.6s-1.2,4.5-4.1,4.5h-3.8ZM1331.6,374.8h1.8c2,0,2.5-1.3,2.5-3s-.5-3-2.5-3h-1.8v5.9Z"/>
      <path d="M1338.9,376.4v-9.1h5.9v1.6h-4.1v2h3.8v1.6h-3.8v2.3h4.1v1.6h-5.9Z"/>
      <path d="M1349.4,376.6c-2,0-3.8-1-3.7-3.1h1.8c0,.7.6,1.5,1.7,1.5,1,0,1.5-.3,1.5-1s-1.2-1.1-2.4-1.6c-1.3-.6-2.6-1.3-2.6-2.7s1.5-2.5,3.4-2.5,3.5.8,3.4,3h-1.8c0-.7-.3-1.3-1.4-1.4-1,0-1.6.4-1.6,1s1,1,2.1,1.5c1.3.6,3,1.3,3,2.9s-1.5,2.5-3.3,2.5Z"/>
      <path d="M1354,376.4v-9.1h1.8v9.1h-1.8Z"/>
      <path d="M1357,371.9c0-2.7,1.5-4.7,4.3-4.7s3.8,1.1,4.1,3.2h-2c-.1-1-1-1.6-2.1-1.6-1.8,0-2.5,1.5-2.5,3.1s.9,3.1,2.5,3.1,2.2-.6,2.3-1.8h-2.1v-1.4h4c0,3-1.2,4.8-4.2,4.8s-4.3-2-4.3-4.7Z"/>
      <path d="M1372.6,374.8v-7.5h1.8v9.1h-3.5l-1.8-7.5h-.2v7.5h-1.9v-9.1h3.4l2,7.5h.2Z"/>
      <path d="M1375.8,374.7h1.6v1.5c0,.9-.9,1.7-1.2,1.9l-.4-.4c.2-.2.6-.7.6-1.3h-.7v-1.7Z"/>
    </g>
    <g class="st0">
      <path d="M1291.7,385.8v-7.5h1.8v9.1h-3.5l-1.8-7.5h-.2v7.5h-1.9v-9.1h3.4l2,7.5h.2Z"/>
      <path d="M1295.2,387.4v-9.1h5.9v1.6h-4.1v2h3.8v1.6h-3.8v2.3h4.1v1.6h-5.9Z"/>
      <path d="M1310.9,385.8l1.4-7.5h1.8l-1.8,9.1h-2.9l-1.4-7.5h-.2l-1.4,7.5h-2.9l-1.8-9.1h1.8l1.4,7.5h.2l1.4-7.5h2.9l1.4,7.5h.2Z"/>
      <path d="M1326.6,385.8l1.4-7.5h1.8l-1.8,9.1h-2.9l-1.4-7.5h-.2l-1.4,7.5h-2.9l-1.8-9.1h1.8l1.4,7.5h.2l1.4-7.5h2.9l1.4,7.5h.2Z"/>
      <path d="M1329.4,387.4l2.6-9.1h3.1l2.6,9.1h-1.9l-.7-2.3h-3.1l-.7,2.3h-1.9ZM1332.4,383.6h2.4l-1.1-3.9h-.3l-1.1,3.9Z"/>
      <path d="M1341.1,385.9l2.2-7.6h1.9l-2.7,9.1h-2.8l-2.7-9.1h1.9l2.2,7.6Z"/>
      <path d="M1346,387.4v-9.1h5.9v1.6h-4.1v2h3.8v1.6h-3.8v2.3h4.1v1.6h-5.9Z"/>
    </g>
    <g class="st0">
      <path d="M1292.8,398.4h-2l-2-4.1h-.8v4.1h-1.8v-9.1h1.8v3.6h.8l1.7-3.6h1.8l-1.8,4.4,2.3,4.7Z"/>
      <path d="M1300.8,398.4h-1.9c-.6-.7-.5-3.4-2.2-3.4h-1.3v3.4h-1.8v-9.1h3.7c2,0,3.1,1.3,3.1,2.8s-.5,2-1.3,2.3c1.2.5,1.1,3.1,1.9,4ZM1295.3,390.9v2.5h1.6c1,0,1.4-.5,1.4-1.3s-.4-1.3-1.4-1.3h-1.6Z"/>
      <path d="M1301.5,398.4v-9.1h5.9v1.6h-4.1v2h3.8v1.6h-3.8v2.3h4.1v1.6h-5.9Z"/>
      <path d="M1307.9,398.4l2.6-9.1h3.1l2.6,9.1h-1.9l-.7-2.3h-3.1l-.7,2.3h-1.9ZM1310.9,394.6h2.4l-1.1-3.9h-.3l-1.1,3.9Z"/>
      <path d="M1321.5,389.3v1.6h-2.1v7.5h-1.8v-7.5h-2.1v-1.6h6Z"/>
      <path d="M1322.5,398.4v-9.1h1.8v9.1h-1.8Z"/>
      <path d="M1329.3,396.9l2.2-7.6h1.9l-2.7,9.1h-2.8l-2.7-9.1h1.9l2.2,7.6Z"/>
      <path d="M1339.3,396.8l1.8-7.5h3.2v9.1h-1.8v-7.5h-.1l-1.8,7.5h-2.8l-1.8-7.5h-.1v7.5h-1.8v-9.1h3.2l1.8,7.5h.1Z"/>
      <path d="M1345.2,398.4l2.6-9.1h3.1l2.6,9.1h-1.9l-.7-2.3h-3.1l-.7,2.3h-1.9ZM1348.1,394.6h2.4l-1.1-3.9h-.3l-1.1,3.9Z"/>
      <path d="M1359.9,396.8v-7.5h1.8v9.1h-3.5l-1.8-7.5h-.2v7.5h-1.9v-9.1h3.4l2,7.5h.2Z"/>
      <path d="M1368.4,389.3h1.8v5.8c0,2.1-1.1,3.5-3.5,3.5s-3.4-1.3-3.4-3.5v-5.8h1.8v6.1c0,1.1.7,1.6,1.6,1.6s1.6-.5,1.6-1.6v-6.1Z"/>
      <path d="M1371.8,398.4v-9.1h5.7v1.6h-3.8v2h3.6v1.6h-3.6v3.9h-1.8Z"/>
      <path d="M1376.7,398.4l2.6-9.1h3.1l2.6,9.1h-1.9l-.7-2.3h-3.1l-.7,2.3h-1.9ZM1379.7,394.6h2.4l-1.1-3.9h-.3l-1.1,3.9Z"/>
      <path d="M1392.5,398.4h-2l-2-4.1h-.8v4.1h-1.8v-9.1h1.8v3.6h.8l1.7-3.6h1.8l-1.8,4.4,2.3,4.7Z"/>
      <path d="M1397.9,389.3v1.6h-2.1v7.5h-1.8v-7.5h-2.1v-1.6h6Z"/>
      <path d="M1403.8,389.3h1.8v5.8c0,2.1-1.1,3.5-3.5,3.5s-3.4-1.3-3.4-3.5v-5.8h1.8v6.1c0,1.1.7,1.6,1.6,1.6s1.6-.5,1.6-1.6v-6.1Z"/>
      <path d="M1414.6,398.4h-1.9c-.6-.7-.5-3.4-2.2-3.4h-1.3v3.4h-1.8v-9.1h3.7c2,0,3.1,1.3,3.1,2.8s-.5,2-1.3,2.3c1.2.5,1.1,3.1,1.9,4ZM1409.1,390.9v2.5h1.6c1,0,1.4-.5,1.4-1.3s-.4-1.3-1.4-1.3h-1.6Z"/>
    </g>
    <g class="st0">
      <path d="M1285.8,409.4v-.7c0-1.9,1.2-2.5,2.5-3.1,1.2-.6,2.4-1.2,2.4-3s-.8-1.7-1.9-1.7-2,1-2,2h-.9c0-1.5.9-2.8,2.9-2.8s2.8,1,2.8,2.5c0,2.4-1.5,3.1-2.9,3.7-1,.5-2,1-2,2.2h5v.9h-6Z"/>
      <path d="M1292.9,404.9c0-2.6.8-4.7,3.5-4.7s3.5,2.1,3.5,4.7-.8,4.7-3.5,4.7-3.5-2.1-3.5-4.7ZM1298.8,404.9c0-2-.5-3.8-2.5-3.8s-2.5,1.8-2.5,3.8.5,3.8,2.5,3.8,2.5-1.7,2.5-3.8Z"/>
      <path d="M1302.1,409.4v-7.8c-.3.2-.8.4-1.3.4h-.4v-.9h.4c.5,0,1.1-.3,1.3-.8h.9v9.1h-1Z"/>
      <path d="M1311.3,406.6c0,1.6-1.2,3-3.2,3s-3.2-1.5-3.3-3.5c-.1-3.6.7-5.9,3.3-5.9s2.9.7,2.9,2.5h-1c0-1.4-1-1.6-1.9-1.6-2,0-2.4,2.1-2.3,4.1.4-1,1.4-1.4,2.4-1.4,2,0,3.1,1.3,3.1,2.9ZM1310.3,406.6c0-1.2-.8-2.1-2.2-2.1s-2.3.9-2.3,2.1.8,2.1,2.3,2.1,2.2-.9,2.2-2.1Z"/>
      <path d="M1316.1,406.5v-.7h4.4v.7h-4.4Z"/>
      <path d="M1326.5,409.4v-7.8c-.3.2-.8.4-1.3.4h-.4v-.9h.4c.5,0,1.1-.3,1.3-.8h.9v9.1h-1Z"/>
      <path d="M1329,407c0-1.1.7-2,1.9-2.3-1.3-.3-1.7-1.4-1.7-2.1,0-1.5,1.1-2.4,3-2.4,1.9,0,3,.9,3,2.4,0,1.1-.7,1.9-1.7,2.1,1.4.4,1.9,1.4,1.8,2.3,0,1.6-1.1,2.5-3.1,2.5-2,0-3.1-1-3.1-2.5ZM1334.3,407c0-1.4-1.2-1.8-2.2-1.8s-2.2.4-2.2,1.8.8,1.7,2.2,1.7,2.2-.6,2.2-1.7ZM1334.2,402.6c0-1-.7-1.6-2-1.6s-2,.6-2,1.6,1.1,1.7,2,1.7,2-.4,2-1.7Z"/>
    </g>
  </g>
  <g class="st0">
    <g class="st0">
      <path d="M1387.1,327.3v-9.1h5.9v1.6h-4.1v2h3.8v1.6h-3.8v2.3h4.1v1.6h-5.9Z"/>
      <path d="M1396.1,325.7h3.4v1.6h-5.2v-9.1h1.8v7.5Z"/>
      <path d="M1405.3,318.2v1.6h-2.1v7.5h-1.8v-7.5h-2.1v-1.6h6Z"/>
      <path d="M1406.3,327.3v-9.1h5.9v1.6h-4.1v2h3.8v1.6h-3.8v2.3h4.1v1.6h-5.9Z"/>
      <path d="M1420.8,327.3h-1.9c-.6-.7-.5-3.4-2.2-3.4h-1.3v3.4h-1.8v-9.1h3.7c2,0,3.1,1.3,3.1,2.8s-.5,2-1.3,2.3c1.2.5,1.1,3.1,1.9,4ZM1415.3,319.8v2.5h1.6c1,0,1.4-.5,1.4-1.3s-.4-1.3-1.4-1.3h-1.6Z"/>
      <path d="M1427.1,325.7v-7.5h1.8v9.1h-3.5l-1.8-7.5h-.2v7.5h-1.9v-9.1h3.4l2,7.5h.2Z"/>
      <path d="M1436.4,318.2v1.6l-4.2,5.9h4.2v1.6h-6.3v-1.6l4.2-5.9h-3.6v-1.6h5.7Z"/>
      <path d="M1437.6,327.3v-9.1h5.9v1.6h-4.1v2h3.8v1.6h-3.8v2.3h4.1v1.6h-5.9Z"/>
      <path d="M1444.8,327.3v-9.1h1.8v9.1h-1.8Z"/>
      <path d="M1453.7,318.2v1.6h-2.1v7.5h-1.8v-7.5h-2.1v-1.6h6Z"/>
      <path d="M1453.4,325.6h1.6v1.5c0,.9-.9,1.7-1.2,1.9l-.4-.4c.2-.2.6-.7.6-1.3h-.7v-1.7Z"/>
    </g>
    <g class="st0">
      <path d="M1386.7,338.3v-.7c0-1.9,1.2-2.5,2.5-3.1,1.2-.6,2.4-1.2,2.4-3s-.8-1.7-1.9-1.7-2,1-2,2h-.9c0-1.5.9-2.8,2.9-2.8s2.8,1,2.8,2.5c0,2.4-1.5,3.1-2.9,3.7-1,.5-2,1-2,2.2h5v.9h-6Z"/>
      <path d="M1393.8,333.8c0-2.6.8-4.7,3.5-4.7s3.5,2.1,3.5,4.7-.8,4.7-3.5,4.7-3.5-2.1-3.5-4.7ZM1399.7,333.8c0-2-.5-3.8-2.5-3.8s-2.5,1.8-2.5,3.8.5,3.8,2.5,3.8,2.5-1.7,2.5-3.8Z"/>
      <path d="M1403,338.3v-7.8c-.3.2-.8.4-1.3.4h-.4v-.9h.4c.5,0,1.1-.3,1.3-.8h.9v9.1h-1Z"/>
      <path d="M1405.6,335.9c0-1.1.7-2,1.9-2.3-1.3-.3-1.7-1.4-1.7-2.1,0-1.5,1.1-2.4,3-2.4,1.9,0,3,.9,3,2.4,0,1.1-.7,1.9-1.7,2.1,1.4.4,1.9,1.4,1.8,2.3,0,1.6-1.1,2.5-3.1,2.5-2,0-3.1-1-3.1-2.5ZM1410.9,335.9c0-1.4-1.2-1.8-2.2-1.8s-2.2.4-2.2,1.8.8,1.7,2.2,1.7,2.2-.6,2.2-1.7ZM1410.7,331.5c0-1-.7-1.6-2-1.6s-2,.6-2,1.6,1.1,1.7,2,1.7,2-.4,2-1.7Z"/>
      <path d="M1416.7,335.4v-.7h4.4v.7h-4.4Z"/>
      <path d="M1421.9,338.3v-.7c0-1.9,1.2-2.5,2.5-3.1,1.2-.6,2.4-1.2,2.4-3s-.8-1.7-1.9-1.7-2,1-2,2h-.9c0-1.5.9-2.8,2.9-2.8s2.8,1,2.8,2.5c0,2.4-1.5,3.1-2.9,3.7-1,.5-2,1-2,2.2h5v.9h-6Z"/>
      <path d="M1429,333.8c0-2.6.8-4.7,3.5-4.7s3.5,2.1,3.5,4.7-.8,4.7-3.5,4.7-3.5-2.1-3.5-4.7ZM1434.9,333.8c0-2-.5-3.8-2.5-3.8s-2.5,1.8-2.5,3.8.5,3.8,2.5,3.8,2.5-1.7,2.5-3.8Z"/>
      <path d="M1438.3,338.3v-7.8c-.3.2-.8.4-1.3.4h-.4v-.9h.4c.5,0,1.1-.3,1.3-.8h.9v9.1h-1Z"/>
      <path d="M1440.8,332c0-1.7,1.2-3,3.2-3s3.3,1.5,3.3,3.5,0,3.3-.5,4.4c-.5,1.1-1.5,1.5-3,1.5s-2.8-1.2-3.1-2.2h1c.4.7,1,1.3,2.1,1.3s1.9-.4,2.2-1.2c.3-.8.3-2,.2-2.8-.4.9-1.3,1.3-2.3,1.3-2,0-3.1-1.3-3.1-2.9ZM1441.8,332c0,1.2.7,2.1,2.2,2.1s2.3-.9,2.3-2.1-.8-2.1-2.3-2.1-2.2.9-2.2,2.1Z"/>
    </g>
  </g>
  <g class="st0">
    <g class="st0">
      <path d="M1461.6,358.7c0-2.7,1.5-4.7,4.3-4.7s3.8,1.1,4.1,3.2h-2c-.1-1-1-1.6-2.1-1.6-1.8,0-2.5,1.5-2.5,3.1s.9,3.1,2.5,3.1,2.2-.6,2.3-1.8h-2.1v-1.4h4c0,3-1.2,4.8-4.2,4.8s-4.3-2-4.3-4.7Z"/>
      <path d="M1478.9,363.2h-1.9c-.6-.7-.5-3.4-2.2-3.4h-1.3v3.4h-1.8v-9.1h3.7c2,0,3.1,1.3,3.1,2.8s-.5,2-1.3,2.3c1.2.5,1.1,3.1,1.9,4ZM1473.5,355.7v2.5h1.6c1,0,1.4-.5,1.4-1.3s-.4-1.3-1.4-1.3h-1.6Z"/>
      <path d="M1478.9,363.2l2.6-9.1h3.1l2.6,9.1h-1.9l-.7-2.3h-3.1l-.7,2.3h-1.9ZM1481.8,359.4h2.4l-1.1-3.9h-.3l-1.1,3.9Z"/>
      <path d="M1488.1,363.2v-9.1h5.7v1.6h-3.8v2h3.6v1.6h-3.6v3.9h-1.8Z"/>
      <path d="M1494.8,363.2v-9.1h1.8v9.1h-1.8Z"/>
      <path d="M1505,363.2h-2l-2-4.1h-.8v4.1h-1.8v-9.1h1.8v3.6h.8l1.7-3.6h1.8l-1.8,4.4,2.3,4.7Z"/>
      <path d="M1505.7,363.2v-9.1h3.8c3,0,4.1,1.4,4.1,4.6s-1.2,4.5-4.1,4.5h-3.8ZM1507.5,361.6h1.8c2,0,2.5-1.3,2.5-3s-.5-3-2.5-3h-1.8v5.9Z"/>
      <path d="M1514.8,363.2v-9.1h5.9v1.6h-4.1v2h3.8v1.6h-3.8v2.3h4.1v1.6h-5.9Z"/>
      <path d="M1525.3,363.4c-2,0-3.8-1-3.7-3.1h1.8c0,.7.6,1.5,1.7,1.5,1,0,1.5-.3,1.5-1s-1.2-1.1-2.4-1.6c-1.3-.6-2.6-1.3-2.6-2.7s1.5-2.5,3.4-2.5,3.5.8,3.4,3h-1.8c0-.7-.3-1.3-1.4-1.4-1,0-1.6.4-1.6,1s1,1,2.1,1.5c1.3.6,3,1.3,3,2.9s-1.5,2.5-3.3,2.5Z"/>
      <path d="M1529.9,363.2v-9.1h1.8v9.1h-1.8Z"/>
      <path d="M1532.9,358.7c0-2.7,1.5-4.7,4.3-4.7s3.8,1.1,4.1,3.2h-2c-.1-1-1-1.6-2.1-1.6-1.8,0-2.5,1.5-2.5,3.1s.9,3.1,2.5,3.1,2.2-.6,2.3-1.8h-2.1v-1.4h4c0,3-1.2,4.8-4.2,4.8s-4.3-2-4.3-4.7Z"/>
      <path d="M1548.5,361.6v-7.5h1.8v9.1h-3.5l-1.8-7.5h-.2v7.5h-1.9v-9.1h3.4l2,7.5h.2Z"/>
      <path d="M1551.7,361.5h1.6v1.5c0,.9-.9,1.7-1.2,1.9l-.4-.4c.2-.2.6-.7.6-1.3h-.7v-1.7Z"/>
    </g>
    <g class="st0">
      <path d="M1467.6,372.6v-7.5h1.8v9.1h-3.5l-1.8-7.5h-.2v7.5h-1.9v-9.1h3.4l2,7.5h.2Z"/>
      <path d="M1471.1,374.2v-9.1h5.9v1.6h-4.1v2h3.8v1.6h-3.8v2.3h4.1v1.6h-5.9Z"/>
      <path d="M1486.8,372.6l1.4-7.5h1.8l-1.8,9.1h-2.9l-1.4-7.5h-.2l-1.4,7.5h-2.9l-1.8-9.1h1.8l1.4,7.5h.2l1.4-7.5h2.9l1.4,7.5h.2Z"/>
      <path d="M1502.5,372.6l1.4-7.5h1.8l-1.8,9.1h-2.9l-1.4-7.5h-.2l-1.4,7.5h-2.9l-1.8-9.1h1.8l1.4,7.5h.2l1.4-7.5h2.9l1.4,7.5h.2Z"/>
      <path d="M1505.3,374.2l2.6-9.1h3.1l2.6,9.1h-1.9l-.7-2.3h-3.1l-.7,2.3h-1.9ZM1508.3,370.4h2.4l-1.1-3.9h-.3l-1.1,3.9Z"/>
      <path d="M1517,372.7l2.2-7.6h1.9l-2.7,9.1h-2.8l-2.7-9.1h1.9l2.2,7.6Z"/>
      <path d="M1521.9,374.2v-9.1h5.9v1.6h-4.1v2h3.8v1.6h-3.8v2.3h4.1v1.6h-5.9Z"/>
    </g>
    <g class="st0">
      <path d="M1468.7,385.2h-2l-2-4.1h-.8v4.1h-1.8v-9.1h1.8v3.6h.8l1.7-3.6h1.8l-1.8,4.4,2.3,4.7Z"/>
      <path d="M1476.7,385.2h-1.9c-.6-.7-.5-3.4-2.2-3.4h-1.3v3.4h-1.8v-9.1h3.7c2,0,3.1,1.3,3.1,2.8s-.5,2-1.3,2.3c1.2.5,1.1,3.1,1.9,4ZM1471.2,377.7v2.5h1.6c1,0,1.4-.5,1.4-1.3s-.4-1.3-1.4-1.3h-1.6Z"/>
      <path d="M1477.5,385.2v-9.1h5.9v1.6h-4.1v2h3.8v1.6h-3.8v2.3h4.1v1.6h-5.9Z"/>
      <path d="M1483.8,385.2l2.6-9.1h3.1l2.6,9.1h-1.9l-.7-2.3h-3.1l-.7,2.3h-1.9ZM1486.8,381.4h2.4l-1.1-3.9h-.3l-1.1,3.9Z"/>
      <path d="M1497.4,376.1v1.6h-2.1v7.5h-1.8v-7.5h-2.1v-1.6h6Z"/>
      <path d="M1498.4,385.2v-9.1h1.8v9.1h-1.8Z"/>
      <path d="M1505.2,383.7l2.2-7.6h1.9l-2.7,9.1h-2.8l-2.7-9.1h1.9l2.2,7.6Z"/>
      <path d="M1515.2,383.6l1.8-7.5h3.2v9.1h-1.8v-7.5h-.1l-1.8,7.5h-2.8l-1.8-7.5h-.1v7.5h-1.8v-9.1h3.2l1.8,7.5h.1Z"/>
      <path d="M1521.1,385.2l2.6-9.1h3.1l2.6,9.1h-1.9l-.7-2.3h-3.1l-.7,2.3h-1.9ZM1524,381.4h2.4l-1.1-3.9h-.3l-1.1,3.9Z"/>
      <path d="M1535.8,383.6v-7.5h1.8v9.1h-3.5l-1.8-7.5h-.2v7.5h-1.9v-9.1h3.4l2,7.5h.2Z"/>
      <path d="M1544.3,376.1h1.8v5.8c0,2.1-1.1,3.5-3.5,3.5s-3.4-1.3-3.4-3.5v-5.8h1.8v6.1c0,1.1.7,1.6,1.6,1.6s1.6-.5,1.6-1.6v-6.1Z"/>
      <path d="M1547.7,385.2v-9.1h5.7v1.6h-3.8v2h3.6v1.6h-3.6v3.9h-1.8Z"/>
      <path d="M1552.6,385.2l2.6-9.1h3.1l2.6,9.1h-1.9l-.7-2.3h-3.1l-.7,2.3h-1.9ZM1555.6,381.4h2.4l-1.1-3.9h-.3l-1.1,3.9Z"/>
      <path d="M1568.4,385.2h-2l-2-4.1h-.8v4.1h-1.8v-9.1h1.8v3.6h.8l1.7-3.6h1.8l-1.8,4.4,2.3,4.7Z"/>
      <path d="M1573.8,376.1v1.6h-2.1v7.5h-1.8v-7.5h-2.1v-1.6h6Z"/>
      <path d="M1579.7,376.1h1.8v5.8c0,2.1-1.1,3.5-3.5,3.5s-3.4-1.3-3.4-3.5v-5.8h1.8v6.1c0,1.1.7,1.6,1.6,1.6s1.6-.5,1.6-1.6v-6.1Z"/>
      <path d="M1590.5,385.2h-1.9c-.6-.7-.5-3.4-2.2-3.4h-1.3v3.4h-1.8v-9.1h3.7c2,0,3.1,1.3,3.1,2.8s-.5,2-1.3,2.3c1.2.5,1.1,3.1,1.9,4ZM1585,377.7v2.5h1.6c1,0,1.4-.5,1.4-1.3s-.4-1.3-1.4-1.3h-1.6Z"/>
    </g>
    <g class="st0">
      <path d="M1461.7,396.2v-.7c0-1.9,1.2-2.5,2.5-3.1,1.2-.6,2.4-1.2,2.4-3s-.8-1.7-1.9-1.7-2,1-2,2h-.9c0-1.5.9-2.8,2.9-2.8s2.8,1,2.8,2.5c0,2.4-1.5,3.1-2.9,3.7-1,.5-2,1-2,2.2h5v.9h-6Z"/>
      <path d="M1468.8,391.7c0-2.6.8-4.7,3.5-4.7s3.5,2.1,3.5,4.7-.8,4.7-3.5,4.7-3.5-2.1-3.5-4.7ZM1474.7,391.7c0-2-.5-3.8-2.5-3.8s-2.5,1.8-2.5,3.8.5,3.8,2.5,3.8,2.5-1.7,2.5-3.8Z"/>
      <path d="M1478,396.2v-7.8c-.3.2-.8.4-1.3.4h-.4v-.9h.4c.5,0,1.1-.3,1.3-.8h.9v9.1h-1Z"/>
      <path d="M1480.6,389.9c0-1.7,1.2-3,3.2-3s3.3,1.5,3.3,3.5,0,3.3-.5,4.4c-.5,1.1-1.5,1.5-3,1.5s-2.8-1.2-3.1-2.2h1c.4.7,1,1.3,2.1,1.3s1.9-.4,2.2-1.2c.3-.8.3-2,.2-2.8-.4.9-1.3,1.3-2.3,1.3-2,0-3.1-1.3-3.1-2.9ZM1481.6,389.9c0,1.2.7,2.1,2.2,2.1s2.3-.9,2.3-2.1-.8-2.1-2.3-2.1-2.2.9-2.2,2.1Z"/>
      <path d="M1492.1,393.3v-.7h4.4v.7h-4.4Z"/>
      <path d="M1501.2,396.2v-.7c0-1.9,1.2-2.5,2.5-3.1,1.2-.6,2.4-1.2,2.4-3s-.8-1.7-1.9-1.7-2,1-2,2h-.9c0-1.5.9-2.8,2.9-2.8s2.8,1,2.8,2.5c0,2.4-1.5,3.1-2.9,3.7-1,.5-2,1-2,2.2h5v.9h-6Z"/>
      <path d="M1508.3,391.7c0-2.6.8-4.7,3.5-4.7s3.5,2.1,3.5,4.7-.8,4.7-3.5,4.7-3.5-2.1-3.5-4.7ZM1514.2,391.7c0-2-.5-3.8-2.5-3.8s-2.5,1.8-2.5,3.8.5,3.8,2.5,3.8,2.5-1.7,2.5-3.8Z"/>
      <path d="M1516.2,396.2v-.7c0-1.9,1.2-2.5,2.5-3.1,1.2-.6,2.4-1.2,2.4-3s-.8-1.7-1.9-1.7-2,1-2,2h-.9c0-1.5.9-2.8,2.9-2.8s2.8,1,2.8,2.5c0,2.4-1.5,3.1-2.9,3.7-1,.5-2,1-2,2.2h5v.9h-6Z"/>
      <path d="M1524.6,396.2v-7.8c-.3.2-.8.4-1.3.4h-.4v-.9h.4c.5,0,1.1-.3,1.3-.8h.9v9.1h-1Z"/>
    </g>
  </g>
  <g class="st0">
    <g class="st0">
      <path d="M1572.6,219.6v1.6h-2.1v7.5h-1.8v-7.5h-2.1v-1.6h6Z"/>
      <path d="M1573.7,228.7v-9.1h5.9v1.6h-4.1v2h3.8v1.6h-3.8v2.3h4.1v1.6h-5.9Z"/>
      <path d="M1580,228.7l2.6-9.1h3.1l2.6,9.1h-1.9l-.7-2.3h-3.1l-.7,2.3h-1.9ZM1583,224.9h2.4l-1.1-3.9h-.3l-1.1,3.9Z"/>
      <path d="M1594.4,227.1l1.8-7.5h3.2v9.1h-1.8v-7.5h-.1l-1.8,7.5h-2.8l-1.8-7.5h-.1v7.5h-1.8v-9.1h3.2l1.8,7.5h.1Z"/>
      <path d="M1603,227.1h3.4v1.6h-5.2v-9.1h1.8v7.5Z"/>
      <path d="M1607.4,228.7v-9.1h5.9v1.6h-4.1v2h3.8v1.6h-3.8v2.3h4.1v1.6h-5.9Z"/>
      <path d="M1614.6,228.7v-9.1h1.8v9.1h-1.8Z"/>
      <path d="M1623.5,219.6v1.6h-2.1v7.5h-1.8v-7.5h-2.1v-1.6h6Z"/>
      <path d="M1629.4,219.6h1.8v5.8c0,2.1-1.1,3.5-3.5,3.5s-3.4-1.3-3.4-3.5v-5.8h1.8v6.1c0,1.1.7,1.6,1.6,1.6s1.6-.5,1.6-1.6v-6.1Z"/>
      <path d="M1638.4,227.1v-7.5h1.8v9.1h-3.5l-1.8-7.5h-.2v7.5h-1.9v-9.1h3.4l2,7.5h.2Z"/>
      <path d="M1641.4,224.2c0-2.7,1.5-4.7,4.3-4.7s3.8,1.1,4.1,3.2h-2c-.1-1-1-1.6-2.1-1.6-1.8,0-2.5,1.5-2.5,3.1s.9,3.1,2.5,3.1,2.2-.6,2.3-1.8h-2.1v-1.4h4c0,3-1.2,4.8-4.2,4.8s-4.3-2-4.3-4.7Z"/>
      <path d="M1654.6,224.2c0-2.7,1.5-4.7,4.3-4.7s3.8,1.1,4.1,3.2h-2c-.1-1-1-1.6-2.1-1.6-1.8,0-2.5,1.5-2.5,3.1s.9,3.1,2.5,3.1,2.2-.6,2.3-1.8h-2.1v-1.4h4c0,3-1.2,4.8-4.2,4.8s-4.3-2-4.3-4.7Z"/>
      <path d="M1671.9,228.7h-1.9c-.6-.7-.5-3.4-2.2-3.4h-1.3v3.4h-1.8v-9.1h3.7c2,0,3.1,1.3,3.1,2.8s-.5,2-1.3,2.3c1.2.5,1.1,3.1,1.9,4ZM1666.5,221.2v2.5h1.6c1,0,1.4-.5,1.4-1.3s-.4-1.3-1.4-1.3h-1.6Z"/>
      <path d="M1671.9,228.7l2.6-9.1h3.1l2.6,9.1h-1.9l-.7-2.3h-3.1l-.7,2.3h-1.9ZM1674.8,224.9h2.4l-1.1-3.9h-.3l-1.1,3.9Z"/>
      <path d="M1681.1,228.7v-9.1h5.7v1.6h-3.8v2h3.6v1.6h-3.6v3.9h-1.8Z"/>
      <path d="M1687.8,228.7v-9.1h1.8v9.1h-1.8Z"/>
      <path d="M1698,228.7h-2l-2-4.1h-.8v4.1h-1.8v-9.1h1.8v3.6h.8l1.7-3.6h1.8l-1.8,4.4,2.3,4.7Z"/>
      <path d="M1701.7,228.7v-1.3c0-1.9,1.2-2.5,2.4-3,1.1-.5,2.2-.8,2.2-2.1s-.5-1.3-1.4-1.3-1.5.8-1.5,1.8h-1.8c0-1.9,1.2-3.2,3.2-3.2s3.2,1.2,3.2,2.8c0,2.4-1.7,3-3,3.4-.8.3-1.6.7-1.5,1.4h4.6v1.6h-6.4Z"/>
      <path d="M1709.5,228.7v-9.1h3.8c3,0,4.1,1.4,4.1,4.6s-1.2,4.5-4.1,4.5h-3.8ZM1711.4,227.1h1.8c2,0,2.5-1.3,2.5-3s-.5-3-2.5-3h-1.8v5.9Z"/>
    </g>
    <g class="st0">
      <path d="M1572.8,238.1v-7.5h1.8v9.1h-3.5l-1.8-7.5h-.2v7.5h-1.9v-9.1h3.4l2,7.5h.2Z"/>
      <path d="M1576.3,239.7v-9.1h5.9v1.6h-4.1v2h3.8v1.6h-3.8v2.3h4.1v1.6h-5.9Z"/>
      <path d="M1592,238.1l1.4-7.5h1.8l-1.8,9.1h-2.9l-1.4-7.5h-.2l-1.4,7.5h-2.9l-1.8-9.1h1.8l1.4,7.5h.2l1.4-7.5h2.9l1.4,7.5h.2Z"/>
      <path d="M1607.7,238.1l1.4-7.5h1.8l-1.8,9.1h-2.9l-1.4-7.5h-.2l-1.4,7.5h-2.9l-1.8-9.1h1.8l1.4,7.5h.2l1.4-7.5h2.9l1.4,7.5h.2Z"/>
      <path d="M1610.5,239.7l2.6-9.1h3.1l2.6,9.1h-1.9l-.7-2.3h-3.1l-.7,2.3h-1.9ZM1613.5,235.9h2.4l-1.1-3.9h-.3l-1.1,3.9Z"/>
      <path d="M1622.2,238.2l2.2-7.6h1.9l-2.7,9.1h-2.8l-2.7-9.1h1.9l2.2,7.6Z"/>
      <path d="M1627.1,239.7v-9.1h5.9v1.6h-4.1v2h3.8v1.6h-3.8v2.3h4.1v1.6h-5.9Z"/>
    </g>
    <g class="st0">
      <path d="M1573.9,250.7h-2l-2-4.1h-.8v4.1h-1.8v-9.1h1.8v3.6h.8l1.7-3.6h1.8l-1.8,4.4,2.3,4.7Z"/>
      <path d="M1581.9,250.7h-1.9c-.6-.7-.5-3.4-2.2-3.4h-1.3v3.4h-1.8v-9.1h3.7c2,0,3.1,1.3,3.1,2.8s-.5,2-1.3,2.3c1.2.5,1.1,3.1,1.9,4ZM1576.4,243.2v2.5h1.6c1,0,1.4-.5,1.4-1.3s-.4-1.3-1.4-1.3h-1.6Z"/>
      <path d="M1582.7,250.7v-9.1h5.9v1.6h-4.1v2h3.8v1.6h-3.8v2.3h4.1v1.6h-5.9Z"/>
      <path d="M1589,250.7l2.6-9.1h3.1l2.6,9.1h-1.9l-.7-2.3h-3.1l-.7,2.3h-1.9ZM1592,246.9h2.4l-1.1-3.9h-.3l-1.1,3.9Z"/>
      <path d="M1602.6,241.6v1.6h-2.1v7.5h-1.8v-7.5h-2.1v-1.6h6Z"/>
      <path d="M1603.6,250.7v-9.1h1.8v9.1h-1.8Z"/>
      <path d="M1610.4,249.2l2.2-7.6h1.9l-2.7,9.1h-2.8l-2.7-9.1h1.9l2.2,7.6Z"/>
      <path d="M1620.4,249.1l1.8-7.5h3.2v9.1h-1.8v-7.5h-.1l-1.8,7.5h-2.8l-1.8-7.5h-.1v7.5h-1.8v-9.1h3.2l1.8,7.5h.1Z"/>
      <path d="M1626.3,250.7l2.6-9.1h3.1l2.6,9.1h-1.9l-.7-2.3h-3.1l-.7,2.3h-1.9ZM1629.2,246.9h2.4l-1.1-3.9h-.3l-1.1,3.9Z"/>
      <path d="M1641,249.1v-7.5h1.8v9.1h-3.5l-1.8-7.5h-.2v7.5h-1.9v-9.1h3.4l2,7.5h.2Z"/>
      <path d="M1649.5,241.6h1.8v5.8c0,2.1-1.1,3.5-3.5,3.5s-3.4-1.3-3.4-3.5v-5.8h1.8v6.1c0,1.1.7,1.6,1.6,1.6s1.6-.5,1.6-1.6v-6.1Z"/>
      <path d="M1652.9,250.7v-9.1h5.7v1.6h-3.8v2h3.6v1.6h-3.6v3.9h-1.8Z"/>
      <path d="M1657.8,250.7l2.6-9.1h3.1l2.6,9.1h-1.9l-.7-2.3h-3.1l-.7,2.3h-1.9ZM1660.8,246.9h2.4l-1.1-3.9h-.3l-1.1,3.9Z"/>
      <path d="M1673.6,250.7h-2l-2-4.1h-.8v4.1h-1.8v-9.1h1.8v3.6h.8l1.7-3.6h1.8l-1.8,4.4,2.3,4.7Z"/>
      <path d="M1679,241.6v1.6h-2.1v7.5h-1.8v-7.5h-2.1v-1.6h6Z"/>
      <path d="M1684.9,241.6h1.8v5.8c0,2.1-1.1,3.5-3.5,3.5s-3.4-1.3-3.4-3.5v-5.8h1.8v6.1c0,1.1.7,1.6,1.6,1.6s1.6-.5,1.6-1.6v-6.1Z"/>
      <path d="M1695.7,250.7h-1.9c-.6-.7-.5-3.4-2.2-3.4h-1.3v3.4h-1.8v-9.1h3.7c2,0,3.1,1.3,3.1,2.8s-.5,2-1.3,2.3c1.2.5,1.1,3.1,1.9,4ZM1690.2,243.2v2.5h1.6c1,0,1.4-.5,1.4-1.3s-.4-1.3-1.4-1.3h-1.6Z"/>
    </g>
    <g class="st0">
      <path d="M1566.9,261.7v-.7c0-1.9,1.2-2.5,2.5-3.1,1.2-.6,2.4-1.2,2.4-3s-.8-1.7-1.9-1.7-2,1-2,2h-.9c0-1.5.9-2.8,2.9-2.8s2.8,1,2.8,2.5c0,2.4-1.5,3.1-2.9,3.7-1,.5-2,1-2,2.2h5v.9h-6Z"/>
      <path d="M1574,257.2c0-2.6.8-4.7,3.5-4.7s3.5,2.1,3.5,4.7-.8,4.7-3.5,4.7-3.5-2.1-3.5-4.7ZM1579.9,257.2c0-2-.5-3.8-2.5-3.8s-2.5,1.8-2.5,3.8.5,3.8,2.5,3.8,2.5-1.7,2.5-3.8Z"/>
      <path d="M1581.9,261.7v-.7c0-1.9,1.2-2.5,2.5-3.1,1.2-.6,2.4-1.2,2.4-3s-.8-1.7-1.9-1.7-2,1-2,2h-.9c0-1.5.9-2.8,2.9-2.8s2.8,1,2.8,2.5c0,2.4-1.5,3.1-2.9,3.7-1,.5-2,1-2,2.2h5v.9h-6Z"/>
      <path d="M1590.3,261.7v-7.8c-.3.2-.8.4-1.3.4h-.4v-.9h.4c.5,0,1.1-.3,1.3-.8h.9v9.1h-1Z"/>
      <path d="M1596.6,258.8v-.7h4.4v.7h-4.4Z"/>
      <path d="M1605.7,261.7v-.7c0-1.9,1.2-2.5,2.5-3.1,1.2-.6,2.4-1.2,2.4-3s-.8-1.7-1.9-1.7-2,1-2,2h-.9c0-1.5.9-2.8,2.9-2.8s2.8,1,2.8,2.5c0,2.4-1.5,3.1-2.9,3.7-1,.5-2,1-2,2.2h5v.9h-6Z"/>
      <path d="M1612.8,257.2c0-2.6.8-4.7,3.5-4.7s3.5,2.1,3.5,4.7-.8,4.7-3.5,4.7-3.5-2.1-3.5-4.7ZM1618.8,257.2c0-2-.5-3.8-2.5-3.8s-2.5,1.8-2.5,3.8.5,3.8,2.5,3.8,2.5-1.7,2.5-3.8Z"/>
      <path d="M1620.8,261.7v-.7c0-1.9,1.2-2.5,2.5-3.1,1.2-.6,2.4-1.2,2.4-3s-.8-1.7-1.9-1.7-2,1-2,2h-.9c0-1.5.9-2.8,2.9-2.8s2.8,1,2.8,2.5c0,2.4-1.5,3.1-2.9,3.7-1,.5-2,1-2,2.2h5v.9h-6Z"/>
      <path d="M1631.9,261.7v-2.1h-4.4v-.9l4.4-6.1h1.1v6.1h1.4v.9h-1.4v2.1h-1ZM1628.5,258.7h3.4v-4.7l-3.4,4.7Z"/>
    </g>
  </g>
  <path d="M1647.7,299.9c-3.8,0-7,2.4-8.2,5.7l-35.9-11.6v-26.6h-44.3v27.6l-54.7,20.5v-13.1h-44.3v29.7l-59,22.1c-1.6-2.4-4.3-3.9-7.3-3.9s-6.9,2.3-8.2,5.5l-57.2-11.7v-26.8h-44.3v22.2l-50.7,1.8v-19.1h-44.3v20.7l-69.5,2.5c-.9-5.5-5.6-9.7-11.3-9.7s-11,4.6-11.5,10.5l-74.6,2.7c-.8-4.4-4.7-7.7-9.3-7.7s-8.9,3.7-9.4,8.4l-39.8,1.4-10.9.2c0-.2,0-.4,0-.6,0-5.2-4.3-9.5-9.5-9.5s-9.5,4.3-9.5,9.5,0,.7,0,1l-46.4,1v-20.4h-44.3v21.4l-64.7,1.3c-1-3.3-4-5.8-7.7-5.8s-6.9,2.6-7.8,6.1l-74.6,1.6c-.3-6.1-5.3-11-11.5-11s-11.5,5.1-11.5,11.5l-62,1.3v-20.3h-44.3v27.9l-51.9,18.8c-1.4-4.8-5.8-8.3-11-8.3s-11.5,5.1-11.5,11.5.4,3.2,1,4.6l-62.6,22.7c-1-3.2-4.1-5.5-7.6-5.5s-8,3.6-8,8,.2,2,.6,3l-79.4,28.8c-1.4-2.5-4-4.1-7-4.1-4.4,0-8,3.6-8,8s0,1,.1,1.5l-62.7,22.7c-1.8-4-5.8-6.8-10.5-6.8s-11.5,5.1-11.5,11.5.2,2.2.4,3.2l-45.1,16.4v-15.7h-44.3v43.8l44.3-4.7v-20.1l46.4-16.8c2,3.3,5.6,5.5,9.8,5.5,6.4,0,11.5-5.1,11.5-11.5s0-1.1-.1-1.7l63-22.8c1.4,2.2,3.9,3.6,6.7,3.6,4.4,0,8-3.6,8-8s0-.6,0-.9l80.2-29.1c1.4,1.5,3.5,2.4,5.7,2.4,4.2,0,7.6-3.2,8-7.3l63.9-23.1c2.1,2.5,5.3,4.2,8.9,4.2,6.4,0,11.5-5.1,11.5-11.5s0,0,0,0l51.4-18.6v12.6l44.3-4.7v-15.7l62.4-1.3c1.3,4.9,5.8,8.5,11.1,8.5s10-3.8,11.2-8.9l74.7-1.6c.6,3.8,3.9,6.8,7.9,6.8s7.5-3.1,7.9-7.1l64.5-1.3v19.3l44.3-4.7v-15.6l47.3-1c1.5,3.2,4.8,5.4,8.6,5.4s7.3-2.4,8.8-5.8l11.7-.2,39.9-1.4c.9,4.3,4.7,7.5,9.3,7.5s8.8-3.6,9.4-8.2l74.7-2.7c1,5.3,5.7,9.4,11.3,9.4s10.8-4.5,11.4-10.2l69.4-2.5v20l44.3-4.7v-16.9l50.7-1.8v18.5l44.3-4.7v-9.2l56.6,11.6c0,0,0,.1,0,.2,0,4.9,3.9,8.8,8.8,8.8s8.8-3.9,8.8-8.8,0-1.4-.2-2l57.7-21.6v10.7l44.3-4.7v-22.7l54.7-20.5v12.9l44.3-4.7v-9.3l35.3,11.4s0,0,0,0c0,4.9,3.9,8.8,8.8,8.8s8.8-3.9,8.8-8.8-3.9-8.8-8.8-8.8Z"/>
</svg>